<?xml version="1.0" encoding="utf-8"?>
<!-- Generator: Adobe Illustrator 17.1.0, SVG Export Plug-In . SVG Version: 6.00 Build 0)  -->
<!DOCTYPE svg PUBLIC "-//W3C//DTD SVG 1.1//EN" "http://www.w3.org/Graphics/SVG/1.1/DTD/svg11.dtd">
<svg version="1.1" id="Layer_1" xmlns="http://www.w3.org/2000/svg" xmlns:xlink="http://www.w3.org/1999/xlink" x="0px" y="0px"
	 viewBox="0 0 800 800" enable-background="new 0 0 800 800" xml:space="preserve">
<path fill="#FFFFFF" d="M444.503,398.833l208.332-208.332c12.887-12.887,12.887-33.782,0-46.669
	c-12.889-12.888-33.781-12.888-46.67,0L397.833,352.164L189.501,143.832c-12.888-12.888-33.781-12.888-46.669,0
	c-12.887,12.887-12.887,33.782,0,46.669l208.332,208.332L142.832,607.165c-12.887,12.888-12.887,33.782,0,46.67
	c6.444,6.443,14.889,9.665,23.334,9.665s16.891-3.222,23.334-9.665l208.332-208.332l208.332,208.332
	c6.444,6.443,14.89,9.665,23.335,9.665s16.891-3.222,23.335-9.665c12.887-12.888,12.887-33.782,0-46.67L444.503,398.833z"/>
</svg>
