<?xml version="1.0" encoding="utf-8"?>
<!-- Generator: Adobe Illustrator 17.1.0, SVG Export Plug-In . SVG Version: 6.00 Build 0)  -->
<!DOCTYPE svg PUBLIC "-//W3C//DTD SVG 1.1//EN" "http://www.w3.org/Graphics/SVG/1.1/DTD/svg11.dtd">
<svg version="1.1" id="Layer_1" xmlns="http://www.w3.org/2000/svg" xmlns:xlink="http://www.w3.org/1999/xlink" x="0px" y="0px"
	 viewBox="0 0 32 32" enable-background="new 0 0 32 32" xml:space="preserve">
<path fill="none" stroke="#A21C1C" stroke-width="2" stroke-linecap="round" stroke-linejoin="round" d="M7.8,9.3l2,9.7
	c0.3,1.3,1.5,2.2,2.9,2.1l9.1-0.9c1.1-0.1,2-0.9,2.3-2L26,11c0.2-0.8-0.4-1.7-1.3-1.7H13.6"/>
<path fill="none" stroke="#A21C1C" stroke-width="2" stroke-linecap="round" stroke-linejoin="round" d="M7.8,9.3L7,5.3H4.7"/>
<path fill="none" stroke="#A21C1C" stroke-width="2" stroke-linecap="round" stroke-linejoin="round" d="M22.8,25.7
	c-0.3,0-0.5,0.2-0.5,0.5c0,0.3,0.2,0.5,0.5,0.5c0.3,0,0.5-0.2,0.5-0.5C23.3,25.9,23.1,25.7,22.8,25.7"/>
<path fill="none" stroke="#A21C1C" stroke-width="2" stroke-linecap="round" stroke-linejoin="round" d="M11.6,25.7
	c-0.3,0-0.5,0.2-0.5,0.5c0,0.3,0.2,0.5,0.5,0.5c0.3,0,0.5-0.2,0.5-0.5C12.1,25.9,11.9,25.7,11.6,25.7"/>
</svg>
