<?xml version="1.0" encoding="utf-8"?>
<!-- Generator: Adobe Illustrator 17.1.0, SVG Export Plug-In . SVG Version: 6.00 Build 0)  -->
<!DOCTYPE svg PUBLIC "-//W3C//DTD SVG 1.1//EN" "http://www.w3.org/Graphics/SVG/1.1/DTD/svg11.dtd">
<svg version="1.1" id="Layer_1" xmlns="http://www.w3.org/2000/svg" xmlns:xlink="http://www.w3.org/1999/xlink" x="0px" y="0px"
	 viewBox="0 0 24 24" enable-background="new 0 0 24 24" xml:space="preserve">
<path opacity="0.5" fill="none" stroke="#C7383E" stroke-width="1.5" stroke-linecap="round" stroke-linejoin="round" enable-background="new    " d="
	M12,13.2L12,13.2c-2,0-3.6-1.6-3.6-3.6l0,0C8.4,7.6,10,6,12,6l0,0c2,0,3.6,1.6,3.6,3.6l0,0C15.6,11.6,14,13.2,12,13.2z"/>
<path fill="none" stroke="#A21C1C" stroke-width="1.5" stroke-linecap="round" stroke-linejoin="round" d="M12,22.1
	c0,0-7.9-6.5-7.9-12.4c0-4.3,3.5-7.9,7.9-7.9s7.9,3.5,7.9,7.9C19.9,15.7,12,22.1,12,22.1z"/>
</svg>
