<?xml version="1.0" encoding="utf-8"?>
<!-- Generator: Adobe Illustrator 17.1.0, SVG Export Plug-In . SVG Version: 6.00 Build 0)  -->
<!DOCTYPE svg PUBLIC "-//W3C//DTD SVG 1.1//EN" "http://www.w3.org/Graphics/SVG/1.1/DTD/svg11.dtd">
<svg version="1.1" id="Layer_1" xmlns="http://www.w3.org/2000/svg" xmlns:xlink="http://www.w3.org/1999/xlink" x="0px" y="0px"
	 viewBox="0 0 799.25 802" enable-background="new 0 0 799.25 802" xml:space="preserve">
<g>
	<g>
		<path fill="none" stroke="#6ECE6B" stroke-width="4" stroke-linecap="round" stroke-linejoin="round" stroke-miterlimit="10" d="
			M576.75,228c-3.333-4.167-6.6-8.389-10.017-12.486c-4.135-4.959-5.478-10.711-5.511-17.014c-0.079-15-0.353-30-0.363-45
			c-0.001-0.999,1.581-2.883,2.388-2.862c7.286,0.192,9.895-2.498,7.952-11.888c-13.615,0-27.282,0-40.914,0
			c-1.374,10.155-0.792,10.93,9.466,12.318c0,1.095-0.01,2.264,0.002,3.432c0.164,16,0.503,32.001,0.408,47.999
			c-0.035,5.814-3.341,10.598-6.923,14.989c-6.161,7.552-12.648,14.929-16.428,24.035c-4.432,10.677-6.947,21.896-7.008,33.476
			c-0.151,28.666-0.05,57.333-0.05,86c0,1.683,0,3.367,0,5.5c1.992,0,3.496,0,5,0c41.333,0,82.667,0.001,124-0.001
			c5.992,0,5.998-0.007,5.999-5.999c0.003-25.667,0.385-51.341-0.139-76.997c-0.327-15.999-1.386-32.176-9.942-46.453
			c-3.673-6.129-7.982-11.934-12.486-17.494c-5.629-6.949-8.91-14.305-8.562-23.56c0.507-13.481,0.13-26.995,0.13-40.495
			c0-1.504,0-3.008,0-5c1.663,0,2.832,0.021,4-0.004c4.959-0.105,8.493-4.747,6.883-9.456c-0.377-1.103-2.206-2.413-3.385-2.431
			c-11.997-0.179-23.999-0.164-35.997-0.022c-1.174,0.014-3.292,1.2-3.327,1.921c-0.119,2.478-0.022,5.239,1.016,7.4
			c0.638,1.328,3.071,2.009,4.832,2.512c1.39,0.397,2.985,0.08,4.977,0.08c0,7.993,0,15.496,0,23c0,7.833-0.352,15.687,0.093,23.495
			c0.509,8.937-2.952,16.148-8.635,22.467c-6.266,6.968-11.626,14.597-15.311,23.102c-3.677,8.486-5.986,17.568-6.111,26.937
			c-0.426,31.999-0.702,64-1.035,96"/>
		<path fill="none" stroke="#6ECE6B" stroke-width="4" stroke-linecap="round" stroke-linejoin="round" stroke-miterlimit="10" d="
			M429.25,284.5c17.777-7.994,33.238-19.326,46.957-33.043c5.645-5.645,10.331-12.134,12.495-19.97
			c2.589-9.374,1.315-18.854-1.13-27.939c-1.948-7.238-5.531-14.031-8.296-21.058c-0.849-2.158-1.99-3.071-4.526-3.062
			c-30.666,0.111-61.333,0.097-92,0.018c-2.195-0.006-3.591,0.521-4.517,2.546c-4.905,10.731-8.785,21.638-10.714,33.47
			c-2.466,15.124,4.19,26.102,13.8,35.97c13.65,14.015,29.211,25.502,47.43,33.068"/>
		<path fill="none" stroke="#6ECE6B" stroke-width="4" stroke-linecap="round" stroke-linejoin="round" stroke-miterlimit="10" d="
			M197.75,580c1.15-7.546-7.81-18.87-18.969-21.624c-6.336-1.564-12.283-0.367-17.436,2.307c-12.941,6.715-25.871,6.516-38.51,0.633
			c-8.941-4.161-16.841-4.074-25.644,0.06c-12.758,5.991-25.635,5.611-38.475-0.811c-19.521-9.763-38.228,7.118-36.899,24.429
			c0.775,10.089,7.585,20.871,20.899,23.663c6.897,1.446,12.822-0.735,18.462-3.313c12.647-5.78,24.909-5.117,37.037,0.726
			c8.18,3.942,15.968,3.996,24.05-0.041c12.53-6.258,25.273-6.132,37.977-0.514c16.24,7.181,31.751,1.686,36.881-13.56
			c1.192-3.544,0.794-7.624,1.127-11.457"/>
		<path fill="none" stroke="#6ECE6B" stroke-width="4" stroke-linecap="round" stroke-linejoin="round" stroke-miterlimit="10" d="
			M664.25,600c4.833-1.5,9.898-2.498,14.457-4.594c13.576-6.243,20.921-17.164,23.092-31.898
			c1.795-12.184-0.668-23.849-3.583-35.499c-0.599-2.392-2.367-4.692-2.315-7.005c0.113-4.985-2.947-4.523-6.151-4.518
			c-17.667,0.03-35.335,0.14-52.999-0.094c-3.432-0.046-5.085,1.029-6.02,4.103c-3.278,10.773-5.897,21.612-6.073,33.004
			c-0.129,8.399,0.587,16.484,4.599,23.997c6.958,13.029,18.029,20.031,32.49,22.014c0.677,0.093,1.335,0.324,2.001,0.49"/>
		<path fill="none" stroke="#6ECE6B" stroke-width="4" stroke-linecap="round" stroke-linejoin="round" stroke-miterlimit="10" d="
			M83.75,665.5c-5.991-1.376-11.781-3.283-17.952-4.293c-12.379-2.025-23.605,0.845-33.912,6.539
			c-7.691,4.249-14.128,10.764-21.14,16.248c-2.809,2.197-5.722,4.267-8.462,6.546c-0.886,0.737-1.766,1.918-1.875,2.975
			c-0.059,0.575,1.486,1.863,2.344,1.898c7.127,0.286,10.791,5.482,15.031,10.055c5.528,5.962,11.109,11.901,17.045,17.447
			c3.024,2.825,7.12,3.681,11.421,3.634c12.667-0.139,25.337-0.05,38.249-0.05c0-31.833,0-63.167,0-95.477
			c-14.096,0.499-27.946,0.656-41.741,1.602c-8.277,0.567-12.972,7.166-18.034,12.853c-4.546,5.107-8.956,10.437-14.13,14.84
			c-2.427,2.065-6.511,2.182-9.845,3.182"/>
		<path fill="none" stroke="#6ECE6B" stroke-width="4" stroke-linecap="round" stroke-linejoin="round" stroke-miterlimit="10" d="
			M571.75,3.5c0,4.167,0.03,8.334-0.005,12.5c-0.149,17.556-3.559,34.63-8.079,51.478c-2.181,8.13-5.656,15.918-7.753,24.065
			c-1.132,4.397-3.216,5.059-7.164,5.037c-27.166-0.15-54.333-0.079-81.953-0.079c-11.571-29.835-19.222-60.54-18.047-93"/>
		<path fill="none" stroke="#6ECE6B" stroke-width="4" stroke-linecap="round" stroke-linejoin="round" stroke-miterlimit="10" d="
			M241.75,527c2.333-0.5,4.723-0.819,6.991-1.528c20.868-6.529,36.083-19.617,42.733-40.559c3.579-11.271,1.84-23.262-2.759-34.398
			c-4.379-10.605-6.254-21.597-5.981-33.015c0.012-0.508-0.211-1.022-0.373-1.75c-27.275,0-54.443,0-81.686,0
			c-0.267,1.081-0.966,2.444-0.867,3.746c0.962,12.667-3.201,24.341-7.123,35.982c-6.058,17.979-2.719,33.905,9.021,48.558
			c8.337,10.406,18.918,17.166,31.55,20.947c2.631,0.787,5.328,1.351,7.995,2.017"/>
		<path fill="none" stroke="#6ECE6B" stroke-width="4" stroke-linecap="round" stroke-linejoin="round" stroke-miterlimit="10" d="
			M588.75,509.5c0.667-13.333,1.262-26.671,2.024-39.999c0.543-9.507,1.316-19.001,1.967-28.502
			c0.069-1.001,0.009-2.011,0.009-3.249c-22.833,0-45.167,0-68,0c0,5.573-0.13,10.916,0.038,16.249
			c0.152,4.839,0.689,9.665,0.95,14.502c0.701,12.998,1.354,25.999,1.986,39.001c0.032,0.657-0.308,1.332-0.474,1.999"/>
		<path fill="none" stroke="#6ECE6B" stroke-width="4" stroke-linecap="round" stroke-linejoin="round" stroke-miterlimit="10" d="
			M798.75,418.5c-27,0-54,0.043-81-0.054c-3.433-0.012-5.099,0.5-6.198,4.5c-2.993,10.896-5.35,21.803-7.028,33.021
			c-3.035,20.301,5.138,36.113,17.777,50.488c7.409,8.427,15.6,16.053,26.451,20.037c1.978,0.726,3.978,1.819,6.001,1.9
			c3.305,0.133,3.974,2.042,3.978,4.608c0.032,20.833,0.043,41.667-0.005,62.5c-0.009,3.834-0.311,7.667-0.477,11.5"/>
		<path fill="none" stroke="#6ECE6B" stroke-width="4" stroke-linecap="round" stroke-linejoin="round" stroke-miterlimit="10" d="
			M316.75,679c7.961-0.459,15.055-3.008,21.009-8.49c8.812-8.114,13.621-18.082,15.063-30.001
			c2.044-16.897-1.376-32.979-5.919-49.052c-0.801-2.835-1.954-2.982-4.152-2.977c-18.333,0.036-36.667,0.02-55.167,0.02
			c-3.575,12.907-6.748,25.718-6.731,39.5c0.011,9.417,0.112,18.385,3.935,26.983c4.985,11.212,12.753,19.59,24.974,22.981
			c2.098,0.582,4.324,0.702,6.49,1.035"/>
		<path fill="none" stroke="#6ECE6B" stroke-width="4" stroke-linecap="round" stroke-linejoin="round" stroke-miterlimit="10" d="
			M440.25,661c-0.167,9.667-0.552,19.337-0.378,28.998c0.059,3.255-0.419,4.883-3.533,6.659
			c-7.691,4.386-10.775,11.797-9.445,20.321c1.214,7.776,5.924,13.086,13.832,15.598c10.647,3.382,21.871-2.223,24.954-13.095
			c2.804-9.885-0.909-18.557-9.999-23.35c-2.775-1.463-2.959-3.157-2.954-5.63c0.04-20.833,0.024-41.667,0.022-62.5
			c-0.001-5.405-1.575-7.688-5.499-8c-3.72-0.296-7.334,2.569-7.394,7.002c-0.152,11.162,0.228,22.332,0.394,33.499"/>
		<path fill="none" stroke="#6ECE6B" stroke-width="4" stroke-linecap="round" stroke-linejoin="round" stroke-miterlimit="10" d="
			M250.75,801.5c-1.333-9.333-2.682-18.664-3.994-28.001c-0.702-4.995-1.362-9.996-1.998-15c-0.415-3.268-1.467-5.151-5.509-5.102
			c-18.997,0.231-37.999,0.103-56.999,0.103c-1.006,0-2.012,0-3.587,0c-2.009,14.269-3.955,28.136-5.92,41.999
			c-0.284,2.007-0.66,4.001-0.993,6.001"/>
		<path fill="none" stroke="#6ECE6B" stroke-width="4" stroke-linecap="round" stroke-linejoin="round" stroke-miterlimit="10" d="
			M527.75,535.5c0,14.835,0,29.67,0,44.75c20.5,0,40.5,0,61,0c0-15.08,0-29.915,0-44.75"/>
		<path fill="none" stroke="#6ECE6B" stroke-width="4" stroke-linecap="round" stroke-linejoin="round" stroke-miterlimit="10" d="
			M110.75,97.5c1-4.667,1.959-9.343,3.008-13.998c2.82-12.517-0.334-23.658-7.478-34.023c-4.945-7.175-11.239-12.226-20.035-13.445
			c-9.122-1.264-16.489,2.099-22.521,8.943c-4.809,5.456-5.138,11.618-2.904,17.998c2.008,5.733,6.461,8.043,13.427,7.496
			c4.233-0.333,6.465-2.579,7.714-6.91c0.897-3.111,0.262-4.385-2.212-5.561"/>
		<path fill="none" stroke="#6ECE6B" stroke-width="4" stroke-linecap="round" stroke-linejoin="round" stroke-miterlimit="10" d="
			M363.75,100.5c5.14-6.848,11.701-11.758,20.009-13.967c14.953-3.977,30.644,2.314,38.944,14.998
			c13.961,21.334,2.66,48.826-22.486,54.833c-10.162,2.427-19.928,0.039-28.476-6.353C370.3,148.933,368.75,148,367.25,147"/>
		<path fill="none" stroke="#6ECE6B" stroke-width="4" stroke-linecap="round" stroke-linejoin="round" stroke-miterlimit="10" d="
			M345.25,492c-8.41-9.05-21.425-11.859-33.047-3.565c-6.248,4.459-10.173,13.625-7.95,20.564
			c3.204,10.001,9.613,14.271,18.498,13.518c4.46-0.378,10.877-5.374,11.999-9.517c1.234-4.56-0.887-10.925-4.5-13.5
			c-3.989-2.844-8.876-2.648-12.5,0.5c-3.171,2.754-3.469,6.089-1.009,11.004c0.233,0.467,0.342,0.996,0.509,1.496"/>
		<path fill="none" stroke="#6ECE6B" stroke-width="4" stroke-linecap="round" stroke-linejoin="round" stroke-miterlimit="10" d="
			M703.75,681.5c-8.207,1.57-16.624,2.444-23.512,7.985c-8.271,6.654-14.713,14.821-17.326,25.056
			c-3.14,12.296-0.207,24.117,6.956,34.376c6.784,9.717,14.461,18.82,21.917,28.054c4.109,5.089,8.009,10.13,8.518,17.024
			c0.191,2.583-0.606,5.766-2.552,7.504"/>
		<path fill="none" stroke="#6ECE6B" stroke-width="4" stroke-linecap="round" stroke-linejoin="round" stroke-miterlimit="10" d="
			M100.75,281.5c0,20.833,0.161,41.669-0.13,62.498c-0.061,4.387,1.225,6.674,5.088,8.586c10.472,5.182,18.357,13.239,22.884,23.982
			c1.94,4.604,2.939,9.924,3.001,14.936c0.149,11.994-0.233,24.014-0.93,35.993c-0.583,10.024-1.92,20.004-2.912,30.005
			c-0.678,6.832-1.271,13.674-2.018,20.498c-0.932,8.507-1.853,17.02-3.031,25.495c-0.746,5.369-2.185,10.643-2.875,16.017
			c-0.496,3.86-1.823,5.628-6.079,5.575c-16.831-0.207-33.666-0.035-50.499-0.113c-5.568-0.026-5.643-0.166-6.485-6.474
			c-2.046-15.327-4.157-30.648-5.966-46.004c-1.253-10.637-2.214-21.315-3.004-31.998c-0.862-11.652-0.952-23.375-2.177-34.983
			c-1.01-9.568-1.352-19.057,2.264-27.961c4.624-11.388,13.01-20.035,23.98-25.324c5.321-2.565,5.942-5.946,5.923-10.73
			c-0.079-20-0.033-40-0.033-60"/>
		<path fill="none" stroke="#6ECE6B" stroke-width="4" stroke-linecap="round" stroke-linejoin="round" stroke-miterlimit="10" d="
			M541.25,229.5c-5.465,7.71-11.723,15.072-13.901,24.523c-1.664,7.219-3.321,14.63-3.438,21.98
			c-0.413,25.827-0.161,51.664-0.161,77.497"/>
		<path fill="none" stroke="#6ECE6B" stroke-width="4" stroke-linecap="round" stroke-linejoin="round" stroke-miterlimit="10" d="
			M582.75,235.5c1.333,4.333,2.343,8.8,4.067,12.972c3.658,8.855,4.678,18.22,4.803,27.529c0.366,27.162,0.13,54.332,0.13,81.498"/>
		<path fill="none" stroke="#6ECE6B" stroke-width="4" stroke-linecap="round" stroke-linejoin="round" stroke-miterlimit="10" d="
			M749.75,66c-7.709,1.158-13.203,5.645-18.066,11.444c-3.319,3.958-7.162,7.502-10.954,11.034
			c-9.601,8.944-23.71,6.497-32.332-1.145c-6.576-5.828-11.845-13.14-17.628-19.85c-1.628-1.889-2.876-4.113-4.544-5.961
			c-8.042-8.908-14.619-8.489-27.966-4.489c-1.407,0.422-2.677,1.3-4.01,1.967"/>
		<path fill="none" stroke="#6ECE6B" stroke-width="4" stroke-linecap="round" stroke-linejoin="round" stroke-miterlimit="10" d="
			M450.25,780.5c-1.667-0.333-3.321-0.852-5.002-0.964c-4.282-0.286-7.683-3.296-7.396-7.529c0.25-3.687-1.737-7.723,1.832-11.078
			c2.138-2.01,4.356-2.461,7.067-2.458c38.5,0.042,77,0.029,115.5,0.029c4.167,0,8.334-0.033,12.5,0.008
			c5.25,0.052,8.082,2.799,7.965,7.991c-0.096,4.266,1.62,9.419-3.528,11.868c-2.64,1.256-5.938,1.571-8.937,1.566
			c-38.667-0.066-77.334-0.257-116-0.456c-2.551-0.013-4.443,0.255-4.542,3.521c-0.188,6.171-0.625,12.335-0.958,18.501"/>
		<path fill="none" stroke="#6ECE6B" stroke-width="4" stroke-linecap="round" stroke-linejoin="round" stroke-miterlimit="10" d="
			M695.25,684c-1.167,1.5-2.134,3.225-3.532,4.464c-9.795,8.675-16.4,18.837-15.99,32.537c0.206,6.867,3.702,12.426,7.642,17.405
			c6.734,8.509,14.223,16.42,21.378,24.597c6.04,6.903,12.164,13.935,14.314,23.042c1.081,4.578,0.219,9.623,0.124,14.454
			c-0.007,0.343-0.935,0.668-1.435,1.001"/>
		<path fill="none" stroke="#6ECE6B" stroke-width="4" stroke-linecap="round" stroke-linejoin="round" stroke-miterlimit="10" d="
			M358.75,695c5,1.5,10.074,2.793,14.982,4.55c6.904,2.47,13.634,5.424,20.532,7.911c6.946,2.505,12.076,0.614,14.486-4.961
			c2.024-4.682-0.893-11.377-6.525-13.946c-6.66-3.037-13.778-4.123-20.958-2.478c-6.416,1.47-12.759,3.371-18.988,5.509
			c-3.529,1.211-6.476,4.033-10.529,3.915"/>
		<path fill="none" stroke="#6ECE6B" stroke-width="4" stroke-linecap="round" stroke-linejoin="round" stroke-miterlimit="10" d="
			M454.75,492c5.225,9.804,13.015,15.163,24.502,14.533c8.404-0.46,15.822-5.964,18.506-14.031
			c3.094-9.298-0.981-16.399-5.52-19.988c-6.859-5.423-20.012-4.546-23.044,6.47c-1.332,4.839,0.87,10.615,5.556,13.015
			c4.221,2.162,9.821,1.091,11.825-3.084c1.137-2.368,0.508-5.583,0.675-8.416"/>
		<path fill="none" stroke="#6ECE6B" stroke-width="4" stroke-linecap="round" stroke-linejoin="round" stroke-miterlimit="10" d="
			M730.75,234c6.604-8.03,10.721-17.205,11.914-27.51c0.514-4.44,0.277-9,0.033-13.487c-0.252-4.628-4.214-9.576-7.947-10.503
			c-4.149-1.03-10.114,0.622-11.766,4.597c-1.324,3.186-1.534,7.521-0.554,10.85c3.05,10.361,5.277,20.798,6.458,31.538
			c0.377,3.43,1.805,6.682-0.138,10.015"/>
		<path fill="none" stroke="#6ECE6B" stroke-width="4" stroke-linecap="round" stroke-linejoin="round" stroke-miterlimit="10" d="
			M239.75,193.5c0,50,0,100,0,150"/>
		<path fill="none" stroke="#6ECE6B" stroke-width="4" stroke-linecap="round" stroke-linejoin="round" stroke-miterlimit="10" d="
			M176.75,77c-6.167-2.5-12.142-6.029-18.552-7.218c-6.767-1.256-14.088-1.16-20.914-0.072c-9.73,1.551-15.137,9.251-9.513,17.777
			c2.454,3.72,7.253,5.369,11.451,3.451c12.03-5.496,24.626-9.298,37.306-12.841c1.889-0.528,4.14,0.237,6.223,0.403"/>
		<path fill="none" stroke="#6ECE6B" stroke-width="4" stroke-linecap="round" stroke-linejoin="round" stroke-miterlimit="10" d="
			M220.75,706.5c2.987-2.043,6.211-1.224,9.504-1.09c7.155,0.291,14.333-0.034,21.495,0.131c5.172,0.12,10.33,0.761,15.502,0.919
			c4.933,0.151,9.016-3.425,9.499-7.961c0.646-6.06-2.346-10.567-7.488-12.043c-8.598-2.469-16.422,0.161-23.976,3.623
			c-7.34,3.364-14.125,7.737-19.536,13.92"/>
		<path fill="none" stroke="#6ECE6B" stroke-width="4" stroke-linecap="round" stroke-linejoin="round" stroke-miterlimit="10" d="
			M202.75,716.5c-2.013-4.736,1.252-8.55,2.662-12.441c3.507-9.679,7.731-19.106,11.873-28.544
			c3.154-7.188,1.291-12.136-6.035-15.015c-4.228-1.661-9.336,0.13-11.971,4.518c-4.254,7.084-5.461,15.039-4.353,22.958
			c0.996,7.117,3.446,14.037,5.384,21.008c0.22,0.791,1.273,1.35,1.939,2.017"/>
		<path fill="none" stroke="#6ECE6B" stroke-width="4" stroke-linecap="round" stroke-linejoin="round" stroke-miterlimit="10" d="
			M638.25,686.5c-4.5-1.667-8.886-4.221-13.523-4.817c-9.927-1.274-20.017-1.885-29.478,2.814c-4.568,2.268-7.74,5.404-7.526,11.004
			c0.181,4.708,2.076,7.739,6.535,9.477c3.395,1.324,6.362,0.108,9.528-1.402c10.905-5.2,21.931-10.15,32.991-15.013
			c2.139-0.941,4.639-1.063,6.972-1.563"/>
		<path fill="none" stroke="#6ECE6B" stroke-width="4" stroke-linecap="round" stroke-linejoin="round" stroke-miterlimit="10" d="
			M362.75,713.5c4.667,5.167,9.774,10.007,13.897,15.576c6.179,8.347,10.387,17.683,10.072,28.423
			c-0.16,5.467-4.233,10.356-8.972,10.98c-5.927,0.782-10.265-1.938-11.774-7.046c-1.132-3.832-0.81-8.369-0.107-12.414
			c1.678-9.646-0.221-19.039-1.088-28.523c-0.059-0.646,0.304-1.331,0.471-1.997"/>
		<path fill="none" stroke="#6ECE6B" stroke-width="4" stroke-linecap="round" stroke-linejoin="round" stroke-miterlimit="10" d="
			M545.75,658c7.83,2.013,15.66,4.027,24.236,6.232c1.255-4.08,2.602-8.132,3.669-12.257c0.171-0.66-0.746-2.192-1.43-2.392
			c-7.76-2.265-15.573-4.348-23.428-6.496c-5.42,20.235-10.688,40.086-16.085,59.902c-1.121,4.115-2.43,7.486-7.913,8.729
			c-14.375,3.259-22.145,13.669-26.011,27.292c-1.731,6.101-3.039,12.322-4.539,18.489"/>
		<path fill="none" stroke="#6ECE6B" stroke-width="4" stroke-linecap="round" stroke-linejoin="round" stroke-miterlimit="10" d="
			M56.75,801c0.545-5.055-3.633-7.727-6.147-10.883c-7.044-8.841-16.43-14.573-27.359-17.595
			c-5.367-1.484-12.554,2.864-13.494,7.978c-1.186,6.45,2.594,11.867,8.999,13.008c9.172,1.635,18.354,3.229,27.492,5.04
			c3.558,0.705,7.01,1.952,10.51,2.952"/>
		<path fill="none" stroke="#6ECE6B" stroke-width="4" stroke-linecap="round" stroke-linejoin="round" stroke-miterlimit="10" d="
			M694.75,296c0.833,0.333,1.645,0.88,2.503,0.968c12.169,1.24,16.942,10.113,20.41,20.063c1.212,3.477,1.457,7.297,2.08,10.971
			c1.455,8.581,9.402,12.369,16.939,7.885c4.862-2.892,9.065-6.889,13.569-10.384c2.16-1.676,4.134-3.732,6.533-4.932
			c9.939-4.973,15.074-4.255,23.476,2.918c1.086,0.927,2.322,1.68,3.489,2.513"/>
		<path fill="none" stroke="#6ECE6B" stroke-width="4" stroke-linecap="round" stroke-linejoin="round" stroke-miterlimit="10" d="
			M110.75,610.5c0,19.833,0.059,39.667-0.067,59.5c-0.018,2.836-0.404,5.906-1.551,8.448c-1.993,4.417-0.68,7.811,2.138,11.034
			c1.548,1.77,3.383,3.288,4.964,5.032c3.585,3.953,3.584,8.183,0.003,11.976c-2.103,2.227-4.488,4.205-6.446,6.546
			c-2.443,2.921-2.136,7.619,0.473,10.451c1.755,1.905,3.691,3.643,5.477,5.521c4.236,4.456,4.23,9.591,0.002,13.987
			c-1.634,1.698-3.369,3.3-4.987,5.013c-4.108,4.35-3.238,10.344,2.011,13.461c1.205,0.716,2.648,1.032,3.981,1.532"/>
		<path fill="none" stroke="#6ECE6B" stroke-width="4" stroke-linecap="round" stroke-linejoin="round" stroke-miterlimit="10" d="
			M172.75,694.5c-1.333-5.833-3.053-11.611-3.903-17.514c-1.071-7.442-1.482-14.982-2.08-22.487
			c-0.411-5.166-4.474-10.526-8.518-10.999c-5.585-0.654-11.47,2.268-12.376,7.024c-1.178,6.182,0.189,12.472,3.012,17.906
			c4.756,9.154,11.655,16.749,19.886,23.042c0.501,0.383,1.312,0.362,1.979,0.528"/>
		<path fill="none" stroke="#6ECE6B" stroke-width="4" stroke-linecap="round" stroke-linejoin="round" stroke-miterlimit="10" d="
			M8.75,305.5c6.167,5.333,12.922,10.136,18.338,16.146c5.661,6.282,10.013,13.628,9.755,22.857
			c-0.147,5.26-2.379,9.444-7.093,10.997c-3.802,1.253-9.971-1.15-11.928-5.036c-1.072-2.129-1.918-4.615-1.986-6.966
			c-0.331-11.494-2.905-22.541-6.044-33.51c-0.164-0.572,0.291-1.321,0.457-1.988"/>
		<path fill="none" stroke="#6ECE6B" stroke-width="4" stroke-linecap="round" stroke-linejoin="round" stroke-miterlimit="10" d="
			M402.25,335c-3.298-8.344-10.192-13.423-17.028-18.462c-6.038-4.451-12.703-7.352-20.473-7.067
			c-5.094,0.187-9.27,3.189-9.999,7.529c-1.049,6.245,1.621,11.089,7.52,12.411c4.903,1.099,10,1.302,14.975,2.119
			c6.354,1.043,12.662,2.359,19.009,3.448c3.622,0.622,7.378,0.686,10.496,3.022"/>
		<path fill="none" stroke="#6ECE6B" stroke-width="4" stroke-linecap="round" stroke-linejoin="round" stroke-miterlimit="10" d="
			M0.75,286.5c11.348,0.728,22.554,2.365,33.495,5.519c7.125,2.054,13.767-0.659,15.505-6.519
			c1.975-6.656-3.442-13.37-10.997-14.035c-14.134-1.244-26.456,3.501-38.003,11.035"/>
		<path fill="none" stroke="#6ECE6B" stroke-width="4" stroke-linecap="round" stroke-linejoin="round" stroke-miterlimit="10" d="
			M674.75,499.5c-2.333-4.833-4.653-9.673-7.003-14.499c-5.422-11.133-13.479-19.649-25.019-24.448
			c-4.83-2.009-11.912,0.998-13.978,5.447c-2.337,5.03-0.338,10.767,5.537,13.417c11.707,5.281,23.627,10.089,35.472,15.06
			c0.425,0.178,0.99,0.023,1.49,0.023"/>
		<path fill="none" stroke="#6ECE6B" stroke-width="4" stroke-linecap="round" stroke-linejoin="round" stroke-miterlimit="10" d="
			M383.75,353c-2.667,0.5-5.48,0.615-7.975,1.566c-11.33,4.322-21.236,10.574-27.533,21.429c-3.147,5.426-2.58,11.436,1.508,15.004
			c5.561,4.854,13.178,2.499,17.033-4.983c5.704-11.067,11.514-22.084,17.592-32.947c0.934-1.67,3.541-2.404,5.374-3.57"/>
		<path fill="none" stroke="#6ECE6B" stroke-width="4" stroke-linecap="round" stroke-linejoin="round" stroke-miterlimit="10" d="
			M783.75,326.5c-4.667,6.667-8.974,13.625-14.09,19.927c-6.571,8.095-13.602,15.761-22.862,21.155
			c-9.984,5.815-20.49,9.686-32.04,8.809c-18.182-1.38-33.009-10.095-37.068-32.38c-2.366-12.991,1.124-24.305,7.428-35.585
			c10.36-18.54,26.865-30.055,44.139-40.916c3.29-2.069,6.563-4.211,10.049-5.896c1.151-0.556,2.955,0.161,4.438,0.426
			c0.381,0.068,0.674,0.627,1.007,0.96c15.917,15.917,31.834,31.834,48.165,48.165c-2.953,5.056-5.809,9.946-8.665,14.835"/>
		<path fill="none" stroke="#6ECE6B" stroke-width="4" stroke-linecap="round" stroke-linejoin="round" stroke-miterlimit="10" d="
			M704.75,246c-4.167,0.5-8.515,0.406-12.465,1.615c-10.445,3.198-19.941,8.145-27.062,16.863c-3.35,4.102-3.799,12.8,0.974,16.098
			c3.135,2.166,9.736,2.969,12.491,0.359c2.302-2.182,4.111-4.897,6.053-7.441c6.856-8.983,13.617-18.039,20.571-26.945
			c1.053-1.349,2.938-2.049,4.438-3.049"/>
		<path fill="none" stroke="#6ECE6B" stroke-width="4" stroke-linecap="round" stroke-linejoin="round" stroke-miterlimit="10" d="
			M375.75,519.5c-1.445-5.799-3.01-11.692-9.032-14.43c-5.418-2.464-11.176-2.877-16.433,0.486
			c-4.609,2.948-7.304,7.023-7.653,12.937c-0.633,10.722,6.151,16.189,15.634,17.916c6.225,1.134,14.745-5.656,16.482-12.409
			c0.342-1.331,0.668-2.666,1.001-4"/>
		<path fill="none" stroke="#6ECE6B" stroke-width="4" stroke-linecap="round" stroke-linejoin="round" stroke-miterlimit="10" d="
			M569.75,664.5c-1.667,6.5-3.28,13.014-5.012,19.497c-2.902,10.86-5.879,21.7-8.97,33.084
			c12.65,10.494,16.619,24.221,12.482,40.419"/>
		<path fill="none" stroke="#6ECE6B" stroke-width="4" stroke-linecap="round" stroke-linejoin="round" stroke-miterlimit="10" d="
			M85.75,801.5c0.667-0.333,1.637-0.488,1.955-1.027c5.189-8.804,6.93-18.377,6.032-28.472c-0.55-6.176-6.97-11.853-12.459-10.396
			c-7.755,2.058-9.621,6.033-8.066,15.402c1.35,8.136,2.372,16.327,3.538,24.494"/>
		<path fill="none" stroke="#6ECE6B" stroke-width="4" stroke-linecap="round" stroke-linejoin="round" stroke-miterlimit="10" d="
			M693.25,64c-2.667-6.333-5.528-12.595-7.91-19.033c-1.037-2.801-1.064-5.971-1.601-8.965c-0.271-1.511-0.327-3.189-1.055-4.465
			c-1.75-3.069-3.086-6.945-7.935-6.037c-3.506,0.657-6.776,5.201-7.021,9.499c-0.248,4.342,0.697,8.183,2.922,12.058
			c4.148,7.223,9.737,12.784,17.14,16.359c3.43,1.657,7.293,2.417,10.96,3.584"/>
		<path fill="none" stroke="#6ECE6B" stroke-width="4" stroke-linecap="round" stroke-linejoin="round" stroke-miterlimit="10" d="
			M-0.25,501.5c1.159-4.125,3.609-7.499,5.727-11.158c5.879-10.157,9.042-21.216,6.365-33.362
			c-1.814-8.227-2.592-16.678-4.164-24.966c-0.742-3.914-2.086-7.749-3.545-11.467c-0.382-0.974-2.215-1.38-3.382-2.046"/>
		<path fill="none" stroke="#6ECE6B" stroke-width="4" stroke-linecap="round" stroke-linejoin="round" stroke-miterlimit="10" d="
			M283.75,478.5c-28.333,0-56.667,0-85,0"/>
		<path fill="none" stroke="#6ECE6B" stroke-width="4" stroke-linecap="round" stroke-linejoin="round" stroke-miterlimit="10" d="
			M302.25,147.5c1.167,3.5,2.179,7.061,3.528,10.489c4.926,12.518,19.25,19.498,30.456,18.351
			c14.862-1.521,26.177-10.298,29.531-26.337c0.736-3.52,0.809-7.55,2.652-10.395c4.614-7.123,13.005-6.894,18.356-0.125
			c0.5,0.632,1.311,1.018,1.978,1.518"/>
		<path fill="none" stroke="#6ECE6B" stroke-width="4" stroke-linecap="round" stroke-linejoin="round" stroke-miterlimit="10" d="
			M378.75,421.5c-13.479-5.899-27.284-6.496-41.529-3.12c-3.922,0.929-3.652,2.616-3.031,5.633
			c2.521,12.245,8.417,22.599,17.076,31.472c1.11,1.138,2.443,2.058,3.672,3.079c-0.104,0.411-0.207,0.822-0.311,1.232
			c-5.626,0.901-11.252,1.803-16.877,2.704"/>
		<path fill="none" stroke="#6ECE6B" stroke-width="4" stroke-linecap="round" stroke-linejoin="round" stroke-miterlimit="10" d="
			M130.75,401.5c-28,0-56,0-84,0"/>
		<path fill="none" stroke="#6ECE6B" stroke-width="4" stroke-linecap="round" stroke-linejoin="round" stroke-miterlimit="10" d="
			M311.75,2.5c-5.354,2.704-6.992,8.222-8.863,13.053c-8.11,20.947-15.001,42.298-19.161,64.442
			c-0.319,1.701-0.976,3.338-1.476,5.004"/>
		<path fill="none" stroke="#6ECE6B" stroke-width="4" stroke-linecap="round" stroke-linejoin="round" stroke-miterlimit="10" d="
			M428.75,285c0,27.667,0,55.333,0,83"/>
		<path fill="none" stroke="#6ECE6B" stroke-width="4" stroke-linecap="round" stroke-linejoin="round" stroke-miterlimit="10" d="
			M357.75,3c4.777,2.593,6.221,7.691,7.826,12.064c5.136,13.995,9.739,28.199,14.085,42.463c2.493,8.183,4.078,16.642,6.106,24.969
			c0.21,0.863,0.65,1.671,0.983,2.504"/>
		<path fill="none" stroke="#6ECE6B" stroke-width="4" stroke-linecap="round" stroke-linejoin="round" stroke-miterlimit="10" d="
			M642.75,3c-3.93,3.057-4.019,7.977-4.784,12.041c-2.27,12.053-4.595,24.257-5.007,36.466c-0.986,29.19,14.267,52.405,42.34,61.342
			c20.352,6.479,38.981,1.838,55.484-11.809c10.257-8.482,16.599-19.233,19.401-32.054c1.836-8.397,2.332-16.869,0.676-25.506
			c-1.515-7.901-1.87-16.019-3.192-23.965c-0.899-5.406-2.542-10.692-3.988-15.994c-0.131-0.48-1.262-0.686-1.929-1.019"/>
		<path fill="none" stroke="#6ECE6B" stroke-width="4" stroke-linecap="round" stroke-linejoin="round" stroke-miterlimit="10" d="
			M469.75,247.5c-27,0-54,0-81,0"/>
		<path fill="none" stroke="#6ECE6B" stroke-width="4" stroke-linecap="round" stroke-linejoin="round" stroke-miterlimit="10" d="
			M227.75,398c-1-0.167-2-0.478-3-0.479c-24.333-0.027-48.667-0.027-73,0c-1,0.001-2,0.312-3,0.479"/>
		<path fill="none" stroke="#6ECE6B" stroke-width="4" stroke-linecap="round" stroke-linejoin="round" stroke-miterlimit="10" d="
			M527.75,11.5c-26,0-52,0-78,0"/>
		<path fill="none" stroke="#6ECE6B" stroke-width="4" stroke-linecap="round" stroke-linejoin="round" stroke-miterlimit="10" d="
			M118.75,211.5c-4.75-0.916-8.424,2.089-12.479,3.559c-7.242,2.625-14.269,5.855-21.54,8.386
			c-12.52,4.358-21.236,1.135-28.503-9.931c-2.359-3.592-4.955-7.032-7.484-10.51c-3.173-4.364-9.035-5.268-12.41-1.43
			c-3.064,3.484-5.725,7.418-8.023,11.461c-5.657,9.949-14.096,13.342-25.064,11.483c-0.81-0.137-1.664-0.018-2.497-0.018"/>
		<path fill="none" stroke="#6ECE6B" stroke-width="4" stroke-linecap="round" stroke-linejoin="round" stroke-miterlimit="10" d="
			M305.25,101.5c-10.393-17.331-35.198-21.869-51.95-7.94c-11.048,9.186-15.408,21.661-12.291,35.381
			c3.054,13.443,11.547,22.944,25.718,26.646c11.341,2.963,21.504,1.533,30.481-6.136c2.055-1.755,6.991-1.343,5.082-6.467
			c-1.816-4.874-5.701-8.352-10.04-8.486c-5.258-0.162-8.89,2.222-11,7.001"/>
		<path fill="none" stroke="#6ECE6B" stroke-width="4" stroke-linecap="round" stroke-linejoin="round" stroke-miterlimit="10" d="
			M241.75,527.5c0,25.5,0,51,0,76.5"/>
		<path fill="none" stroke="#6ECE6B" stroke-width="4" stroke-linecap="round" stroke-linejoin="round" stroke-miterlimit="10" d="
			M158.75,230.5c-2.333,7.833-5.224,15.551-6.873,23.526c-2.684,12.977-4.005,26.218-3.01,39.465
			c0.742,9.878,2.285,19.72,3.94,29.499c3.181,18.787,10.72,35.96,19.852,52.56c2.48,4.509,5.352,6.152,10.593,6.089
			c25.663-0.308,51.332-0.14,76.998-0.14c13,0,26-0.04,39,0.037c2.339,0.014,4.182-0.145,5.545-2.511
			c6.358-11.036,12.167-22.219,16.184-34.451c2.773-8.444,5.009-16.885,6.921-25.542c2.748-12.443,2.995-24.955,2.813-37.533
			c-0.234-16.22-3.089-32.06-8.006-47.487c-4.444-13.944-10.722-27.073-18.402-39.548c-1.351-2.194-3.124-1.979-5.056-1.963
			c-19.833,0.163-39.667,0.461-59.5,0.461s-39.668-0.233-59.499-0.543c-2.504-0.039-4.446,0.549-5.451,2.604
			c-5.439,11.115-10.726,22.305-16.008,33.495c-0.163,0.345,0.292,0.98,0.458,1.48"/>
		<path fill="none" stroke="#6ECE6B" stroke-width="4" stroke-linecap="round" stroke-linejoin="round" stroke-miterlimit="10" d="
			M316.75,679.5c0,25,0,50,0,75"/>
		<path fill="none" stroke="#6ECE6B" stroke-width="4" stroke-linecap="round" stroke-linejoin="round" stroke-miterlimit="10" d="
			M633.25,711.5c0.167,2.833,0.171,5.688,0.529,8.496c1.258,9.843,2.441,19.703,4.049,29.491c0.88,5.358-3.292,11.842-9.078,13.013
			c-5.06,1.024-11.35-4.009-12.011-9.499c-2.007-16.662,4.959-29.976,15.475-42.033c1.103-1.265,1.703-2.968,2.536-4.468"/>
		<path fill="none" stroke="#6ECE6B" stroke-width="4" stroke-linecap="round" stroke-linejoin="round" stroke-miterlimit="10" d="
			M126.75,458.5c-3,0-6,0.02-9-0.003c-21.333-0.161-42.667-0.34-64-0.474c-1.332-0.008-2.667,0.311-4,0.477"/>
		<path fill="none" stroke="#6ECE6B" stroke-width="4" stroke-linecap="round" stroke-linejoin="round" stroke-miterlimit="10" d="
			M529.75,62.5c-22.5,0-45-0.012-67.5,0.022c-1.834,0.003-3.667,0.312-5.5,0.478"/>
		<path fill="none" stroke="#6ECE6B" stroke-width="4" stroke-linecap="round" stroke-linejoin="round" stroke-miterlimit="10" d="
			M322.75,22.5c0,24.333,0,48.667,0,73"/>
		<path fill="none" stroke="#6ECE6B" stroke-width="4" stroke-linecap="round" stroke-linejoin="round" stroke-miterlimit="10" d="
			M171.75,3.5c-3.71,11.919,2.508,20.601,9.507,28.994c8.637,10.358,17.179,20.801,26.065,30.942
			c3.553,4.055,4.598,8.295,4.535,13.565C211.6,98.498,211.75,120,211.75,141.5"/>
		<path fill="none" stroke="#6ECE6B" stroke-width="4" stroke-linecap="round" stroke-linejoin="round" stroke-miterlimit="10" d="
			M798.25,35.5c-4.5,2-9.719,3.133-13.366,6.161c-11.388,9.453-16.462,21.792-15.285,36.851c0.47,6.014,1.723,11.573,4.1,17.011
			c0.218,0.499-0.282,1.311-0.449,1.978"/>
		<path fill="none" stroke="#6ECE6B" stroke-width="4" stroke-linecap="round" stroke-linejoin="round" stroke-miterlimit="10" d="
			M798.75,492.5c-23.667,0-47.333,0-71,0"/>
		<path fill="none" stroke="#6ECE6B" stroke-width="4" stroke-linecap="round" stroke-linejoin="round" stroke-miterlimit="10" d="
			M169.25,101.5c-0.167,3.5-0.453,6.999-0.477,10.5c-0.066,9.666-0.02,19.333-0.024,29c-0.002,5.893-3.825,10.112-9.499,10.5
			c-5.255,0.359-9.526-3.49-10.537-8.993c-2.159-11.747,3.252-21.258,9.165-30.425c2.574-3.99,6.638-6.996,9.831-10.619
			c1.575-1.787,2.709-3.963,4.042-5.963"/>
		<path fill="none" stroke="#6ECE6B" stroke-width="4" stroke-linecap="round" stroke-linejoin="round" stroke-miterlimit="10" d="
			M738.25,663.5c-2.017-7.102-8.618-10.662-15.454-7.888c-2.207,0.896-4.205,2.536-4.139,5.89
			c0.238,11.995,0.143,23.999,0.052,35.998c-0.019,2.451,0.734,4.303,3.055,4.952c4.333,1.212,8.851,2.063,12.951-0.508
			c3.461-2.171,3.16-5.775,3.123-9.445c-0.096-9.497,0.245-18.999,0.412-28.499"/>
		<path fill="none" stroke="#6ECE6B" stroke-width="4" stroke-linecap="round" stroke-linejoin="round" stroke-miterlimit="10" d="
			M4.75,57.5c-3.941,0.809-3.52,4.106-2.849,6.457c0.974,3.417,3.289,6.169,7.349,6.545c5.457,0.505,10.466-0.979,13.367-5.586
			c3.235-5.135,2.714-11.078,0.06-16.38C18.226,39.643,10.053,36.499,0.75,35.5"/>
		<path fill="none" stroke="#6ECE6B" stroke-width="4" stroke-linecap="round" stroke-linejoin="round" stroke-miterlimit="10" d="
			M95.75,540.5c-21.167,0-42.333-0.012-63.5,0.022c-1.834,0.003-3.667,0.312-5.5,0.478"/>
		<path fill="none" stroke="#6ECE6B" stroke-width="4" stroke-linecap="round" stroke-linejoin="round" stroke-miterlimit="10" d="
			M92.75,280c3.847,0.145,7.594,1.604,11.558-0.385c2.856-1.433,3.944-3.434,3.344-6.093c-0.647-2.868-2.149-5.155-5.903-5.081
			c-9.163,0.181-18.332,0.075-27.499,0.051c-3.495-0.009-5.899,1.498-6.454,5.016c-0.576,3.65,1.438,6.411,5.466,6.886
			c3.104,0.366,6.321-0.227,9.487-0.394"/>
		<path fill="none" stroke="#6ECE6B" stroke-width="4" stroke-linecap="round" stroke-linejoin="round" stroke-miterlimit="10" d="
			M571.75,115.5c-22.333,0-44.667,0-67,0"/>
		<path fill="none" stroke="#6ECE6B" stroke-width="4" stroke-linecap="round" stroke-linejoin="round" stroke-miterlimit="10" d="
			M697.75,567c-1.667-0.167-3.333-0.476-5-0.478c-20.667-0.033-41.333-0.022-62-0.022"/>
		<path fill="none" stroke="#6ECE6B" stroke-width="4" stroke-linecap="round" stroke-linejoin="round" stroke-miterlimit="10" d="
			M687.25,366.5c-21.833,21.833-43.667,43.667-65.5,65.5"/>
		<path fill="none" stroke="#6ECE6B" stroke-width="4" stroke-linecap="round" stroke-linejoin="round" stroke-miterlimit="10" d="
			M405.25,432.5c0.833-2.333,1.815-4.626,2.474-7.007c2.795-10.099,8.286-18.666,15.08-26.445c1.479-1.693,3.647-2.785,5.54-4.185
			c12.138,10.557,19.051,23.304,22.277,39.484c3.524-3.994,6.491-7.043,9.079-10.385c2.231-2.882,3.381-2.408,5.101,0.509
			c8.096,13.734,7.723,27.425-0.098,41.003c-3.601,6.252-8.921,10.839-15.434,14.064c-2.571,1.273-3.395,1.703-4.755-1.948
			c-3.223-8.656-8.277-16.371-16.577-21.038c-8.942,5.762-14.392,13.916-17.31,24.433c-11.391-3.794-18.933-11.891-22.641-22.565
			c-4.379-12.603-3.803-25.342,5.494-36.774c1.102,0.794,2.318,1.444,3.245,2.38c2.736,2.764,5.423,5.585,7.979,8.515
			c0.639,0.733,0.712,1.96,1.046,2.96"/>
		<path fill="none" stroke="#6ECE6B" stroke-width="4" stroke-linecap="round" stroke-linejoin="round" stroke-miterlimit="10" d="
			M193.75,620c-21.667,0-43.333,0-65,0"/>
		<path fill="none" stroke="#6ECE6B" stroke-width="4" stroke-linecap="round" stroke-linejoin="round" stroke-miterlimit="10" d="
			M108.75,165.5c4.031-12.233,5.337-24.54,1.352-37.186c-8.078,1.689-14.578,5.717-20.843,10.198
			c-2.222,1.589-4.502,3.156-6.456,5.042c-1.437,1.387-2.386,3.278-3.553,4.945"/>
		<path fill="none" stroke="#6ECE6B" stroke-width="4" stroke-linecap="round" stroke-linejoin="round" stroke-miterlimit="10" d="
			M148.25,514c0.573,5.847,4.325,9.183,9.534,10.349c3.882,0.869,7.327-1.313,9.964-4.35c1.928-2.221,2.754-8.864,1.51-11.502
			c-1.598-3.39-6.043-6.642-11.51-6.004c-4.005,0.468-7.937,3.711-9,7.508c-0.327,1.168-0.666,2.334-0.999,3.5"/>
		<path fill="none" stroke="#6ECE6B" stroke-width="4" stroke-linecap="round" stroke-linejoin="round" stroke-miterlimit="10" d="
			M281.75,628.5c20.667,0,41.333,0,62,0"/>
		<path fill="none" stroke="#6ECE6B" stroke-width="4" stroke-linecap="round" stroke-linejoin="round" stroke-miterlimit="10" d="
			M489.75,157.5c-19,0-38-0.012-57,0.022c-1.667,0.003-3.333,0.312-5,0.478"/>
		<path fill="none" stroke="#6ECE6B" stroke-width="4" stroke-linecap="round" stroke-linejoin="round" stroke-miterlimit="10" d="
			M798.75,143.5c-0.167-0.667-0.109-1.585-0.533-1.962c-7.076-6.288-14.293-10.175-24.537-13.207
			c-0.644,2.729-1.686,5.424-1.856,8.173c-0.548,8.898-0.049,17.775,2.026,26.472c0.28,1.172,1.901,2.024,2.901,3.024"/>
		<path fill="none" stroke="#6ECE6B" stroke-width="4" stroke-linecap="round" stroke-linejoin="round" stroke-miterlimit="10" d="
			M25.75,240.5c1.125,4.604,2.25,9.02,7.47,11.077c4.637,1.828,8.077,0.325,11.556-2.546c3.866-3.191,3.838-7.783,2.697-11.444
			c-1.165-3.736-4.654-6.642-9.222-7.09c-6.031-0.592-9.164,1.778-12.5,9.504"/>
		<path fill="none" stroke="#6ECE6B" stroke-width="4" stroke-linecap="round" stroke-linejoin="round" stroke-miterlimit="10" d="
			M769.25,255.5c7.023-1.036,9.985-4.778,9.5-12c-0.365-5.428-4.547-8.518-10.486-9.135c-5.335-0.554-10.488,3.356-11.369,10.154
			c-0.635,4.898,4.8,12.645,11.855,10.981"/>
		<path fill="none" stroke="#6ECE6B" stroke-width="4" stroke-linecap="round" stroke-linejoin="round" stroke-miterlimit="10" d="
			M159.25,734c0.354,5.262,3.533,8.784,8.06,10.323c3.582,1.217,7.465-0.091,10.426-2.838c2.353-2.183,4.413-9.6,2.937-11.936
			c-2.182-3.453-4.95-6.656-9.427-6.998c-4.699-0.359-8.434,1.463-10.484,5.954c-0.744,1.631-1.346,3.328-2.013,4.994"/>
		<path fill="none" stroke="#6ECE6B" stroke-width="4" stroke-linecap="round" stroke-linejoin="round" stroke-miterlimit="10" d="
			M759.25,762.5c2.833-1.667,6.414-1.465,8.646-4.905c2.702-4.163,2.278-9.336-0.197-13.062c-2.109-3.175-9.041-5.204-12.45-4.033
			c-3.791,1.302-7.5,6.494-7.5,10.5c0,4.564,3.411,9.073,8.006,10.481c0.961,0.295,1.994,0.352,2.994,0.519"/>
		<path fill="none" stroke="#6ECE6B" stroke-width="4" stroke-linecap="round" stroke-linejoin="round" stroke-miterlimit="10" d="
			M285.25,567c4.864-0.936,8.671-3.359,9.401-8.514c0.583-4.116,0.449-8.312-3.873-11.031c-3.216-2.023-10.017-2.907-12.497-0.916
			c-3.292,2.643-5.853,6.112-5.418,10.449c0.545,5.427,4.612,8.723,10.381,9.546c0.537,0.077,1.005,0.632,1.505,0.966"/>
		<path fill="none" stroke="#6ECE6B" stroke-width="4" stroke-linecap="round" stroke-linejoin="round" stroke-miterlimit="10" d="
			M468.25,114c-5.52,0.338-9.108,3.27-10.436,8.516c-1.164,4.595,0.929,9.968,5.528,11.747c3.19,1.233,7.734,1.334,10.785-0.037
			c3.903-1.755,6.075-6.093,5.54-10.716c-0.504-4.352-4.834-8.332-8.915-9.021c-0.514-0.087-1.002-0.322-1.502-0.489"/>
		<path fill="none" stroke="#6ECE6B" stroke-width="4" stroke-linecap="round" stroke-linejoin="round" stroke-miterlimit="10" d="
			M527.75,510c1.833,0.167,3.666,0.475,5.5,0.478c21.5,0.034,43.001,0.132,64.499-0.051c5.837-0.05,10.286,4.858,10.982,9.076
			c1.055,6.393-2.191,14.019-7.009,14.832c-4.537,0.767-9.306,0.164-13.972,0.164c-19.667,0-39.333,0-59,0
			c-4.167,0-8.369,0.322-12.485-0.134c-2.085-0.231-4.574-1.39-5.907-2.957c-3.637-4.275-3.329-9.273-1.655-14.424
			c1.725-5.307,5.683-6.462,10.547-6.51c2.501-0.024,5-0.308,7.5-0.475"/>
		<path fill="none" stroke="#6ECE6B" stroke-width="4" stroke-linecap="round" stroke-linejoin="round" stroke-miterlimit="10" d="
			M45.25,25c0.184-5.672-3.406-8.913-8.055-10.316c-3.68-1.111-7.38,0.146-10.538,3.22c-3.57,3.475-3.381,7.639-2.728,11.567
			c0.604,3.63,7.561,7.353,11.321,7.03c4.01-0.345,8.139-3.824,9.501-8c0.327-1.002,0.666-2,0.999-3"/>
		<path fill="none" stroke="#6ECE6B" stroke-width="4" stroke-linecap="round" stroke-linejoin="round" stroke-miterlimit="10" d="
			M10.25,631c5.75-1.034,10.032-5.112,10.5-10c0.465-4.859-2.771-9.822-7.5-11.5c-5.486-1.947-11.59,1.34-13,7
			c-1.841,7.393,1.068,12.799,7.495,14.027c0.705,0.135,1.338,0.64,2.005,0.973"/>
		<path fill="none" stroke="#6ECE6B" stroke-width="4" stroke-linecap="round" stroke-linejoin="round" stroke-miterlimit="10" d="
			M673.25,453.5c-1.167-4.667-2.138-9.393-3.545-13.986c-2.161-7.053-4.539-14.043-6.98-21.005
			c-2.092-5.965-1.526-10.234,2.025-13.009c5.817-4.544,12.216-3.042,16.035,3.479c3.993,6.819,3.896,14.449,2.669,21.469
			c-1.507,8.623-3.912,17.363-9.631,24.609c-0.857,1.086-0.74,2.942-1.073,4.442"/>
		<path fill="none" stroke="#6ECE6B" stroke-width="4" stroke-linecap="round" stroke-linejoin="round" stroke-miterlimit="10" d="
			M798.75,693.5c-3.833,0.333-7.665,0.929-11.5,0.954c-16.166,0.108-32.333,0.046-48.5,0.046"/>
		<path fill="none" stroke="#6ECE6B" stroke-width="4" stroke-linecap="round" stroke-linejoin="round" stroke-miterlimit="10" d="
			M798.75,663.5c-20,0-40,0-60,0"/>
		<path fill="none" stroke="#6ECE6B" stroke-width="4" stroke-linecap="round" stroke-linejoin="round" stroke-miterlimit="10" d="
			M495.75,592.5c-19.667,0-39.333,0-59,0"/>
		<path fill="none" stroke="#6ECE6B" stroke-width="4" stroke-linecap="round" stroke-linejoin="round" stroke-miterlimit="10" d="
			M338.75,463.5c1,2.333,1.575,4.992,3.071,6.946c8.02,10.481,17.997,17.422,31.93,17.101c6.643-0.153,13.286,0.15,18.499-5.047"/>
		<path fill="none" stroke="#6ECE6B" stroke-width="4" stroke-linecap="round" stroke-linejoin="round" stroke-miterlimit="10" d="
			M663.75,600.5c0,19,0,38,0,57"/>
		<path fill="none" stroke="#6ECE6B" stroke-width="4" stroke-linecap="round" stroke-linejoin="round" stroke-miterlimit="10" d="
			M678.75,2.5c-3.882,1.177-2.163,4.536-1.828,6.47c1.174,6.786,7.691,11.295,14.826,11.579
			c13.008,0.516,22.447-4.322,27.002-17.049"/>
		<path fill="none" stroke="#6ECE6B" stroke-width="4" stroke-linecap="round" stroke-linejoin="round" stroke-miterlimit="10" d="
			M692.75,116.5c0,17,0.014,34-0.022,51c-0.003,1.667-0.311,3.333-0.478,5"/>
		<path fill="none" stroke="#6ECE6B" stroke-width="4" stroke-linecap="round" stroke-linejoin="round" stroke-miterlimit="10" d="
			M712.75,226.5c-4.167-4.667-8.161-9.502-12.539-13.961c-6.961-7.09-15.154-12.211-24.954-14.564
			c-4.779-1.148-9.278-0.742-12.952,2.586c-3.032,2.747-3.604,6.475-2.563,10.442c1.195,4.556,5.007,7.377,10.509,7.483
			c11.389,0.221,22.569,1.722,33.52,4.945c1.182,0.348,2.646-0.264,3.98-0.431"/>
		<path fill="none" stroke="#6ECE6B" stroke-width="4" stroke-linecap="round" stroke-linejoin="round" stroke-miterlimit="10" d="
			M752.75,402c-18,0-36,0-54,0"/>
		<path fill="none" stroke="#6ECE6B" stroke-width="4" stroke-linecap="round" stroke-linejoin="round" stroke-miterlimit="10" d="
			M633.75,654.5c-3.656-5.017-1.25-11.071-2.883-16.535c-3.404-11.388-7.339-22.179-17.576-29.522
			c-6.338-4.547-15.325-2.366-17.46,6.576c-0.871,3.647,1.17,6.727,3.948,8.944c6.409,5.115,13.008,9.989,19.457,15.054
			c3.909,3.07,7.681,6.316,11.514,9.482"/>
		<path fill="none" stroke="#6ECE6B" stroke-width="4" stroke-linecap="round" stroke-linejoin="round" stroke-miterlimit="10" d="
			M215.75,545c-14.5,0.167-29,0.388-43.5,0.469c-4.832,0.027-9.667-0.303-14.5-0.469"/>
		<path fill="none" stroke="#6ECE6B" stroke-width="4" stroke-linecap="round" stroke-linejoin="round" stroke-miterlimit="10" d="
			M251.75,3.5c2.145,12.551-3.984,22.056-11.512,30.989C230.789,45.7,221.25,56.833,211.75,68"/>
		<path fill="none" stroke="#6ECE6B" stroke-width="4" stroke-linecap="round" stroke-linejoin="round" stroke-miterlimit="10" d="
			M357.75,801c-4.655-4.801-9.118-9.962-15.521-12.446c-9.899-3.841-18.103-0.096-25.472,6.454
			c-2.379,2.115-4.674,4.325-7.007,6.492"/>
		<path fill="none" stroke="#6ECE6B" stroke-width="4" stroke-linecap="round" stroke-linejoin="round" stroke-miterlimit="10" d="
			M424.75,13c-2.167,0.167-4.333,0.471-6.5,0.478c-14.167,0.043-28.333,0.022-42.5,0.022"/>
		<path fill="none" stroke="#6ECE6B" stroke-width="4" stroke-linecap="round" stroke-linejoin="round" stroke-miterlimit="10" d="
			M140.75,801.5c3.588,0.137,3.385-3.078,3.881-5.03c1.129-4.444-2.2-9.776-6.881-11.97c-4.036-1.892-9.936-0.303-13,3.5
			c-2.709,3.362-2.743,9.335,0.046,12.965c0.328,0.427,1.287,0.369,1.954,0.535"/>
		<path fill="none" stroke="#6ECE6B" stroke-width="4" stroke-linecap="round" stroke-linejoin="round" stroke-miterlimit="10" d="
			M352.75,776.5c-15.667,0-31.333,0-47,0"/>
		<path fill="none" stroke="#6ECE6B" stroke-width="4" stroke-linecap="round" stroke-linejoin="round" stroke-miterlimit="10" d="
			M41.75,74c-1.667,3.333-3.003,6.892-5.083,9.943c-2.658,3.9-5.816,7.479-8.939,11.037c-5.725,6.524-9.738,13.833-10.978,22.519"/>
		<path fill="none" stroke="#6ECE6B" stroke-width="4" stroke-linecap="round" stroke-linejoin="round" stroke-miterlimit="10" d="
			M650.25,114c-13.333-0.167-26.667-0.351-40-0.476c-1.498-0.014-3,0.309-4.5,0.476"/>
		<path fill="none" stroke="#6ECE6B" stroke-width="4" stroke-linecap="round" stroke-linejoin="round" stroke-miterlimit="10" d="
			M197.25,580c-9.667,0.167-19.333,0.363-29,0.488c-5.166,0.067-10.333,0.012-15.5,0.012"/>
		<path fill="none" stroke="#6ECE6B" stroke-width="4" stroke-linecap="round" stroke-linejoin="round" stroke-miterlimit="10" d="
			M798.75,499.5c-0.167,1,0.028,2.358-0.555,2.945c-7.078,7.131-13.517,14.942-22.409,20.116c-4.756,2.768-9.38,5.54-15.031,5.999
			c-0.703,0.057-1.338,0.94-2.005,1.44"/>
		<path fill="none" stroke="#6ECE6B" stroke-width="4" stroke-linecap="round" stroke-linejoin="round" stroke-miterlimit="10" d="
			M95.75,476.5c-14.667,0-29.333,0-44,0"/>
		<path fill="none" stroke="#6ECE6B" stroke-width="4" stroke-linecap="round" stroke-linejoin="round" stroke-miterlimit="10" d="
			M524.75,648c-14.667,0-29.333,0-44,0"/>
		<path fill="none" stroke="#6ECE6B" stroke-width="4" stroke-linecap="round" stroke-linejoin="round" stroke-miterlimit="10" d="
			M247.75,174c5.833,0.167,11.667,0.485,17.5,0.465c8.834-0.031,17.667-0.298,26.5-0.465"/>
		<path fill="none" stroke="#6ECE6B" stroke-width="4" stroke-linecap="round" stroke-linejoin="round" stroke-miterlimit="10" d="
			M189.75,299.5c-0.236,13.344,3.172,26.127,6,39c0.33,1.501,0.666,3,1,4.5"/>
		<path fill="none" stroke="#6ECE6B" stroke-width="4" stroke-linecap="round" stroke-linejoin="round" stroke-miterlimit="10" d="
			M742.75,801c-4.5-9.833-8.737-19.799-13.588-29.456c-3.501-6.97-3.866-6.787-11.412-5.544"/>
		<path fill="none" stroke="#6ECE6B" stroke-width="4" stroke-linecap="round" stroke-linejoin="round" stroke-miterlimit="10" d="
			M798.25,542.5c-4.436-1.947-8.349-1.327-12.033,1.963c-3.66,3.268-4.122,7.124-2.976,11.539c1.28,4.929,5.334,6.46,9.531,7.396
			c2.355,0.525,5.197,0.541,5.977-2.898"/>
		<path fill="none" stroke="#6ECE6B" stroke-width="4" stroke-linecap="round" stroke-linejoin="round" stroke-miterlimit="10" d="
			M42.25,68.5c-1.722,4.543,1.301,8.084,3.173,11.403c3.208,5.686,7.2,11.009,11.4,16.037c5.542,6.634,9.653,13.701,9.927,22.561"/>
		<path fill="none" stroke="#6ECE6B" stroke-width="4" stroke-linecap="round" stroke-linejoin="round" stroke-miterlimit="10" d="
			M190.25,268c9.975,1.793,14.512,7.007,14.517,16.5c0.003,5.623-2.865,9.328-7.513,12.007c-5.574,3.212-11.034,2.675-15.958-1.067
			c-5.223-3.97-7.212-9.526-5.488-15.924c1.626-6.035,6.036-9.429,11.943-11.014c0.664-0.178,1.333-0.335,2-0.502"/>
		<path fill="none" stroke="#6ECE6B" stroke-width="4" stroke-linecap="round" stroke-linejoin="round" stroke-miterlimit="10" d="
			M791.25,122.5c-3.667-4.667-7.403-9.281-10.965-14.026c-1.381-1.839-2.54-3.895-3.5-5.99c-2.21-4.82-6.409-6.148-11.029-5.888
			c-5.373,0.303-11.525,5.027-11.794,9.417c-0.159,2.596,1.302,5.703,2.98,7.836c0.927,1.178,4.048,1.546,5.753,0.985
			c2.722-0.896,3.987-3.295,2.555-6.333"/>
		<path fill="none" stroke="#6ECE6B" stroke-width="4" stroke-linecap="round" stroke-linejoin="round" stroke-miterlimit="10" d="
			M118.75,108.5c-2.436,3.424,0.117,5.337,2.551,6.38c3.264,1.399,5.681-0.528,7.466-3.369c2.966-4.721-0.58-11.875-7.017-14.011
			c-7.229-2.398-10.886-0.349-15.129,6.419c-3.894,6.213-8.871,11.747-13.371,17.581"/>
		<path fill="none" stroke="#6ECE6B" stroke-width="4" stroke-linecap="round" stroke-linejoin="round" stroke-miterlimit="10" d="
			M320.25,344c-11.333-0.167-22.667-0.341-34-0.495c-2.666-0.036-5.333-0.005-8-0.005c-25.333,0-50.667-0.007-76,0.021
			c-1.167,0.001-2.333,0.312-3.5,0.479"/>
		<path fill="none" stroke="#6ECE6B" stroke-width="4" stroke-linecap="round" stroke-linejoin="round" stroke-miterlimit="10" d="
			M281.25,230c-1.667,0.167-3.334,0.486-5,0.477c-25.667-0.134-51.333-0.392-77-0.443c-13.166-0.026-26.333,0.299-39.5,0.466"/>
		<path fill="none" stroke="#6ECE6B" stroke-width="4" stroke-linecap="round" stroke-linejoin="round" stroke-miterlimit="10" d="
			M172.75,16.5c13.333,0,26.667,0,40,0"/>
		<path fill="none" stroke="#6ECE6B" stroke-width="4" stroke-linecap="round" stroke-linejoin="round" stroke-miterlimit="10" d="
			M491.75,38c-10.167,0.167-20.333,0.345-30.5,0.493c-3.166,0.046-6.333,0.007-9.5,0.007"/>
		<path fill="none" stroke="#6ECE6B" stroke-width="4" stroke-linecap="round" stroke-linejoin="round" stroke-miterlimit="10" d="
			M556.75,460.5c-2.34-5.884-5.673-8.396-9.491-6.976c-3.166,1.177-5.082,3.712-4.895,6.97c0.187,3.249,1.788,6.351,5.401,6.909
			c3.284,0.507,6.29-0.649,7.974-3.908c0.41-0.794,0.678-1.661,1.011-2.494"/>
		<path fill="none" stroke="#6ECE6B" stroke-width="4" stroke-linecap="round" stroke-linejoin="round" stroke-miterlimit="10" d="
			M320.75,230c-7.833,0.167-15.667,0.311-23.5,0.508c-4.834,0.122-9.667,0.325-14.5,0.492"/>
		<path fill="none" stroke="#6ECE6B" stroke-width="4" stroke-linecap="round" stroke-linejoin="round" stroke-miterlimit="10" d="
			M670.75,766c-3.5-0.167-7.006-0.502-10.496-0.38c-0.861,0.03-1.827,1.44-2.48,2.397c-6.631,9.715-11.267,20.388-15.075,31.466
			c-0.275,0.801-1.282,1.351-1.949,2.018"/>
		<path fill="none" stroke="#6ECE6B" stroke-width="4" stroke-linecap="round" stroke-linejoin="round" stroke-miterlimit="10" d="
			M145.75,32c-6.167-0.167-12.332-0.398-18.5-0.482c-6.166-0.083-12.333-0.018-18.5-0.018"/>
		<path fill="none" stroke="#6ECE6B" stroke-width="4" stroke-linecap="round" stroke-linejoin="round" stroke-miterlimit="10" d="
			M721.25,429.5c-1.833,8.167-3.901,16.291-5.4,24.518c-0.74,4.062-0.433,8.315-0.599,12.482"/>
		<path fill="none" stroke="#6ECE6B" stroke-width="4" stroke-linecap="round" stroke-linejoin="round" stroke-miterlimit="10" d="
			M623.75,3c3.316,5.329-1.12,12.814-8,13.5c-7.629,0.761-12-3.975-12-13"/>
		<path fill="none" stroke="#6ECE6B" stroke-width="4" stroke-linecap="round" stroke-linejoin="round" stroke-miterlimit="10" d="
			M213.75,380.5c-3.333-6.667-6.864-13.244-9.93-20.031c-2.034-4.501-3.289-9.348-5.147-13.937c-0.489-1.207-1.92-2.896-2.923-2.899
			c-11.999-0.037-24,0.202-36,0.368"/>
		<path fill="none" stroke="#6ECE6B" stroke-width="4" stroke-linecap="round" stroke-linejoin="round" stroke-miterlimit="10" d="
			M265.75,193.5c3.667,7.833,7.41,15.632,10.97,23.513c1.999,4.425,3.697,8.987,5.53,13.487"/>
		<path fill="none" stroke="#6ECE6B" stroke-width="4" stroke-linecap="round" stroke-linejoin="round" stroke-miterlimit="10" d="
			M16.75,118.5c-2.797-3.201-5.594-6.401-8.681-9.934c-3.492,4.759-5.132,9.887-5.276,15.435C2.615,130.83,2.75,137.667,2.75,144.5"
			/>
		<path fill="none" stroke="#6ECE6B" stroke-width="4" stroke-linecap="round" stroke-linejoin="round" stroke-miterlimit="10" d="
			M75.75,109c3.604,3.392,4.475,8.019,4.882,12.511c0.495,5.455,0.03,10.991,0.163,16.488c0.049,2.007,0.621,4.001,0.954,6.001"/>
		<path fill="none" stroke="#6ECE6B" stroke-width="4" stroke-linecap="round" stroke-linejoin="round" stroke-miterlimit="10" d="
			M196.75,231.5c-1.333,6.667-2.691,13.329-3.992,20.002c-1.038,5.326-2.008,10.665-3.008,15.998"/>
		<path fill="none" stroke="#6ECE6B" stroke-width="4" stroke-linecap="round" stroke-linejoin="round" stroke-miterlimit="10" d="
			M213.75,193.5c-2.167,4.5-4.451,8.948-6.471,13.513c-2.781,6.283-5.4,12.639-7.991,19.003c-0.431,1.059-0.371,2.318-0.537,3.485"
			/>
		<path fill="none" stroke="#6ECE6B" stroke-width="4" stroke-linecap="round" stroke-linejoin="round" stroke-miterlimit="10" d="
			M240.25,344.5c-0.167,6.5-0.388,12.999-0.483,19.5c-0.081,5.499-0.017,11-0.017,16.5"/>
		<path fill="none" stroke="#6ECE6B" stroke-width="4" stroke-linecap="round" stroke-linejoin="round" stroke-miterlimit="10" d="
			M291.25,641.5c1.369,6.166,3.597,11.917,7.471,17.022c4.574,6.027,10.402,9.573,18.029,9.978"/>
		<path fill="none" stroke="#6ECE6B" stroke-width="4" stroke-linecap="round" stroke-linejoin="round" stroke-miterlimit="10" d="
			M637.75,522.5c-1,5.167-2.22,10.303-2.944,15.508c-0.9,6.468-1.389,12.992-2.056,19.492"/>
		<path fill="none" stroke="#6ECE6B" stroke-width="4" stroke-linecap="round" stroke-linejoin="round" stroke-miterlimit="10" d="
			M163.75,54.5c-11.667,0-23.333,0-35,0"/>
		<path fill="none" stroke="#6ECE6B" stroke-width="4" stroke-linecap="round" stroke-linejoin="round" stroke-miterlimit="10" d="
			M326.75,404.5c-11.667,0-23.333,0-35,0"/>
		<path fill="none" stroke="#6ECE6B" stroke-width="4" stroke-linecap="round" stroke-linejoin="round" stroke-miterlimit="10" d="
			M438.75,744.5c-11.333,0-22.667,0-34,0"/>
		<path fill="none" stroke="#6ECE6B" stroke-width="4" stroke-linecap="round" stroke-linejoin="round" stroke-miterlimit="10" d="
			M341.75,569.5c-9,0-18-0.025-27,0.023c-1.667,0.009-3.333,0.311-5,0.477"/>
		<path fill="none" stroke="#6ECE6B" stroke-width="4" stroke-linecap="round" stroke-linejoin="round" stroke-miterlimit="10" d="
			M158.75,761.5c-10.667,0-21.333,0-32,0"/>
		<path fill="none" stroke="#6ECE6B" stroke-width="4" stroke-linecap="round" stroke-linejoin="round" stroke-miterlimit="10" d="
			M41.75,133.5c0,27.667,0,55.333,0,83"/>
		<path fill="none" stroke="#6ECE6B" stroke-width="4" stroke-linecap="round" stroke-linejoin="round" stroke-miterlimit="10" d="
			M132.75,172c10.333,0,20.667,0,31,0"/>
		<path fill="none" stroke="#6ECE6B" stroke-width="4" stroke-linecap="round" stroke-linejoin="round" stroke-miterlimit="10" d="
			M36.75,685.5c1.275,3.149,3.343,5.795,6.958,4.842c2.362-0.623,4.981-2.591,3.939-5.808c-0.6-1.85-1.898-4.223-3.474-4.834
			c-2.418-0.937-5.275-0.419-6.428,2.799c-0.302,0.844-0.662,1.668-0.995,2.502"/>
		<path fill="none" stroke="#6ECE6B" stroke-width="4" stroke-linecap="round" stroke-linejoin="round" stroke-miterlimit="10" d="
			M705.75,46.5c2.338-2.164,6.573-3.209,4.066-8.034c-1.411-2.717-3.561-3.673-6.015-2.82c-1.603,0.558-3.339,2.3-3.907,3.905
			c-0.873,2.468,0.009,4.87,2.855,5.951c0.839,0.319,1.668,0.664,2.501,0.998"/>
		<path fill="none" stroke="#6ECE6B" stroke-width="4" stroke-linecap="round" stroke-linejoin="round" stroke-miterlimit="10" d="
			M729.75,734.5c-1.5-1.667-2.707-4.081-4.573-4.813c-2.411-0.945-5.601-0.478-6.324,2.836c-0.553,2.532-0.69,5.864,2.446,6.821
			c2.242,0.684,5.37,1.508,6.965-1.837c0.416-0.873,0.987-1.673,1.487-2.506"/>
		<path fill="none" stroke="#6ECE6B" stroke-width="4" stroke-linecap="round" stroke-linejoin="round" stroke-miterlimit="10" d="
			M620.75,780c-10,0-20,0-30,0"/>
		<path fill="none" stroke="#6ECE6B" stroke-width="4" stroke-linecap="round" stroke-linejoin="round" stroke-miterlimit="10" d="
			M210.25,425.5c0.022,7.741-1.675,15.172-3.983,22.505c-0.776,2.466-1.351,4.995-2.017,7.495"/>
		<path fill="none" stroke="#6ECE6B" stroke-width="4" stroke-linecap="round" stroke-linejoin="round" stroke-miterlimit="10" d="
			M721.25,63.5c-2.543-3.939-5.531-5.448-7.997-3.994c-2.312,1.363-3.266,3.651-2.368,5.941c0.631,1.609,2.31,3.176,3.913,3.953
			c2.833,1.371,4.645-0.551,5.936-2.908c0.428-0.781,0.682-1.658,1.015-2.492"/>
		<path fill="none" stroke="#6ECE6B" stroke-width="4" stroke-linecap="round" stroke-linejoin="round" stroke-miterlimit="10" d="
			M119.25,157.5c-0.5,4-0.391,8.2-1.624,11.959c-2.762,8.423-7.415,15.85-13.876,22.041"/>
		<path fill="none" stroke="#6ECE6B" stroke-width="4" stroke-linecap="round" stroke-linejoin="round" stroke-miterlimit="10" d="
			M773.25,163.5c-2.374-1.079-4.747-2.157-7.628-3.466c-2.45,5.465,0.779,10.252,2.762,14.909c1.68,3.945,4.565,7.371,6.847,11.068
			c0.78,1.263,1.351,2.656,2.018,3.989"/>
		<path fill="none" stroke="#6ECE6B" stroke-width="4" stroke-linecap="round" stroke-linejoin="round" stroke-miterlimit="10" d="
			M798.75,223.5c-3-1-6.094-1.784-8.981-3.044c-6.56-2.862-13.019-5.956-19.519-8.956"/>
		<path fill="none" stroke="#6ECE6B" stroke-width="4" stroke-linecap="round" stroke-linejoin="round" stroke-miterlimit="10" d="
			M764.75,3.5c1.752,7.55,4.486,8.774,10.519,9.896c4.482,0.833,8.109-2.3,10.486-7.893c0.291-0.685,0.661-1.336,0.994-2.002"/>
		<path fill="none" stroke="#6ECE6B" stroke-width="4" stroke-linecap="round" stroke-linejoin="round" stroke-miterlimit="10" d="
			M384.25,194.5c-3.774,9.306-5.828,18.998-6.5,29"/>
		<path fill="none" stroke="#6ECE6B" stroke-width="4" stroke-linecap="round" stroke-linejoin="round" stroke-miterlimit="10" d="
			M786.75,801c-1.619-4.475-3.709-8.55-9.003-9.486c-6.341-1.12-11.317,2.747-12.997,9.986"/>
		<path fill="none" stroke="#6ECE6B" stroke-width="4" stroke-linecap="round" stroke-linejoin="round" stroke-miterlimit="10" d="
			M89.75,171c-7.265,7.633-15.401,13.984-25.482,17.55c-0.802,0.284-1.351,1.283-2.018,1.95"/>
		<path fill="none" stroke="#6ECE6B" stroke-width="4" stroke-linecap="round" stroke-linejoin="round" stroke-miterlimit="10" d="
			M329.75,296.5c-9.333,0-18.667,0-28,0"/>
		<path fill="none" stroke="#6ECE6B" stroke-width="4" stroke-linecap="round" stroke-linejoin="round" stroke-miterlimit="10" d="
			M482.75,298.5c-9.333,0-18.667,0-28,0"/>
		<path fill="none" stroke="#6ECE6B" stroke-width="4" stroke-linecap="round" stroke-linejoin="round" stroke-miterlimit="10" d="
			M784.75,778.5c-9.333,0-18.667,0-28,0"/>
		<path fill="none" stroke="#6ECE6B" stroke-width="4" stroke-linecap="round" stroke-linejoin="round" stroke-miterlimit="10" d="
			M163.75,481c-9.333,0.167-18.667,0.333-28,0.5"/>
		<path fill="none" stroke="#6ECE6B" stroke-width="4" stroke-linecap="round" stroke-linejoin="round" stroke-miterlimit="10" d="
			M139.75,454c9.333,0.167,18.667,0.333,28,0.5"/>
		<path fill="none" stroke="#6ECE6B" stroke-width="4" stroke-linecap="round" stroke-linejoin="round" stroke-miterlimit="10" d="
			M222.75,16c7,0.167,14.001,0.307,21,0.516c2.17,0.065,4.334,0.317,6.5,0.484"/>
		<path fill="none" stroke="#6ECE6B" stroke-width="4" stroke-linecap="round" stroke-linejoin="round" stroke-miterlimit="10" d="
			M186.25,768.5c-1.333,9-2.667,18-4,27"/>
		<path fill="none" stroke="#6ECE6B" stroke-width="4" stroke-linecap="round" stroke-linejoin="round" stroke-miterlimit="10" d="
			M24.25,141.5c2.287,8.556,6.102,15.997,13.406,21.622c3.899,3.002,6.682,2.008,9.566-0.652c5.799-5.349,9.804-11.877,12.028-19.47
			"/>
		<path fill="none" stroke="#6ECE6B" stroke-width="4" stroke-linecap="round" stroke-linejoin="round" stroke-miterlimit="10" d="
			M733.75,599.5c-8.667,0-17.333,0-26,0"/>
		<path fill="none" stroke="#6ECE6B" stroke-width="4" stroke-linecap="round" stroke-linejoin="round" stroke-miterlimit="10" d="
			M625.75,801.5c-1-1-1.991-2.009-3.001-2.999c-7.249-7.097-14.18-3.663-18.038,1.971c-0.368,0.538-1.293,0.694-1.96,1.027"/>
		<path fill="none" stroke="#6ECE6B" stroke-width="4" stroke-linecap="round" stroke-linejoin="round" stroke-miterlimit="10" d="
			M738.75,165c-8,0-16,0-24,0"/>
		<path fill="none" stroke="#6ECE6B" stroke-width="4" stroke-linecap="round" stroke-linejoin="round" stroke-miterlimit="10" d="
			M798.75,264c-8,0-16,0-24,0"/>
		<path fill="none" stroke="#6ECE6B" stroke-width="4" stroke-linecap="round" stroke-linejoin="round" stroke-miterlimit="10" d="
			M616.75,33c-8,0.167-16,0.333-24,0.5"/>
		<path fill="none" stroke="#6ECE6B" stroke-width="4" stroke-linecap="round" stroke-linejoin="round" stroke-miterlimit="10" d="
			M174.75,306.5c-8,0-16,0-24,0"/>
		<path fill="none" stroke="#6ECE6B" stroke-width="4" stroke-linecap="round" stroke-linejoin="round" stroke-miterlimit="10" d="
			M519.75,628.5c-7.667,0-15.333,0-23,0"/>
		<path fill="none" stroke="#6ECE6B" stroke-width="4" stroke-linecap="round" stroke-linejoin="round" stroke-miterlimit="10" d="
			M-0.25,174.5c3.376,7.029,10.364,9.628,16.557,12.891c9.285,4.892,19.436,6.679,29.941,6.075c1.514-0.087,3.033-0.533,4.497-0.983
			c6.78-2.085,12.983-2.773,18.14,3.913c2.169,2.812,6.117,3.487,9.866,3.104"/>
		<path fill="none" stroke="#6ECE6B" stroke-width="4" stroke-linecap="round" stroke-linejoin="round" stroke-miterlimit="10" d="
			M658.75,189.5c-7.667,0-15.333,0-23,0"/>
		<path fill="none" stroke="#6ECE6B" stroke-width="4" stroke-linecap="round" stroke-linejoin="round" stroke-miterlimit="10" d="
			M781.75,608c-14-0.167-28-0.352-42-0.475c-1.665-0.015-3.333,0.309-5,0.475"/>
		<path fill="none" stroke="#6ECE6B" stroke-width="4" stroke-linecap="round" stroke-linejoin="round" stroke-miterlimit="10" d="
			M751.75,514c7.667,0.167,15.333,0.333,23,0.5"/>
		<path fill="none" stroke="#6ECE6B" stroke-width="4" stroke-linecap="round" stroke-linejoin="round" stroke-miterlimit="10" d="
			M761.75,186c1.508,10.021,7.929,16.668,15.54,22.448c0.529,0.401,1.627,0.052,2.46,0.052"/>
		<path fill="none" stroke="#6ECE6B" stroke-width="4" stroke-linecap="round" stroke-linejoin="round" stroke-miterlimit="10" d="
			M487.75,364c-7.333,0-14.667,0-22,0"/>
		<path fill="none" stroke="#6ECE6B" stroke-width="4" stroke-linecap="round" stroke-linejoin="round" stroke-miterlimit="10" d="
			M603.75,669c-7.333,0-14.667,0-22,0"/>
		<path fill="none" stroke="#6ECE6B" stroke-width="4" stroke-linecap="round" stroke-linejoin="round" stroke-miterlimit="10" d="
			M711.75,714.5c-7.333,0-14.667,0-22,0"/>
		<path fill="none" stroke="#6ECE6B" stroke-width="4" stroke-linecap="round" stroke-linejoin="round" stroke-miterlimit="10" d="
			M121.25,188c-0.838,7.802-5.783,12.891-11.478,17.527c-0.991,0.807-1.689,1.973-2.522,2.973"/>
		<path fill="none" stroke="#6ECE6B" stroke-width="4" stroke-linecap="round" stroke-linejoin="round" stroke-miterlimit="10" d="
			M262.75,605c-14.333,0-28.667,0-43,0"/>
		<path fill="none" stroke="#6ECE6B" stroke-width="4" stroke-linecap="round" stroke-linejoin="round" stroke-miterlimit="10" d="
			M506.75,452c-7,0-14,0-21,0"/>
		<path fill="none" stroke="#6ECE6B" stroke-width="4" stroke-linecap="round" stroke-linejoin="round" stroke-miterlimit="10" d="
			M82.75,237.5c-7,0-14,0-21,0"/>
		<path fill="none" stroke="#6ECE6B" stroke-width="4" stroke-linecap="round" stroke-linejoin="round" stroke-miterlimit="10" d="
			M40.75,315c7,0.167,14,0.333,21,0.5"/>
		<path fill="none" stroke="#6ECE6B" stroke-width="4" stroke-linecap="round" stroke-linejoin="round" stroke-miterlimit="10" d="
			M560.75,599c7,0.167,14,0.333,21,0.5"/>
		<path fill="none" stroke="#6ECE6B" stroke-width="4" stroke-linecap="round" stroke-linejoin="round" stroke-miterlimit="10" d="
			M336.75,755.5c-13.667,0-27.333,0-41,0"/>
		<path fill="none" stroke="#6ECE6B" stroke-width="4" stroke-linecap="round" stroke-linejoin="round" stroke-miterlimit="10" d="
			M345.75,199.5c-7,0.167-14,0.333-21,0.5"/>
		<path fill="none" stroke="#6ECE6B" stroke-width="4" stroke-linecap="round" stroke-linejoin="round" stroke-miterlimit="10" d="
			M262.75,669c-7,0-14,0-21,0"/>
		<path fill="none" stroke="#6ECE6B" stroke-width="4" stroke-linecap="round" stroke-linejoin="round" stroke-miterlimit="10" d="
			M376.75,296c7,0.167,14,0.333,21,0.5"/>
		<path fill="none" stroke="#6ECE6B" stroke-width="4" stroke-linecap="round" stroke-linejoin="round" stroke-miterlimit="10" d="
			M570.75,780.5c0.333,7,0.667,14,1,21"/>
		<path fill="none" stroke="#6ECE6B" stroke-width="4" stroke-linecap="round" stroke-linejoin="round" stroke-miterlimit="10" d="
			M355.75,344c-6.667,0-13.333,0-20,0"/>
		<path fill="none" stroke="#6ECE6B" stroke-width="4" stroke-linecap="round" stroke-linejoin="round" stroke-miterlimit="10" d="
			M489.75,526c-6.667,0-13.333,0-20,0"/>
		<path fill="none" stroke="#6ECE6B" stroke-width="4" stroke-linecap="round" stroke-linejoin="round" stroke-miterlimit="10" d="
			M224.75,733.5c-6.667,0-13.333,0-20,0"/>
		<path fill="none" stroke="#6ECE6B" stroke-width="4" stroke-linecap="round" stroke-linejoin="round" stroke-miterlimit="10" d="
			M524.75,415c-6.667,0.167-13.333,0.333-20,0.5"/>
		<path fill="none" stroke="#6ECE6B" stroke-width="4" stroke-linecap="round" stroke-linejoin="round" stroke-miterlimit="10" d="
			M19.75,369c-6.667,0-13.333,0-20,0"/>
		<path fill="none" stroke="#6ECE6B" stroke-width="4" stroke-linecap="round" stroke-linejoin="round" stroke-miterlimit="10" d="
			M229.75,142.5c-12.333,0-24.667,0-37,0"/>
		<path fill="none" stroke="#6ECE6B" stroke-width="4" stroke-linecap="round" stroke-linejoin="round" stroke-miterlimit="10" d="
			M528.75,393.5c-6.333,0-12.667,0-19,0"/>
		<path fill="none" stroke="#6ECE6B" stroke-width="4" stroke-linecap="round" stroke-linejoin="round" stroke-miterlimit="10" d="
			M70.75,587.5c-6.333,0-12.667,0-19,0"/>
		<path fill="none" stroke="#6ECE6B" stroke-width="4" stroke-linecap="round" stroke-linejoin="round" stroke-miterlimit="10" d="
			M427.75,70c-8.333,0-16.667,0-25,0"/>
		<path fill="none" stroke="#6ECE6B" stroke-width="4" stroke-linecap="round" stroke-linejoin="round" stroke-miterlimit="10" d="
			M265.75,494c-6.333,6.333-12.667,12.667-19,19"/>
		<path fill="none" stroke="#6ECE6B" stroke-width="4" stroke-linecap="round" stroke-linejoin="round" stroke-miterlimit="10" d="
			M798.75,20.5c-6.333,0.167-12.667,0.333-19,0.5"/>
		<path fill="none" stroke="#6ECE6B" stroke-width="4" stroke-linecap="round" stroke-linejoin="round" stroke-miterlimit="10" d="
			M3.75,758c6.333,0,12.667,0,19,0"/>
		<path fill="none" stroke="#6ECE6B" stroke-width="4" stroke-linecap="round" stroke-linejoin="round" stroke-miterlimit="10" d="
			M602.75,415c6.5,6.167,12.993,12.34,19.502,18.498c5.824,5.51,11.665,11.002,17.498,16.502"/>
		<path fill="none" stroke="#6ECE6B" stroke-width="4" stroke-linecap="round" stroke-linejoin="round" stroke-miterlimit="10" d="
			M667.75,131c-6,0-12,0-18,0"/>
		<path fill="none" stroke="#6ECE6B" stroke-width="4" stroke-linecap="round" stroke-linejoin="round" stroke-miterlimit="10" d="
			M304.75,264c7.833,0,15.667,0,23.5,0"/>
		<path fill="none" stroke="#6ECE6B" stroke-width="4" stroke-linecap="round" stroke-linejoin="round" stroke-miterlimit="10" d="
			M0.25,542.5c5.493,8.485,5.483,11.515,0.5,18"/>
		<path fill="none" stroke="#6ECE6B" stroke-width="4" stroke-linecap="round" stroke-linejoin="round" stroke-miterlimit="10" d="
			M153.75,323.5c6,0.167,12,0.333,18,0.5"/>
		<path fill="none" stroke="#6ECE6B" stroke-width="4" stroke-linecap="round" stroke-linejoin="round" stroke-miterlimit="10" d="
			M124.75,2.5c6,2.675,12,2.675,18,0"/>
		<path fill="none" stroke="#6ECE6B" stroke-width="4" stroke-linecap="round" stroke-linejoin="round" stroke-miterlimit="10" d="
			M542.25,552.5c0,6,0,12,0,18"/>
		<path fill="none" stroke="#6ECE6B" stroke-width="4" stroke-linecap="round" stroke-linejoin="round" stroke-miterlimit="10" d="
			M602.75,497c6,0.167,12,0.333,18,0.5"/>
		<path fill="none" stroke="#6ECE6B" stroke-width="4" stroke-linecap="round" stroke-linejoin="round" stroke-miterlimit="10" d="
			M199.75,643c-6,0.167-12,0.333-18,0.5"/>
		<path fill="none" stroke="#6ECE6B" stroke-width="4" stroke-linecap="round" stroke-linejoin="round" stroke-miterlimit="10" d="
			M532.75,729c-7.293,0.732-12.211,4.459-14.5,11.5"/>
		<path fill="none" stroke="#6ECE6B" stroke-width="4" stroke-linecap="round" stroke-linejoin="round" stroke-miterlimit="10" d="
			M21.25,190.5c-4.071,5.62-9.096,9.491-16.5,9"/>
		<path fill="none" stroke="#6ECE6B" stroke-width="4" stroke-linecap="round" stroke-linejoin="round" stroke-miterlimit="10" d="
			M680.75,577c-5.5,5.5-11,11-16.5,16.5"/>
		<path fill="none" stroke="#6ECE6B" stroke-width="4" stroke-linecap="round" stroke-linejoin="round" stroke-miterlimit="10" d="
			M686.25,308.5c5.167,4.833,10.333,9.667,15.5,14.5"/>
		<path fill="none" stroke="#6ECE6B" stroke-width="4" stroke-linecap="round" stroke-linejoin="round" stroke-miterlimit="10" d="
			M798.75,369c-5.667,0-11.333,0-17,0"/>
		<path fill="none" stroke="#6ECE6B" stroke-width="4" stroke-linecap="round" stroke-linejoin="round" stroke-miterlimit="10" d="
			M753.75,504c-5.667,0-11.333,0-17,0"/>
		<path fill="none" stroke="#6ECE6B" stroke-width="4" stroke-linecap="round" stroke-linejoin="round" stroke-miterlimit="10" d="
			M118.75,422c-3.334,0-6.667,0-9.75,0c0,5.339,0,10.178,0,15.5c3.064,0,5.907,0,8.75,0"/>
		<path fill="none" stroke="#6ECE6B" stroke-width="4" stroke-linecap="round" stroke-linejoin="round" stroke-miterlimit="10" d="
			M391.75,624.5c-5.667,0-11.333,0-17,0"/>
		<path fill="none" stroke="#6ECE6B" stroke-width="4" stroke-linecap="round" stroke-linejoin="round" stroke-miterlimit="10" d="
			M448.75,369c-13.333,0-26.667,0-40,0"/>
		<path fill="none" stroke="#6ECE6B" stroke-width="4" stroke-linecap="round" stroke-linejoin="round" stroke-miterlimit="10" d="
			M602.75,52.5c-5.667,0-11.333,0-17,0"/>
		<path fill="none" stroke="#6ECE6B" stroke-width="4" stroke-linecap="round" stroke-linejoin="round" stroke-miterlimit="10" d="
			M781.75,504c-5.667,0-11.333,0-17,0"/>
		<path fill="none" stroke="#6ECE6B" stroke-width="4" stroke-linecap="round" stroke-linejoin="round" stroke-miterlimit="10" d="
			M17.75,740c-5.667,0.167-11.333,0.333-17,0.5"/>
		<path fill="none" stroke="#6ECE6B" stroke-width="4" stroke-linecap="round" stroke-linejoin="round" stroke-miterlimit="10" d="
			M509.75,133.5c-5.667-0.167-11.333-0.333-17-0.5"/>
		<path fill="none" stroke="#6ECE6B" stroke-width="4" stroke-linecap="round" stroke-linejoin="round" stroke-miterlimit="10" d="
			M679.75,658.5c-11,0-22,0-33,0"/>
		<path fill="none" stroke="#6ECE6B" stroke-width="4" stroke-linecap="round" stroke-linejoin="round" stroke-miterlimit="10" d="
			M798.75,588.5c-5.333,0-10.667,0-16,0"/>
		<path fill="none" stroke="#6ECE6B" stroke-width="4" stroke-linecap="round" stroke-linejoin="round" stroke-miterlimit="10" d="
			M280.75,16.5c-5.333,0-10.667,0-16,0"/>
		<path fill="none" stroke="#6ECE6B" stroke-width="4" stroke-linecap="round" stroke-linejoin="round" stroke-miterlimit="10" d="
			M156.75,708.5c-5.333,0-10.667,0-16,0"/>
		<path fill="none" stroke="#6ECE6B" stroke-width="4" stroke-linecap="round" stroke-linejoin="round" stroke-miterlimit="10" d="
			M330.75,550.5c-5.333,0-10.667,0-16,0"/>
		<path fill="none" stroke="#6ECE6B" stroke-width="4" stroke-linecap="round" stroke-linejoin="round" stroke-miterlimit="10" d="
			M586.75,383.5c-5.333,0.167-10.667,0.333-16,0.5"/>
		<path fill="none" stroke="#6ECE6B" stroke-width="4" stroke-linecap="round" stroke-linejoin="round" stroke-miterlimit="10" d="
			M313.75,279c5.333,0.167,10.667,0.333,16,0.5"/>
		<path fill="none" stroke="#6ECE6B" stroke-width="4" stroke-linecap="round" stroke-linejoin="round" stroke-miterlimit="10" d="
			M391.75,399.5c-5,0-10,0-15,0"/>
		<path fill="none" stroke="#6ECE6B" stroke-width="4" stroke-linecap="round" stroke-linejoin="round" stroke-miterlimit="10" d="
			M350.75,223.5c-5,0.167-10,0.333-15,0.5"/>
		<path fill="none" stroke="#6ECE6B" stroke-width="4" stroke-linecap="round" stroke-linejoin="round" stroke-miterlimit="10" d="
			M245.75,82.5c-5,0-10,0-15,0"/>
		<path fill="none" stroke="#6ECE6B" stroke-width="4" stroke-linecap="round" stroke-linejoin="round" stroke-miterlimit="10" d="
			M88.75,490c-5-0.167-10-0.333-15-0.5"/>
		<path fill="none" stroke="#6ECE6B" stroke-width="4" stroke-linecap="round" stroke-linejoin="round" stroke-miterlimit="10" d="
			M682.75,3c1.167,0.833,2.247,1.843,3.516,2.468c4.257,2.096,8.105,1.308,11.484-1.968"/>
		<path fill="none" stroke="#6ECE6B" stroke-width="4" stroke-linecap="round" stroke-linejoin="round" stroke-miterlimit="10" d="
			M83.75,422.5c0,5,0,10,0,15"/>
		<path fill="none" stroke="#6ECE6B" stroke-width="4" stroke-linecap="round" stroke-linejoin="round" stroke-miterlimit="10" d="
			M381.75,791.5c-5,0-10,0-15,0"/>
		<path fill="none" stroke="#6ECE6B" stroke-width="4" stroke-linecap="round" stroke-linejoin="round" stroke-miterlimit="10" d="
			M651.75,234c5.667,0,11.333,0,17,0"/>
		<path fill="none" stroke="#6ECE6B" stroke-width="4" stroke-linecap="round" stroke-linejoin="round" stroke-miterlimit="10" d="
			M78.75,421.5c-3.278,0.622-1.547,3.241-2.01,4.997c-0.968,3.675-1.99,7.336-2.99,11.003"/>
		<path fill="none" stroke="#6ECE6B" stroke-width="4" stroke-linecap="round" stroke-linejoin="round" stroke-miterlimit="10" d="
			M199.75,526c-4.667,0-9.333,0-14,0"/>
		<path fill="none" stroke="#6ECE6B" stroke-width="4" stroke-linecap="round" stroke-linejoin="round" stroke-miterlimit="10" d="
			M465.75,579c-4.667,0-9.333,0-14,0"/>
		<path fill="none" stroke="#6ECE6B" stroke-width="4" stroke-linecap="round" stroke-linejoin="round" stroke-miterlimit="10" d="
			M122.75,185.5c-4.934,2.92-10.051,5.189-16,4.5"/>
		<path fill="none" stroke="#6ECE6B" stroke-width="4" stroke-linecap="round" stroke-linejoin="round" stroke-miterlimit="10" d="
			M451.75,92c-4.667-0.167-9.333-0.333-14-0.5"/>
		<path fill="none" stroke="#6ECE6B" stroke-width="4" stroke-linecap="round" stroke-linejoin="round" stroke-miterlimit="10" d="
			M693.75,336.5c4,3.833,8,7.667,12,11.5"/>
		<path fill="none" stroke="#6ECE6B" stroke-width="4" stroke-linecap="round" stroke-linejoin="round" stroke-miterlimit="10" d="
			M763.25,187.5c2,0.5,3.98,1.113,6.004,1.476c4.153,0.745,8.329,1.357,12.496,2.024"/>
		<path fill="none" stroke="#6ECE6B" stroke-width="4" stroke-linecap="round" stroke-linejoin="round" stroke-miterlimit="10" d="
			M130.75,327c-4.333-0.167-8.667-0.333-13-0.5"/>
		<path fill="none" stroke="#6ECE6B" stroke-width="4" stroke-linecap="round" stroke-linejoin="round" stroke-miterlimit="10" d="
			M341.75,711.5c-4.333,0.167-8.667,0.333-13,0.5"/>
		<path fill="none" stroke="#6ECE6B" stroke-width="4" stroke-linecap="round" stroke-linejoin="round" stroke-miterlimit="10" d="
			M771.75,31.5c-4.333,0-8.667,0-13,0"/>
		<path fill="none" stroke="#6ECE6B" stroke-width="4" stroke-linecap="round" stroke-linejoin="round" stroke-miterlimit="10" d="
			M328.75,389.5c-4.333,0.167-8.667,0.333-13,0.5"/>
		<path fill="none" stroke="#6ECE6B" stroke-width="4" stroke-linecap="round" stroke-linejoin="round" stroke-miterlimit="10" d="
			M148.75,363.5c-4.333,0-8.667,0-13,0"/>
		<path fill="none" stroke="#6ECE6B" stroke-width="4" stroke-linecap="round" stroke-linejoin="round" stroke-miterlimit="10" d="
			M701.75,387c-4.333-0.167-8.667-0.333-13-0.5"/>
		<path fill="none" stroke="#6ECE6B" stroke-width="4" stroke-linecap="round" stroke-linejoin="round" stroke-miterlimit="10" d="
			M224.75,576c-4.333,0.167-8.667,0.333-13,0.5"/>
		<path fill="none" stroke="#6ECE6B" stroke-width="4" stroke-linecap="round" stroke-linejoin="round" stroke-miterlimit="10" d="
			M101.75,422.5c-0.333,4.167-0.667,8.333-1,12.5"/>
		<path fill="none" stroke="#6ECE6B" stroke-width="4" stroke-linecap="round" stroke-linejoin="round" stroke-miterlimit="10" d="
			M59.75,422.5c1.333,5,2.667,10,4,15"/>
		<path fill="none" stroke="#6ECE6B" stroke-width="4" stroke-linecap="round" stroke-linejoin="round" stroke-miterlimit="10" d="
			M609.75,567c-4,0-8,0-12,0"/>
		<path fill="none" stroke="#6ECE6B" stroke-width="4" stroke-linecap="round" stroke-linejoin="round" stroke-miterlimit="10" d="
			M572.75,499.5c-4,0.167-8,0.333-12,0.5"/>
		<path fill="none" stroke="#6ECE6B" stroke-width="4" stroke-linecap="round" stroke-linejoin="round" stroke-miterlimit="10" d="
			M487.75,281c-4-0.167-8-0.333-12-0.5"/>
		<path fill="none" stroke="#6ECE6B" stroke-width="4" stroke-linecap="round" stroke-linejoin="round" stroke-miterlimit="10" d="
			M286.75,740c4,0,8,0,12,0"/>
		<path fill="none" stroke="#6ECE6B" stroke-width="4" stroke-linecap="round" stroke-linejoin="round" stroke-miterlimit="10" d="
			M91.25,425.5c-0.167,4-0.333,8-0.5,12"/>
		<path fill="none" stroke="#6ECE6B" stroke-width="4" stroke-linecap="round" stroke-linejoin="round" stroke-miterlimit="10" d="
			M441.75,709c-3.954,3.546-3.954,4.355,0,10.5"/>
		<path fill="none" stroke="#6ECE6B" stroke-width="4" stroke-linecap="round" stroke-linejoin="round" stroke-miterlimit="10" d="
			M87.75,3c-2.833,3.333-5.667,6.667-8.5,10"/>
		<path fill="none" stroke="#6ECE6B" stroke-width="4" stroke-linecap="round" stroke-linejoin="round" stroke-miterlimit="10" d="
			M90.75,422.5c3.5,4.833,7,9.667,10.5,14.5"/>
		<path fill="none" stroke="#6ECE6B" stroke-width="4" stroke-linecap="round" stroke-linejoin="round" stroke-miterlimit="10" d="
			M613.75,481.5c-3.667,0-7.333,0-11,0"/>
		<path fill="none" stroke="#6ECE6B" stroke-width="4" stroke-linecap="round" stroke-linejoin="round" stroke-miterlimit="10" d="
			M172.75,592c3.667,0.167,7.333,0.333,11,0.5"/>
		<path fill="none" stroke="#6ECE6B" stroke-width="4" stroke-linecap="round" stroke-linejoin="round" stroke-miterlimit="10" d="
			M585.75,648c3.667,0.167,7.333,0.333,11,0.5"/>
		<path fill="none" stroke="#6ECE6B" stroke-width="4" stroke-linecap="round" stroke-linejoin="round" stroke-miterlimit="10" d="
			M492.75,712c-3.667-0.167-7.333-0.333-11-0.5"/>
		<path fill="none" stroke="#6ECE6B" stroke-width="4" stroke-linecap="round" stroke-linejoin="round" stroke-miterlimit="10" d="
			M139.75,744.5c-3.667,0-7.333,0-11,0"/>
		<path fill="none" stroke="#6ECE6B" stroke-width="4" stroke-linecap="round" stroke-linejoin="round" stroke-miterlimit="10" d="
			M590.75,739.5c-3.667,0-7.333,0-11,0"/>
		<path fill="none" stroke="#6ECE6B" stroke-width="4" stroke-linecap="round" stroke-linejoin="round" stroke-miterlimit="10" d="
			M593.75,723c-3.667-0.167-7.333-0.333-11-0.5"/>
		<path fill="none" stroke="#6ECE6B" stroke-width="4" stroke-linecap="round" stroke-linejoin="round" stroke-miterlimit="10" d="
			M451.75,660.5c-3.667,0-7.333,0-11,0"/>
		<path fill="none" stroke="#6ECE6B" stroke-width="4" stroke-linecap="round" stroke-linejoin="round" stroke-miterlimit="10" d="
			M58.75,330c-3.667,0.167-7.333,0.333-11,0.5"/>
		<path fill="none" stroke="#6ECE6B" stroke-width="4" stroke-linecap="round" stroke-linejoin="round" stroke-miterlimit="10" d="
			M68.75,422.5c-1.667,4.167-3.333,8.333-5,12.5"/>
		<path fill="none" stroke="#6ECE6B" stroke-width="4" stroke-linecap="round" stroke-linejoin="round" stroke-miterlimit="10" d="
			M77.25,2.5c0.212,5.345,2.342,10.75-0.5,16"/>
		<path fill="none" stroke="#6ECE6B" stroke-width="4" stroke-linecap="round" stroke-linejoin="round" stroke-miterlimit="10" d="
			M68.75,425c1.5,3.167,3,6.333,4.5,9.5"/>
		<path fill="none" stroke="#6ECE6B" stroke-width="4" stroke-linecap="round" stroke-linejoin="round" stroke-miterlimit="10" d="
			M798.75,740c-3.333,0-6.667,0-10,0"/>
		<path fill="none" stroke="#6ECE6B" stroke-width="4" stroke-linecap="round" stroke-linejoin="round" stroke-miterlimit="10" d="
			M580.75,453.5c-3.333,0-6.667,0-10,0"/>
		<path fill="none" stroke="#6ECE6B" stroke-width="4" stroke-linecap="round" stroke-linejoin="round" stroke-miterlimit="10" d="
			M436.75,43.5c-3.333,0-6.667,0-10,0"/>
		<path fill="none" stroke="#6ECE6B" stroke-width="4" stroke-linecap="round" stroke-linejoin="round" stroke-miterlimit="10" d="
			M127.75,297.5c-3.333,0-6.667,0-10,0"/>
		<path fill="none" stroke="#6ECE6B" stroke-width="4" stroke-linecap="round" stroke-linejoin="round" stroke-miterlimit="10" d="
			M493.75,432.5c-3,0-6,0-9,0"/>
		<path fill="none" stroke="#6ECE6B" stroke-width="4" stroke-linecap="round" stroke-linejoin="round" stroke-miterlimit="10" d="
			M13.75,264c-4.667,0-9.333,0-14,0"/>
		<path fill="none" stroke="#6ECE6B" stroke-width="4" stroke-linecap="round" stroke-linejoin="round" stroke-miterlimit="10" d="
			M736.75,585c-3-0.167-6-0.333-9-0.5"/>
		<path fill="none" stroke="#6ECE6B" stroke-width="4" stroke-linecap="round" stroke-linejoin="round" stroke-miterlimit="10" d="
			M250.75,492c-3,2.333-6,4.667-9,7"/>
		<path fill="none" stroke="#6ECE6B" stroke-width="4" stroke-linecap="round" stroke-linejoin="round" stroke-miterlimit="10" d="
			M405.75,733.5c-3,0-6,0-9,0"/>
		<path fill="none" stroke="#6ECE6B" stroke-width="4" stroke-linecap="round" stroke-linejoin="round" stroke-miterlimit="10" d="
			M793.25,169.5c1.833,2.667,3.667,5.333,5.5,8"/>
		<path fill="none" stroke="#6ECE6B" stroke-width="4" stroke-linecap="round" stroke-linejoin="round" stroke-miterlimit="10" d="
			M19.75,466c4.5,0,9,0,13.5,0"/>
		<path fill="none" stroke="#6ECE6B" stroke-width="4" stroke-linecap="round" stroke-linejoin="round" stroke-miterlimit="10" d="
			M75.75,107.5c-2.667,3.167-5.333,6.333-8,9.5"/>
		<path fill="none" stroke="#6ECE6B" stroke-width="4" stroke-linecap="round" stroke-linejoin="round" stroke-miterlimit="10" d="
			M100.75,509c-4.333,0-8.667,0-13,0"/>
		<path fill="none" stroke="#6ECE6B" stroke-width="4" stroke-linecap="round" stroke-linejoin="round" stroke-miterlimit="10" d="
			M787.75,86c3.667,0,7.333,0,11,0"/>
		<path fill="none" stroke="#6ECE6B" stroke-width="4" stroke-linecap="round" stroke-linejoin="round" stroke-miterlimit="10" d="
			M598.25,223.5c-0.833,2.667-1.667,5.333-2.5,8"/>
		<path fill="none" stroke="#6ECE6B" stroke-width="4" stroke-linecap="round" stroke-linejoin="round" stroke-miterlimit="10" d="
			M146.75,189.5c-2.667,0-5.333,0-8,0"/>
		<path fill="none" stroke="#6ECE6B" stroke-width="4" stroke-linecap="round" stroke-linejoin="round" stroke-miterlimit="10" d="
			M798.75,282.5c0.906,4.359-3.237,3.107-5,4.5"/>
		<path fill="none" stroke="#6ECE6B" stroke-width="4" stroke-linecap="round" stroke-linejoin="round" stroke-miterlimit="10" d="
			M292.75,717c-2.667,0.167-5.333,0.333-8,0.5"/>
		<path fill="none" stroke="#6ECE6B" stroke-width="4" stroke-linecap="round" stroke-linejoin="round" stroke-miterlimit="10" d="
			M721.25,347.5c2,2.333,4,4.667,6,7"/>
		<path fill="none" stroke="#6ECE6B" stroke-width="4" stroke-linecap="round" stroke-linejoin="round" stroke-miterlimit="10" d="
			M794.75,549c-3.909-0.991-5.063,1.079-5,4.5"/>
		<path fill="none" stroke="#6ECE6B" stroke-width="4" stroke-linecap="round" stroke-linejoin="round" stroke-miterlimit="10" d="
			M118,160c-2.417,1.167-4.833,2.333-7.25,3.5"/>
		<path fill="none" stroke="#6ECE6B" stroke-width="4" stroke-linecap="round" stroke-linejoin="round" stroke-miterlimit="10" d="
			M134.75,791c-2,1.333-4,2.667-6,4"/>
		<path fill="none" stroke="#6ECE6B" stroke-width="4" stroke-linecap="round" stroke-linejoin="round" stroke-miterlimit="10" d="
			M776.75,208.5c-3.333,1-6.667,2-10,3"/>
		<path fill="none" stroke="#6ECE6B" stroke-width="4" stroke-linecap="round" stroke-linejoin="round" stroke-miterlimit="10" d="
			M620.75,389c-1.828,0.936-5.158-0.273-5,3.5"/>
		<path fill="none" stroke="#6ECE6B" stroke-width="4" stroke-linecap="round" stroke-linejoin="round" stroke-miterlimit="10" d="
			M48.75,747.5c-3.773-0.158-2.564,3.172-3.5,5"/>
		<path fill="none" stroke="#6ECE6B" stroke-width="4" stroke-linecap="round" stroke-linejoin="round" stroke-miterlimit="10" d="
			M667.25,575.5c-1.667,2-3.333,4-5,6"/>
		<path fill="none" stroke="#6ECE6B" stroke-width="4" stroke-linecap="round" stroke-linejoin="round" stroke-miterlimit="10" d="
			M158.75,509.5c-1.167,1.667-2.333,3.333-3.5,5"/>
		<path fill="none" stroke="#6ECE6B" stroke-width="4" stroke-linecap="round" stroke-linejoin="round" stroke-miterlimit="10" d="
			M469.75,121c-1.667,1.167-3.333,2.333-5,3.5"/>
		<path fill="none" stroke="#6ECE6B" stroke-width="4" stroke-linecap="round" stroke-linejoin="round" stroke-miterlimit="10" d="
			M743.25,130.5c-1.333,1.667-2.667,3.333-4,5"/>
		<path fill="none" stroke="#6ECE6B" stroke-width="4" stroke-linecap="round" stroke-linejoin="round" stroke-miterlimit="10" d="
			M36.75,237.5c-1.167,1.667-2.333,3.333-3.5,5"/>
		<path fill="none" stroke="#6ECE6B" stroke-width="4" stroke-linecap="round" stroke-linejoin="round" stroke-miterlimit="10" d="
			M468.25,326.5c-1.838,1.164-4.684,1.723-3,5"/>
		<path fill="none" stroke="#6ECE6B" stroke-width="4" stroke-linecap="round" stroke-linejoin="round" stroke-miterlimit="10" d="
			M102.75,209c3.5,0.667,7,1.333,10.5,2"/>
		<path fill="none" stroke="#6ECE6B" stroke-width="4" stroke-linecap="round" stroke-linejoin="round" stroke-miterlimit="10" d="
			M352.25,263.5c-2.167,1.833-4.956,3.281-6.378,5.576c-3.59,5.794-1.183,12.644,4.878,15.424c5.504,2.525,11.112,0.121,14-6
			c2.656-5.63-0.082-12.777-6.035-14.902c-1.774-0.633-3.965-0.098-5.965-0.098"/>
		<path fill="none" stroke="#6ECE6B" stroke-width="4" stroke-linecap="round" stroke-linejoin="round" stroke-miterlimit="10" d="
			M260.25,43.5c-3.296,1.16-6.393,2.381-8.055,5.975c-2.524,5.457-0.546,12.499,4.555,15.025c5.739,2.843,12.011,0.334,15-6
			c2.579-5.466,0.335-11.379-5.526-13.94c-1.662-0.726-3.64-0.727-5.474-1.06"/>
		<path fill="none" stroke="#6ECE6B" stroke-width="4" stroke-linecap="round" stroke-linejoin="round" stroke-miterlimit="10" d="
			M384.25,640.5c-5.207,1.905-9.586,4.462-9.522,11c0.053,5.347,3.944,10.295,9.025,10.979c5.05,0.679,9.776-1.246,11.981-6.985
			c2.842-7.398-2.223-14.255-10.983-14.994"/>
		<path fill="none" stroke="#6ECE6B" stroke-width="4" stroke-linecap="round" stroke-linejoin="round" stroke-miterlimit="10" d="
			M396.25,576.5c-6.346,1.988-10.971,5.444-12.588,12.48c-1.771,7.708,2.003,14.635,8.996,18.679
			c8.719,5.042,20.294-2.044,22.665-9.636c2.58-8.259-2.933-19.14-11.596-21.436c-2.18-0.578-4.644-0.087-6.977-0.087"/>
		<path fill="none" stroke="#6ECE6B" stroke-width="4" stroke-linecap="round" stroke-linejoin="round" stroke-miterlimit="10" d="
			M652.25,143.5c-9.22,4.184-9.683,9.86-7.455,15.482c1.602,4.044,8.382,7.54,11.955,6.518c5.647-1.616,9.733-7.033,8.942-12.492
			c-0.792-5.461-4.418-9.041-10.442-9.5c-0.828-0.063-1.666-0.009-2.499-0.009"/>
		<path fill="none" stroke="#6ECE6B" stroke-width="4" stroke-linecap="round" stroke-linejoin="round" stroke-miterlimit="10" d="
			M107.75,576.5c-5.195,4.617-5.995,8.732-1.935,11.917c1.861,1.46,3.864,3.327,7.021,1.21c3.176-2.13,4.688-4.331,3.948-8.134
			c-0.614-3.158-2.604-4.565-5.537-4.972c-0.981-0.136-1.997-0.021-2.997-0.021"/>
		<path fill="none" stroke="#6ECE6B" stroke-width="4" stroke-linecap="round" stroke-linejoin="round" stroke-miterlimit="10" d="
			M592.25,75.5c-1.833,1.667-3.991,3.094-5.433,5.049c-3.08,4.176-2.588,8.534,0.933,12.451c3.327,3.7,8.999,4.791,13,2.5
			c4.834-2.769,7.287-7.879,6-12.5c-1.138-4.084-5.877-7.471-10.5-7.499c-1.167-0.007-2.333-0.001-3.5-0.001"/>
		<path fill="none" stroke="#6ECE6B" stroke-width="4" stroke-linecap="round" stroke-linejoin="round" stroke-miterlimit="10" d="
			M436.25,503.5c-7.23,2.696-12.236,7.252-12.476,15.501c-0.245,8.423,5.195,14.588,13.458,16.576
			c9.839,2.366,19.768-6.353,19.553-16.077c-0.196-8.88-7.17-15.987-16.035-15.999c-1.333-0.002-2.667,0-4,0"/>
		<path fill="none" stroke="#6ECE6B" stroke-width="4" stroke-linecap="round" stroke-linejoin="round" stroke-miterlimit="10" d="
			M235.25,628.5c-10.741,4.8-9.752,12.394-5.993,17.495c2.578,3.499,8.713,5.187,12.493,3.505c4.731-2.106,8.003-7.947,7-12.5
			c-0.983-4.466-5.84-8.4-10.5-8.497c-0.833-0.017-1.667-0.003-2.5-0.003"/>
		<path fill="none" stroke="#6ECE6B" stroke-width="4" stroke-linecap="round" stroke-linejoin="round" stroke-miterlimit="10" d="
			M756.75,712c-5.1,1.979-6.765,6.498-3.5,9.5c2.393,2.2,5.819,1.771,8-1c2.299-2.922,2.02-5.365-1.025-7.463
			c-0.834-0.575-1.975-0.703-2.975-1.037"/>
		<path fill="none" stroke="#6ECE6B" stroke-width="4" stroke-linecap="round" stroke-linejoin="round" stroke-miterlimit="10" d="
			M159.75,415.5c-6.766,3.729-9.584,8.662-8,14c1.376,4.636,8.13,8.959,12.5,8c5.279-1.159,9.968-7.081,9.5-12
			c-0.505-5.31-5.531-9.882-11-9.998c-0.833-0.018-1.667-0.002-2.5-0.002"/>
		<path fill="none" stroke="#6ECE6B" stroke-width="4" stroke-linecap="round" stroke-linejoin="round" stroke-miterlimit="10" d="
			M466.25,319.5c-6.746,3.311-10.055,8.76-8.5,14c1.396,4.703,8.053,8.963,12.5,8c4.865-1.054,9.932-7.455,9.5-12
			c-0.529-5.561-5.248-9.853-11-9.998c-0.666-0.017-1.333-0.002-2-0.002"/>
		<path fill="none" stroke="#6ECE6B" stroke-width="4" stroke-linecap="round" stroke-linejoin="round" stroke-miterlimit="10" d="
			M618.25,381.5c-5.408,1.982-9.871,4.629-9.545,11.502c0.231,4.858,3.697,9.906,8.051,10.45c6.993,0.873,10.97-1.576,12.956-7.465
			c2.39-7.09-1.773-12.456-10.962-14.487"/>
		<path fill="none" stroke="#6ECE6B" stroke-width="4" stroke-linecap="round" stroke-linejoin="round" stroke-miterlimit="10" d="
			M728.25,546.5c-7.642,2.798-9.746,5.567-9.5,12.5c0.164,4.625,4.739,9.199,9.5,9.5c6.081,0.384,10.471-2.813,11.538-7.992
			c1.472-7.147-2.223-12.791-11.038-14.008"/>
		<path fill="none" stroke="#6ECE6B" stroke-width="4" stroke-linecap="round" stroke-linejoin="round" stroke-miterlimit="10" d="
			M395.25,503.5c-5.762,2.392-10.291,5.588-11.615,12.478c-1.659,8.637,3.23,17.463,11.614,19.523
			c10.164,2.498,17.444-3.486,20.413-11.036c2.836-7.212-2.453-17.475-10.461-20.329c-2.863-1.02-6.285-0.47-9.451-0.637"/>
		<path fill="none" stroke="#6ECE6B" stroke-width="4" stroke-linecap="round" stroke-linejoin="round" stroke-miterlimit="10" d="
			M760.25,626.5c-7.921,3.887-10.402,8.849-7.5,15c2.114,4.481,6.963,7.566,11,7c4.688-0.657,9.343-5.312,10-10
			c0.949-6.766-4.722-12-13-12"/>
		<path fill="none" stroke="#6ECE6B" stroke-width="4" stroke-linecap="round" stroke-linejoin="round" stroke-miterlimit="10" d="
			M487.25,546.5c-5.207,1.905-9.575,4.462-9.525,11c0.041,5.482,3.549,10.313,8.53,10.962c5.348,0.696,9.917-0.875,12.509-6.956
			c2.448-5.743-1.388-14.232-11.014-15.006"/>
		<path fill="none" stroke="#6ECE6B" stroke-width="4" stroke-linecap="round" stroke-linejoin="round" stroke-miterlimit="10" d="
			M275.25,767.5c-3.862,2.028-8.046,3.3-8.671,8.981c-0.507,4.607,1.017,9.798,5.171,12.019c4.212,2.252,10.168,0.929,13.5-3
			c2.932-3.457,3.55-9.846,0.963-12.969c-2.662-3.213-5.904-5.588-10.463-5.031"/>
		<path fill="none" stroke="#6ECE6B" stroke-width="4" stroke-linecap="round" stroke-linejoin="round" stroke-miterlimit="10" d="
			M29.25,502.5c-2.5,2-5.575,3.589-7.367,6.095c-2.783,3.893-0.684,11.071,3.367,13.905c4.301,3.009,11.183,2.297,14.5-1.5
			c3.805-4.356,3.932-10.489,0.527-14.523c-2.823-3.345-6.359-4.398-10.527-3.977"/>
		<path fill="none" stroke="#6ECE6B" stroke-width="4" stroke-linecap="round" stroke-linejoin="round" stroke-miterlimit="10" d="
			M407.25,771.5c-4.88,1.594-7.953,4.737-8.495,10.001c-0.506,4.915,2.003,8.17,6.002,10.486c4.172,2.416,9.891,1.316,13.492-2.487
			c2.878-3.038,3.153-9.961,0.495-13.496c-2.761-3.672-6.501-5.026-10.995-4.504"/>
		<path fill="none" stroke="#6ECE6B" stroke-width="4" stroke-linecap="round" stroke-linejoin="round" stroke-miterlimit="10" d="
			M566.75,470.5c-6.302,4.755-6.664,9.872-1.016,13.029c2.557,1.43,4.747,1.096,7.028-0.513c2.862-2.018,3.668-4.974,2.869-7.984
			c-0.697-2.624-2.603-4.723-5.881-4.539c-0.831,0.047-1.666,0.007-2.5,0.007"/>
		<path fill="none" stroke="#6ECE6B" stroke-width="4" stroke-linecap="round" stroke-linejoin="round" stroke-miterlimit="10" d="
			M313.75,437c-8.745,2.484-12.503,9.164-9,16c2.175,4.244,7.586,6.533,13,5.5c3.619-0.691,8-6.44,8-10.5
			c0-4.436-3.946-9.331-8.503-10.488c-0.979-0.249-1.997-0.345-2.997-0.512"/>
		<path fill="none" stroke="#6ECE6B" stroke-width="4" stroke-linecap="round" stroke-linejoin="round" stroke-miterlimit="10" d="
			M210.25,157.5c-5.069,1.779-9.399,4.179-9.516,10.5c-0.099,5.345,3.805,10.709,8.516,11.5c6.256,1.051,11.246-2.404,13-9
			c1.184-4.452-2.027-10.042-7.013-11.967c-1.417-0.547-2.987-0.699-4.487-1.033"/>
		<path fill="none" stroke="#6ECE6B" stroke-width="4" stroke-linecap="round" stroke-linejoin="round" stroke-miterlimit="10" d="
			M702.25,617.5c-2.167,1.667-4.861,2.955-6.388,5.081c-2.974,4.14-2.061,9.657,1.922,13.383c4.387,4.104,7.81,4.382,12.441,1.988
			c4.568-2.361,6.75-7.903,5.525-12.952c-0.983-4.051-5.663-7.396-10.5-7.497c-0.833-0.017-1.667-0.003-2.5-0.003"/>
		<path fill="none" stroke="#6ECE6B" stroke-width="4" stroke-linecap="round" stroke-linejoin="round" stroke-miterlimit="10" d="
			M493.25,666.5c-4.027,1.41-8.098,2.278-9.643,7.457c-1.515,5.08-0.173,10.49,4.643,13.543c3.79,2.402,10.417,0.982,14-3
			c3.167-3.52,3.44-9.327,0.484-12.987c-2.299-2.846-5.4-4.398-8.984-5.013"/>
		<path fill="none" stroke="#6ECE6B" stroke-width="4" stroke-linecap="round" stroke-linejoin="round" stroke-miterlimit="10" d="
			M416.75,539.5c-5.728,2.136-10.48,5.202-12.542,11.486c-2.814,8.578,2.711,19.273,12.069,21.393
			c9.539,2.161,18.054-4.832,19.501-12.874c2.142-11.907-5.281-20.005-18.528-20.005"/>
		<path fill="none" stroke="#6ECE6B" stroke-width="4" stroke-linecap="round" stroke-linejoin="round" stroke-miterlimit="10" d="
			M259.75,724.5c-3.438,1.218-6.499,2.891-8.003,6.499c-1.853,4.447-0.55,10.128,3.003,13.001c3.905,3.158,8.508,3.335,13,0.5
			c3.91-2.468,6.199-7.961,5-12c-1.237-4.168-5.938-7.754-10.5-7.995c-0.665-0.035-1.333-0.005-2-0.005"/>
		<path fill="none" stroke="#6ECE6B" stroke-width="4" stroke-linecap="round" stroke-linejoin="round" stroke-miterlimit="10" d="
			M541.75,609c-5.173,0.669-8.961,3.092-9.964,8.507c-0.988,5.337,0.905,9.598,4.964,11.993c3.094,1.825,8.978,1.335,12-1
			c3.795-2.932,5.516-7.402,3.924-11.974c-1.506-4.323-4.203-6.991-9.424-7.048c-0.335-0.004-0.667-0.312-1-0.479"/>
		<path fill="none" stroke="#6ECE6B" stroke-width="4" stroke-linecap="round" stroke-linejoin="round" stroke-miterlimit="10" d="
			M556.25,394.5c-4.922,1.412-8.736,4.056-9.462,9.505c-0.852,6.394,2.862,10.772,8.484,12.42
			c5.155,1.511,10.892-2.465,12.978-8.425c1.655-4.729-1.079-10.126-6.521-12.451c-1.53-0.654-3.312-0.716-4.979-1.049"/>
		<path fill="none" stroke="#6ECE6B" stroke-width="4" stroke-linecap="round" stroke-linejoin="round" stroke-miterlimit="10" d="
			M779.25,377.5c-2.725,1.527-5.91,1.971-7.627,5.437c-2.37,4.786-2.58,8.842,0.627,12.563c3.057,3.547,8.248,5.099,11.996,3.49
			c5.422-2.328,8.066-6.87,7.522-11.492c-0.689-5.85-4.883-9.396-12.017-9.998"/>
		<path fill="none" stroke="#6ECE6B" stroke-width="4" stroke-linecap="round" stroke-linejoin="round" stroke-miterlimit="10" d="
			M188.75,279.5c-2.251,0.916-3.734,2.679-2.851,4.942c0.515,1.319,2.486,2.797,3.86,2.857c1.461,0.063,3.502-1.108,4.386-2.372
			c1.892-2.705-0.294-5.014-4.895-5.426"/>
		<path fill="none" stroke="#6ECE6B" stroke-width="4" stroke-linecap="round" stroke-linejoin="round" stroke-miterlimit="10" d="
			M506.25,168.5c-4.581,1.753-8.901,3.754-9.504,9.5c-0.679,6.471,2.961,10.812,8.526,12.424c5.411,1.567,10.791-2.175,12.978-8.423
			c1.575-4.501-1.194-9.989-6.525-12.445c-1.502-0.692-3.308-0.721-4.975-1.055"/>
		<path fill="none" stroke="#6ECE6B" stroke-width="4" stroke-linecap="round" stroke-linejoin="round" stroke-miterlimit="10" d="
			M543.75,484.5c-6.082,3.755-6.904,9.878-1.417,12.846c1.805,0.976,4.937,0.888,6.831-0.024c2.633-1.268,4.156-3.98,3.601-7.325
			c-0.491-2.956-2.416-4.594-5.033-5.441c-1.056-0.342-2.315-0.056-3.482-0.056"/>
		<path fill="none" stroke="#6ECE6B" stroke-width="4" stroke-linecap="round" stroke-linejoin="round" stroke-miterlimit="10" d="
			M376.25,539.5c-6.108,1.978-10.835,5.022-12.628,11.967c-1.975,7.651,0.683,15.367,7.628,19.033
			c7.27,3.837,15.695,2.102,20.527-3.979c4.498-5.66,5.352-11.537,1.988-18.029c-3.612-6.972-9.596-9.301-17.015-8.992"/>
		<path fill="none" stroke="#6ECE6B" stroke-width="4" stroke-linecap="round" stroke-linejoin="round" stroke-miterlimit="10" d="
			M474.75,605.5c-6.848,4.008-9.558,8.751-8,14c1.342,4.521,8.225,8.926,12.5,8c4.663-1.01,9.783-7.209,9.5-11.5
			c-0.39-5.919-5.053-10.372-11-10.498c-0.833-0.018-1.667-0.002-2.5-0.002"/>
		<path fill="none" stroke="#6ECE6B" stroke-width="4" stroke-linecap="round" stroke-linejoin="round" stroke-miterlimit="10" d="
			M18.25,382.5c-7.251,3.996-9.631,8.358-8.04,14.011c1.372,4.876,6.561,8.938,12.532,7.936c5.176-0.869,9.423-6.54,9.009-11.447
			c-0.509-6.04-5.021-10.347-11-10.498c-0.666-0.017-1.333-0.002-2-0.002"/>
		<path fill="none" stroke="#6ECE6B" stroke-width="4" stroke-linecap="round" stroke-linejoin="round" stroke-miterlimit="10" d="
			M406.25,24.5c-8.59,4.735-10.537,12.737-4.5,18.5c3.671,3.504,8.736,4.089,13,1.5c4.205-2.553,6.404-8.27,5-13
			c-1.256-4.232-5.346-6.959-10.5-6.999c-0.833-0.006-1.667-0.001-2.5-0.001"/>
		<path fill="none" stroke="#6ECE6B" stroke-width="4" stroke-linecap="round" stroke-linejoin="round" stroke-miterlimit="10" d="
			M741.25,123.5c-4.956,2.265-9.144,4.942-8.564,11.506c0.406,4.597,3.997,9.386,8.564,10.494c4.072,0.988,9.002-2.102,11.593-5.937
			c4.975-7.364-2.397-17.386-11.093-16.063"/>
		<path fill="none" stroke="#6ECE6B" stroke-width="4" stroke-linecap="round" stroke-linejoin="round" stroke-miterlimit="10" d="
			M480.25,383.5c-2.5,1.667-5.591,2.86-7.381,5.096c-4.111,5.136-2.476,11.244,3.381,14.905c5.916,3.698,12.414,2.143,15.452-4.023
			c2.857-5.797,0.48-12.088-4.973-14.428c-1.87-0.803-3.979-1.048-5.979-1.548"/>
		<path fill="none" stroke="#6ECE6B" stroke-width="4" stroke-linecap="round" stroke-linejoin="round" stroke-miterlimit="10" d="
			M46.25,740.5c-2.5,2.167-5.761,3.892-7.331,6.598c-2.725,4.694-1.084,8.856,3.831,12.902c2.907,2.393,9.39,2.652,12.5,0.5
			c3.292-2.278,5.458-8.053,4.5-12c-1.101-4.537-5.502-7.893-10.5-7.998c-0.833-0.017-1.667-0.002-2.5-0.002"/>
		<path fill="none" stroke="#6ECE6B" stroke-width="4" stroke-linecap="round" stroke-linejoin="round" stroke-miterlimit="10" d="
			M122.75,234c-3.652,0.493-6.814,1.61-9.055,4.963c-3.087,4.617-2.508,10.794,2.086,14.499c4.127,3.328,10.951,3.6,15.028-1.414
			c3.793-4.664,4.192-10.007-0.14-13.959c-2.028-1.85-4.919-2.755-7.419-4.088"/>
	</g>
	<path fill="none" stroke="#6ECE6B" stroke-width="4" stroke-linecap="round" stroke-linejoin="round" stroke-miterlimit="10" d="
		M118.75,429.75c-3.334,0-6.667,0-9.75,0"/>
</g>
</svg>
