<?xml version="1.0" encoding="utf-8"?>
<!-- Generator: Adobe Illustrator 17.1.0, SVG Export Plug-In . SVG Version: 6.00 Build 0)  -->
<!DOCTYPE svg PUBLIC "-//W3C//DTD SVG 1.1//EN" "http://www.w3.org/Graphics/SVG/1.1/DTD/svg11.dtd">
<svg version="1.1" id="Layer_1" xmlns="http://www.w3.org/2000/svg" xmlns:xlink="http://www.w3.org/1999/xlink" x="0px" y="0px"
	 viewBox="0 0 64.833 38.333" enable-background="new 0 0 64.833 38.333" xml:space="preserve">
<path d="M63.833,12.146h-7.5c-0.552,0-1,0.474-1,1.058v0.087c-1.328,0-2.871,0-4.667,0c-4.25,0-10.003-0.409-14.708-3.75
	C31.253,6.201,26.833,0,19.333,0S0,0,0,0v17.667v3v17.667c0,0,11.833,0,19.333,0s11.92-6.201,16.625-9.542
	c4.705-3.341,10.458-3.75,14.708-3.75c1.796,0,3.339,0,4.667,0v0.025c0,0.584,0.448,1.058,1,1.058h7.5c0.552,0,1-0.474,1-1.058
	V13.204C64.833,12.62,64.386,12.146,63.833,12.146z"/>
</svg>
