<?xml version="1.0" encoding="utf-8"?>
<!-- Generator: Adobe Illustrator 17.1.0, SVG Export Plug-In . SVG Version: 6.00 Build 0)  -->
<!DOCTYPE svg PUBLIC "-//W3C//DTD SVG 1.1//EN" "http://www.w3.org/Graphics/SVG/1.1/DTD/svg11.dtd">
<svg version="1.1" xmlns="http://www.w3.org/2000/svg" xmlns:xlink="http://www.w3.org/1999/xlink" x="0px" y="0px"
	 viewBox="0 0 198.425 198.425" enable-background="new 0 0 198.425 198.425" xml:space="preserve">
<g>
</g>
<g>
	<rect x="0.987" y="121.443" fill="#B25655" width="195.946" height="13.717"/>
	<g>
		<g>
			<path d="M10.103,131.166l0.826-0.155v-5.015l-0.838-0.154v-0.875h1.621c0.116,0,0.267,0,0.454,0c0.186,0,0.388,0,0.605,0
				s0.439,0,0.665,0c0.226,0,0.436,0,0.63,0c0.638,0,1.155,0.041,1.55,0.124c0.395,0.085,0.704,0.195,0.925,0.334
				c0.221,0.139,0.372,0.303,0.451,0.492c0.078,0.189,0.118,0.387,0.118,0.593c0,0.37-0.108,0.699-0.323,0.982
				c-0.216,0.285-0.555,0.497-1.019,0.636c0.323,0.027,0.607,0.096,0.851,0.203c0.244,0.107,0.448,0.237,0.612,0.391
				c0.163,0.153,0.286,0.321,0.369,0.505c0.083,0.181,0.124,0.363,0.124,0.544c0,0.341-0.06,0.649-0.18,0.928
				c-0.12,0.28-0.322,0.517-0.608,0.715c-0.286,0.196-0.668,0.349-1.147,0.457c-0.478,0.109-1.076,0.164-1.792,0.164
				c-0.186,0-0.395,0-0.627,0s-0.461,0-0.687,0c-0.226,0-0.434,0-0.624,0c-0.191,0-0.338,0-0.441,0h-1.516V131.166z M13.743,127.848
				c0.269,0,0.49-0.035,0.664-0.107c0.174-0.071,0.311-0.164,0.41-0.276c0.099-0.114,0.168-0.244,0.205-0.388
				c0.037-0.147,0.056-0.292,0.056-0.439c0-0.13-0.019-0.25-0.056-0.358c-0.037-0.108-0.104-0.198-0.199-0.271
				c-0.095-0.073-0.224-0.132-0.385-0.173c-0.162-0.042-0.367-0.062-0.615-0.062h-0.913v2.073H13.743z M12.911,131.11
				c0.033,0.02,0.089,0.036,0.168,0.048c0.079,0.012,0.165,0.02,0.258,0.02c0.093,0,0.186,0,0.28,0c0.093,0,0.173,0,0.239,0
				c0.302,0,0.555-0.03,0.757-0.087c0.203-0.057,0.365-0.142,0.488-0.251c0.122-0.108,0.209-0.239,0.261-0.388
				c0.052-0.152,0.078-0.318,0.078-0.505c0-0.425-0.119-0.741-0.357-0.95c-0.238-0.208-0.633-0.311-1.183-0.311h-0.988V131.11z"/>
			<path d="M33.904,131.203l0.82-0.118v-5.15l-0.807-0.16v-0.808h3.733v0.813l-0.901,0.155v3.665l0.721-0.945l2.267-2.348v-0.367
				l-0.9-0.162v-0.813h3.727v0.813l-0.802,0.155v5.144l0.858,0.129v0.828h-3.783v-0.828l0.9-0.135v-3.634l-0.689,0.956l-2.299,2.38
				v0.354l0.826,0.067l-0.006,0.84h-3.665V131.203z"/>
			<path d="M58.967,131.203l0.826-0.124v-5.138l-0.838-0.162v-0.813h3.721v0.813l-0.851,0.155v1.975h2.783v-1.975l-0.858-0.155
				v-0.813h3.709v0.813l-0.82,0.162v5.138l0.826,0.124v0.833h-3.727v-0.833l0.87-0.124v-2.254h-2.783v2.254l0.87,0.124v0.833h-3.727
				V131.203z"/>
			<path d="M83.681,128.546c0-0.599,0.097-1.123,0.292-1.573c0.195-0.45,0.456-0.823,0.785-1.121
				c0.329-0.297,0.708-0.519,1.137-0.669c0.428-0.149,0.877-0.224,1.345-0.224c0.534,0,1.01,0.081,1.429,0.241
				c0.418,0.162,0.771,0.392,1.059,0.694c0.288,0.301,0.508,0.667,0.662,1.099c0.153,0.433,0.23,0.92,0.23,1.464
				c0,0.618-0.098,1.152-0.292,1.602c-0.194,0.45-0.455,0.821-0.783,1.115c-0.327,0.293-0.706,0.512-1.137,0.654
				c-0.431,0.143-0.88,0.214-1.348,0.214c-0.534,0-1.01-0.08-1.429-0.241c-0.419-0.159-0.772-0.39-1.06-0.691
				c-0.288-0.302-0.508-0.669-0.661-1.101C83.758,129.575,83.681,129.088,83.681,128.546z M87.172,131.154
				c0.426,0,0.742-0.206,0.947-0.616c0.205-0.41,0.308-1.054,0.308-1.934c0-0.445-0.023-0.839-0.068-1.181
				c-0.045-0.343-0.12-0.629-0.224-0.862c-0.103-0.232-0.236-0.409-0.398-0.529c-0.161-0.122-0.36-0.183-0.596-0.183
				c-0.431,0-0.752,0.205-0.963,0.615c-0.211,0.41-0.316,1.056-0.316,1.935c0,0.446,0.025,0.839,0.075,1.182
				c0.049,0.341,0.127,0.629,0.232,0.86c0.106,0.234,0.242,0.41,0.407,0.532C86.742,131.093,86.941,131.154,87.172,131.154z"/>
			<path d="M107.837,131.203l1.558-0.161v-5.262l-1.235,0.143l-0.379,1.987h-1.224l0.112-2.943h7.412l0.117,2.943h-1.211
				l-0.405-1.987l-1.155-0.143v5.268l1.609,0.155v0.833h-5.2V131.203z"/>
			<path d="M130.215,128.524c0-0.559,0.083-1.059,0.249-1.499c0.167-0.44,0.4-0.813,0.706-1.119
				c0.303-0.306,0.669-0.539,1.094-0.702c0.424-0.163,0.895-0.245,1.412-0.245c0.882,0,1.555,0.206,2.016,0.618
				c0.462,0.411,0.704,0.994,0.723,1.749c0,0.263-0.006,0.492-0.021,0.686c-0.014,0.194-0.039,0.368-0.071,0.52h-4.013
				c0.025,0.394,0.087,0.733,0.185,1.017c0.099,0.283,0.231,0.517,0.393,0.698c0.162,0.181,0.349,0.317,0.564,0.404
				c0.216,0.087,0.455,0.13,0.716,0.13c0.164,0,0.334-0.017,0.508-0.05c0.174-0.033,0.34-0.076,0.501-0.127
				c0.159-0.052,0.306-0.109,0.44-0.171c0.134-0.062,0.25-0.122,0.346-0.18l0.36,0.77c-0.099,0.108-0.244,0.221-0.429,0.342
				c-0.186,0.119-0.401,0.229-0.643,0.328c-0.244,0.099-0.505,0.184-0.787,0.249c-0.282,0.067-0.569,0.099-0.864,0.099
				c-0.596,0-1.107-0.086-1.534-0.258c-0.428-0.172-0.778-0.415-1.054-0.726c-0.275-0.311-0.477-0.682-0.604-1.114
				C130.28,129.513,130.215,129.041,130.215,128.524z M134.433,127.681c0-0.057,0.001-0.132,0.003-0.224
				c0.002-0.092,0.004-0.167,0.004-0.224c0-0.205-0.016-0.393-0.046-0.563c-0.032-0.17-0.085-0.317-0.162-0.441
				c-0.077-0.124-0.179-0.221-0.304-0.291c-0.127-0.068-0.282-0.103-0.469-0.103c-0.161,0-0.313,0.025-0.451,0.075
				c-0.138,0.05-0.26,0.143-0.364,0.28c-0.102,0.137-0.185,0.324-0.247,0.564c-0.062,0.239-0.098,0.547-0.106,0.927H134.433z"/>
			<path d="M152.638,131.216l0.82-0.117v-5.164l-0.808-0.155v-0.813h3.629v0.813l-0.803,0.162v1.976h1.206l1.23-1.989l-0.87-0.149
				v-0.813h3.392v0.813l-1,0.157l-1.602,2.151c0.211,0.103,0.404,0.245,0.578,0.421c0.174,0.177,0.333,0.369,0.477,0.579
				c0.145,0.21,0.278,0.424,0.401,0.641c0.122,0.219,0.237,0.42,0.348,0.605c0.109,0.185,0.212,0.343,0.311,0.474
				c0.097,0.132,0.195,0.214,0.294,0.246l0.572,0.144v0.838h-2.076c-0.139,0-0.27-0.047-0.388-0.14
				c-0.117-0.093-0.227-0.217-0.328-0.373c-0.102-0.155-0.199-0.332-0.29-0.528c-0.091-0.196-0.181-0.398-0.27-0.602
				c-0.089-0.206-0.181-0.406-0.273-0.604c-0.094-0.196-0.191-0.373-0.293-0.527c-0.101-0.155-0.211-0.28-0.332-0.373
				c-0.121-0.093-0.25-0.139-0.391-0.139h-0.696v2.349l0.982,0.117v0.82h-3.82V131.216z"/>
			<path d="M176.515,131.203l0.82-0.118v-5.15l-0.808-0.16v-0.808h3.733v0.813l-0.902,0.155v3.665l0.721-0.945l2.267-2.348v-0.367
				l-0.9-0.162v-0.813h3.726v0.813l-0.8,0.155v5.144l0.857,0.129v0.828h-3.783v-0.828l0.9-0.135v-3.634l-0.689,0.956l-2.299,2.38
				v0.354l0.828,0.067l-0.007,0.84h-3.664V131.203z"/>
		</g>
		<g>
			<g>
				<g>
					<path fill="#FFFFFF" d="M1.532,113.481v-0.803h1.102c1.239,0,2.118-0.393,2.635-1.188c0.318-0.476,0.475-1.539,0.475-3.199
						V89.363c0-1.827-0.2-2.973-0.605-3.431c-0.562-0.634-1.397-0.951-2.505-0.951H1.532v-0.8H13.46c4.377,0,7.708,0.496,9.991,1.49
						c2.283,0.995,4.12,2.648,5.511,4.968c1.389,2.32,2.085,4.999,2.085,8.035c0,4.08-1.239,7.485-3.717,10.223
						c-2.779,3.052-7.015,4.584-12.705,4.584H1.532z M9.894,111.36c1.827,0.403,3.363,0.604,4.602,0.604
						c3.341,0,6.113-1.176,8.318-3.522c2.203-2.349,3.306-5.527,3.306-9.547c0-4.051-1.102-7.241-3.306-9.575
						c-2.205-2.332-5.035-3.498-8.493-3.498c-1.296,0-2.772,0.208-4.428,0.626V111.36z"/>
				</g>
				<g>
					<path fill="#FFFFFF" d="M92.83,84.181v0.8c-1.036,0.186-1.821,0.517-2.354,0.994c-0.765,0.703-1.44,1.784-2.031,3.237
						l-10.22,24.935h-0.8L66.448,88.889c-0.561-1.294-0.958-2.09-1.188-2.377c-0.36-0.446-0.803-0.795-1.329-1.046
						c-0.525-0.252-1.234-0.414-2.129-0.485v-0.8h11.971v0.8c-1.355,0.127-2.235,0.359-2.635,0.69
						c-0.406,0.331-0.606,0.754-0.606,1.273c0,0.721,0.332,1.846,0.995,3.372l7.454,17.176l6.914-16.961
						c0.677-1.671,1.015-2.829,1.015-3.479c0-0.418-0.21-0.817-0.628-1.197c-0.416-0.384-1.123-0.652-2.117-0.81
						c-0.071-0.015-0.193-0.037-0.365-0.065v-0.8H92.83z"/>
				</g>
				<g>
					<path fill="#FFFFFF" d="M129.429,84.181h7.952l17.908,21.974V89.255c0-1.8-0.201-2.922-0.604-3.369
						c-0.531-0.605-1.375-0.905-2.53-0.905h-1.014v-0.8h10.202v0.8H160.3c-1.236,0-2.111,0.373-2.632,1.122
						c-0.319,0.461-0.476,1.512-0.476,3.153v24.697h-0.776L137.099,90.36v18.042c0,1.797,0.19,2.923,0.582,3.366
						c0.543,0.607,1.388,0.91,2.527,0.91h1.039v0.803h-10.2v-0.803h1.018c1.25,0,2.135-0.37,2.653-1.121
						c0.318-0.465,0.476-1.511,0.476-3.154V88.025c-0.853-0.994-1.498-1.647-1.933-1.964c-0.44-0.318-1.085-0.612-1.931-0.887
						c-0.42-0.128-1.055-0.193-1.902-0.193V84.181z"/>
				</g>
				<g>
					<path fill="#FFFFFF" d="M181.591,83.51c3.803,0,7.098,1.444,9.889,4.331c2.788,2.889,4.181,6.492,4.181,10.816
						c0,4.448-1.403,8.142-4.217,11.08c-2.804,2.941-6.207,4.41-10.195,4.41c-4.034,0-7.422-1.429-10.169-4.298
						c-2.743-2.866-4.116-6.579-4.116-11.127c0-4.655,1.583-8.449,4.754-11.388C174.468,84.785,177.76,83.51,181.591,83.51z
						 M181.184,85.087c-2.625,0-4.726,0.974-6.311,2.917c-1.972,2.422-2.96,5.964-2.96,10.632c0,4.781,1.02,8.465,3.069,11.041
						c1.568,1.957,3.641,2.935,6.223,2.935c2.75,0,5.026-1.072,6.816-3.216c1.793-2.144,2.693-5.532,2.693-10.158
						c0-5.011-0.988-8.748-2.963-11.213C186.167,86.066,183.976,85.087,181.184,85.087z"/>
				</g>
				<path fill="#FFFFFF" d="M56.089,62.949l-0.985,3.543l0.104,0.411c0,0-2.234,6.821-3.422,8.911
					c-1.186,2.09-6.965,11.269-9.464,17.741c-2.499,6.472-4.892,15.945-4.892,15.945s-0.886,2.496,0.222,3.398
					c1.106,0.898,2.514,1.969,4.823,2.615c2.101,0.589,4.559,0.792,5.419,0.784c0.621-0.01,1.968-0.452,2.624-2.171
					c0.654-1.723,3.684-11.73,4.833-17.619c1.641-8.4,1.189-18.726,2.049-22.084c0.861-3.36,1.598-6.23,1.598-6.23l0.328-0.202
					l1.31-3.811c0,0-1.024-0.902-2.335-1.229C56.991,62.62,56.089,62.949,56.089,62.949z"/>
				<path fill="#FFFFFF" d="M59.344,55.122c0,0,0.971-0.081,1.661,0.165c1.03,0.367,1.475,0.861,1.475,0.861l-1.844,5.368
					c0,0-0.594,0.341-1.596,0c-1.219-0.414-1.435-0.903-1.435-0.903L59.344,55.122z"/>
				<path fill="#FFFFFF" d="M125.373,112.258c0,0-11.064-1.352-12.659-1.352c-1.601,0-1.352-2.827-1.352-2.827
					s-0.8-16.408,1.842-19.237c2.64-2.826,14.21-7.926,14.198-20.772c-0.014-9.529-2.519-16.163-2.519-16.163h-0.968
					c0,0,2.975,11.297,1.271,19.42c-1.77,8.467-9.954,15.01-14.624,15.427c-4.669-0.418-12.856-6.96-14.629-15.427
					c-1.698-8.124,1.276-19.42,1.276-19.42h-0.967c0,0-2.507,6.634-2.518,16.163c-0.016,12.846,11.554,17.946,14.194,20.772
					c2.645,2.829,1.842,19.237,1.842,19.237s0.25,2.827-1.348,2.827c-1.597,0-12.659,1.352-12.659,1.352s-1.414,0.124-1.414,0.675
					c0,0.554,16.225,0.762,16.225,0.762s16.227-0.208,16.227-0.762C126.789,112.382,125.373,112.258,125.373,112.258z"/>
				<path fill="#B25655" d="M112.468,62.375c-7.582-1.591-10.753-5.645-12.324-9.144l-1.198-0.034c0,0-9.096,23.846,11.717,32.123
					c5.063-2.014,8.357-4.952,10.44-8.242C122.428,72.077,122.589,64.497,112.468,62.375z"/>
			</g>
			<path fill="#B25655" d="M53.003,90.768c-2.757,2.339-5.662,2.914-7.61,3.135c-2.807,7.479-4.683,15.781-4.702,15.869
				l-0.019,0.085l-0.03,0.089c-0.102,0.291-0.169,0.701-0.155,0.916c0.733,0.589,1.522,1.137,2.793,1.49
				c1.361,0.383,2.944,0.512,3.462,0.512c0.06-0.017,0.354-0.103,0.549-0.612c0.05-0.134,0.105-0.271,0.166-0.427
				c0.515-1.335,1.38-3.562,2.976-9.117C51.42,99.263,52.377,94.558,53.003,90.768z"/>
		</g>
	</g>
</g>
</svg>
