<?xml version="1.0" encoding="utf-8"?>
<!-- Generator: Adobe Illustrator 16.0.3, SVG Export Plug-In . SVG Version: 6.00 Build 0)  -->
<!DOCTYPE svg PUBLIC "-//W3C//DTD SVG 1.1//EN" "http://www.w3.org/Graphics/SVG/1.1/DTD/svg11.dtd">
<svg version="1.1" xmlns="http://www.w3.org/2000/svg" xmlns:xlink="http://www.w3.org/1999/xlink" x="0px" y="0px" width="864px"
	 height="392px" viewBox="0 0 864 392" enable-background="new 0 0 864 392" xml:space="preserve">
<g>
</g>
<g id="Layer_1">
	<g>
		<path d="M48.628,198.595c0-4.681-0.54-30.239-0.9-32.939c-0.54-4.32-2.88-5.04-5.939-5.04h-9c-0.9,0-1.44-0.18-1.44-1.26v-5.22
			c0-0.72,0.54-0.9,1.26-0.9c2.34,0,10.259,0.54,28.259,0.54c4.68,0,22.679-0.54,26.819-0.54c24.479,0,43.918,2.16,61.018,16.379
			c11.879,9.899,20.159,24.839,20.159,45.719c0,20.699-5.94,34.378-17.819,47.338c-17.459,18.899-48.238,19.079-59.578,19.079
			c-2.88,0-24.119-0.54-34.019-0.54c-15.659,0-22.859,0.54-25.379,0.54c-0.9,0-1.26-0.36-1.26-1.62v-4.68
			c0-0.72,0.54-1.08,1.44-1.08h9.36c3.42,0,5.4-1.439,5.76-4.319c0.54-3.78,1.26-44.278,1.26-57.958V198.595z M75.627,216.054
			c0,2.34,0.18,32.938,0.36,44.098c0,3.601,0.72,6.48,3.06,9.9c2.16,3.239,8.28,4.319,14.399,4.319
			c10.439,0,24.299-5.22,33.659-17.639c7.2-9.54,12.779-24.3,12.779-41.039c0-14.759-6.12-29.879-14.579-39.238
			c-9.54-10.62-25.379-16.379-35.819-16.379c-5.04,0-7.74,0.18-10.08,1.44c-2.7,1.26-3.42,4.14-3.6,7.74
			c-0.18,7.56-0.18,31.139-0.18,34.019V216.054z"/>
	</g>
	<g>
		<path d="M357.928,154.496c0-0.9,0.18-1.26,1.08-1.26c1.62,0,9.899,0.54,21.959,0.54c16.739,0,21.239-0.54,22.859-0.54
			c1.08,0,1.26,0.36,1.26,1.62v4.5c0,0.72-0.18,1.26-1.26,1.26h-4.14c-3.06,0-8.64,1.26-13.319,9.36
			c-7.2,12.239-14.939,33.479-21.779,48.598c-4.5,9.72-24.839,57.958-27.899,63.178c-1.26,2.16-2.16,3.06-4.14,3.06
			c-2.34,0-3.06-2.16-4.14-4.5c-6.66-14.219-23.039-57.777-28.079-70.196c-5.04-12.42-14.04-38.519-16.2-43.559
			c-1.8-4.14-3.959-5.94-7.739-5.94h-4.68c-0.72,0-0.9-0.9-0.9-1.8v-4.32c0-0.9,0.18-1.26,1.26-1.26c1.8,0,7.74,0.54,29.339,0.54
			c18.719,0,26.819-0.54,28.438-0.54c1.62,0,1.8,0.54,1.8,1.62v4.14c0,0.9-0.18,1.62-1.44,1.62h-7.739c-4.32,0-7.74,1.98-7.74,4.32
			c0,1.44,0,3.6,0.54,6.12c1.44,6.479,8.279,27.898,12.059,38.338l13.68,40.139h0.72c5.22-12.06,14.04-34.559,16.379-41.038
			c3.42-8.82,9-23.939,11.88-32.039c1.8-4.68,1.8-7.74,1.8-9.899c0-2.16-2.16-5.94-7.38-5.94h-5.58c-0.72,0-0.9-0.54-0.9-1.62
			V154.496z"/>
	</g>
	<g>
		<path d="M670.795,228.833c0-16.02-0.18-24.839-0.541-33.839c-0.18-7.02-1.079-24.659-1.619-27.358c-1.08-4.5-5.4-7.02-9.539-7.02
			h-5.76c-0.9,0-1.08-0.54-1.08-1.62v-4.5c0-0.9,0.18-1.26,1.619-1.26c1.98,0,7.74,0.54,21.06,0.54c10.8,0,15.119-0.54,17.099-0.54
			c1.621,0,1.801,0.36,1.801,1.44v4.32c0,0.9-0.18,1.62-0.9,1.62h-5.039c-3.061,0-4.86,3.06-5.4,9.54
			c-1.26,12.06-4.141,52.738-4.141,76.497v30.778c0,2.7-0.18,5.94-2.699,5.94c-2.699,0-5.039-0.9-7.02-2.88
			c-3.061-2.88-11.879-12.42-22.68-25.199l-30.778-36.538c-3.06-3.601-27.899-34.559-32.038-40.499h-1.44v36.358
			c0,14.939,1.62,37.079,1.8,43.919c0.359,10.439,3.6,15.839,11.16,15.839h4.5c1.26,0,1.439,0.54,1.439,1.62v4.319
			c0,1.08-0.18,1.44-1.439,1.44c-1.801,0-12.6-0.54-21.061-0.54c-5.579,0-17.998,0.54-19.799,0.54c-0.72,0-0.9-0.36-0.9-1.62v-4.68
			c0-0.54,0.181-1.08,1.08-1.08h6.301c3.959,0,6.84-5.76,7.739-17.819c0.181-3.42,1.62-32.219,1.62-58.857v-16.199
			c0-10.62-6.48-20.699-15.479-20.879l-4.5-0.18c-0.899,0-1.079-0.72-1.079-1.26v-4.86c0-0.72,0.18-1.08,1.079-1.08
			s2.34,0.18,5.76,0.18c3.601,0.18,9.36,0.36,18.72,0.36c6.119,0,11.52-0.36,13.68-0.36c2.34,0,3.779,0.72,5.219,2.34l41.759,51.118
			l30.778,38.339h0.721V228.833z"/>
	</g>
	<g>
		<path d="M731.998,272.211c-12.779-7.739-26.459-27.179-26.459-53.457c0-10.98,2.88-28.079,16.739-44.818
			c15.839-19.259,36.179-22.859,52.378-22.859c14.939,0,28.799,2.34,43.918,14.22c13.68,10.8,24.659,28.979,24.659,53.817
			c0,13.14-4.14,26.819-13.499,39.419c-11.699,14.579-27,25.379-55.438,25.379C761.877,283.911,746.217,281.031,731.998,272.211z
			 M814.975,220.554c0-39.419-25.919-61.018-41.039-61.018c-3.6,0-12.599-0.9-23.578,9.719c-10.619,10.08-16.02,28.979-16.02,43.739
			c0,46.078,26.459,62.457,41.398,62.457C809.035,275.451,814.975,235.313,814.975,220.554z"/>
	</g>
	<path d="M251.667,75.667l-4,14.417l0.417,1.667c0,0-9.084,27.75-13.917,36.25s-28.333,45.834-38.5,72.167s-19.9,64.859-19.9,64.859
		s-3.601,10.142,0.899,13.808s10.227,8.03,19.623,10.649c8.544,2.382,18.544,3.216,22.044,3.184c2.522-0.023,8-1.833,10.667-8.833
		s14.99-47.701,19.667-71.667C255.333,178,253.5,136,257,122.333S263.5,97,263.5,97l1.333-0.833l5.333-15.5c0,0-4.167-3.667-9.5-5
		S251.667,75.667,251.667,75.667z"/>
	<path d="M264.905,43.827c0,0,3.953-0.327,6.762,0.673c4.188,1.491,6,3.5,6,3.5l-7.5,21.833c0,0-2.417,1.39-6.5,0
		c-4.952-1.686-5.833-3.667-5.833-3.667L264.905,43.827z"/>
	<g>
		<path fill="#940F1E" d="M246,171c-13.325,18.954-30.089,21.214-40.797,22.19c-12.453,32.06-20.697,68.83-20.697,68.83
			s-2.591,7.297,0.647,9.935s7.358,5.778,14.119,7.663c6.148,1.713,13.343,2.313,15.861,2.29c1.815-0.017,5.756-1.318,7.675-6.355
			c1.919-5.036,5.609-13.777,12.941-39.303c6.75-23.5,12.983-60.492,13.568-72.382C248.689,166.316,247.557,168.786,246,171z"/>
		<path fill="#FFFFFF" d="M240.437,186.044c-2.54,15.406-6.43,34.542-10.454,48.55c-6.493,22.604-10.008,31.664-12.108,37.078
			c-0.246,0.633-0.469,1.209-0.673,1.745c-0.787,2.066-1.99,2.438-2.231,2.492c-2.109-0.003-8.542-0.526-14.086-2.07
			c-5.165-1.44-8.377-3.673-11.36-6.065c-0.049-0.877,0.226-2.552,0.637-3.745l0.121-0.342l0.079-0.354
			c0.079-0.35,7.709-34.122,19.126-64.54C217.414,197.886,229.229,195.556,240.437,186.044 M249.318,163.868
			c-0.629,2.448-1.762,4.918-3.318,7.132c-13.325,18.954-30.089,21.214-40.797,22.19c-12.453,32.06-20.697,68.83-20.697,68.83
			s-2.591,7.297,0.647,9.935s7.358,5.778,14.119,7.663c6.033,1.681,13.075,2.291,15.716,2.291c0.05,0,0.099-0.001,0.146-0.001
			c1.815-0.017,5.756-1.318,7.675-6.355c1.919-5.036,5.609-13.777,12.941-39.303C242.5,212.75,248.733,175.758,249.318,163.868
			L249.318,163.868z"/>
	</g>
	<path d="M533.5,276.25c0,0-45-5.5-51.5-5.5s-5.5-11.5-5.5-11.5S473.25,192.5,484,181s57.813-32.25,57.75-84.5
		c-0.047-38.763-10.25-65.75-10.25-65.75h-3.931c0,0,12.094,45.951,5.181,79c-7.205,34.44-40.5,61.06-59.5,62.75
		c-19-1.69-52.295-28.31-59.5-62.75c-6.914-33.049,5.18-79,5.18-79H415c0,0-10.203,26.987-10.25,65.75
		c-0.063,52.25,47,73,57.75,84.5s7.5,78.25,7.5,78.25s1,11.5-5.5,11.5s-51.5,5.5-51.5,5.5s-5.75,0.5-5.75,2.75s66,3.104,66,3.104
		s66-0.854,66-3.104S533.5,276.25,533.5,276.25z"/>
	<path fill="#940F1E" d="M481,73.333c-30.842-6.467-43.727-22.959-50.136-37.197L426.001,36c0,0-37,97,47.667,130.667
		c20.606-8.194,33.991-20.144,42.471-33.529C521.526,112.802,522.168,81.966,481,73.333z"/>
	<g>
		<path d="M49.127,347.975h-18v-2.056c4.08,0,4.56-0.354,4.56-2.905v-23.735c0-2.552-0.32-2.835-4.4-2.835v-1.771h18.24
			c8.32,0,13.12,3.896,13.12,8.361c0,3.684-1.76,6.094-7.04,8.078c6.16,1.346,8.72,4.251,8.72,8.431
			C64.328,344.573,60.808,347.975,49.127,347.975z M45.207,316.656c-4.08,0-4.32,0.212-4.32,2.622v10.415h6.8
			c7.76,0,9.52-2.692,9.52-6.448C57.208,318.428,54.487,316.656,45.207,316.656z M47.688,331.748h-6.8v11.266
			c0,2.48,0.32,2.905,2.56,2.905h5.68c6.72,0,9.6-2.692,9.6-6.73C58.728,334.299,54.248,331.748,47.688,331.748z"/>
		<path d="M164.167,347.975v-1.914c4.081,0,4.72-0.283,4.72-2.126v-18.776l-19.12,16.297v2.551c0,1.7,0.64,2.055,4.4,2.055v1.914
			h-14.32v-1.914c4.08,0,4.8-0.212,4.8-2.055v-24.587c0-2.409-0.64-2.904-4.8-2.904v-1.843h13.84v1.843
			c-3.44,0-3.92,0.425-3.92,2.904v18.99l19.12-16.368v-2.692c0-2.409-0.32-2.763-4.48-2.763v-1.914h13.84v1.914
			c-3.84,0-4.24,0.212-4.24,2.763v24.586c0,1.702,0.64,2.126,4.48,2.126v1.914H164.167z"/>
		<path d="M275.368,347.975v-2.197c4.16,0,4.4-0.212,4.4-2.622v-11.974h-19.28v11.974c0,2.551,0.32,2.764,4.64,2.764v2.056h-14.561
			v-2.056c4.24,0,4.72-0.213,4.72-2.764v-23.948c0-2.055-0.24-2.409-4.4-2.409v-2.126h14.16v2.126c-4.16,0-4.56,0.354-4.56,2.409
			v9.778h19.28v-9.85c0-2.055-0.32-2.338-4.72-2.338v-2.126h14.241v2.126c-4.08,0-4.4,0.354-4.4,2.338v24.02
			c0,2.41,0.32,2.622,4.4,2.622v2.197H275.368z"/>
		<path d="M381.127,349.037c-10.641,0-16.96-7.369-16.96-17.926c0-9.212,6.4-17.502,17.04-17.502
			c10.32,0,17.201,7.936,17.201,17.502C398.408,341.385,392.487,349.037,381.127,349.037z M380.887,315.451
			c-7.76,0-11.84,5.599-11.84,15.801c0,8.645,3.92,15.872,12.16,15.872c8.641,0,11.84-4.89,11.84-16.155
			C393.047,322.183,388.647,315.451,380.887,315.451z"/>
		<path d="M508.647,323.671c-3.359-5.882-5.359-7.015-10.16-7.015c-3.439,0-4.08,0.496-4.08,3.188v23.099
			c0,2.622,0.561,3.117,4,3.117v1.914h-14.24v-1.914c3.601,0,4.721-0.85,4.721-3.117v-23.17c0-2.338-0.48-3.117-4.16-3.117
			c-4.48,0-6.32,0.991-9.921,6.802l-2.159-0.638l3.76-8.148h31.2l2.961,8.573L508.647,323.671z"/>
		<path d="M589.607,329.977c-0.881,7.724,3.279,16.722,14.8,16.722c5.681,0,8.641-1.629,11.681-4.251c0.72-0.566,1.6-0.495,2-0.071
			c0.479,0.426,0.399,1.276-0.8,2.197c-4.32,3.117-7.041,4.464-12.961,4.464c-12.32,0-20.24-7.156-20.24-17.218
			c0-10.487,7.28-18.21,18.641-18.21c11.44,0,16.32,7.228,16.32,16.367H589.607z M602.407,315.735c-7.04,0-11.28,5.456-12.4,11.903
			h23.201C613.208,321.687,609.607,315.735,602.407,315.735z"/>
		<path d="M717.848,347.975v-1.843c5.12,0,5.279-0.213,3.92-1.984l-10-12.541c-0.641,0.071-1.36,0.071-2.16,0.071h-5.44v11.833
			c0,2.055,0.88,2.621,4.64,2.621v1.843h-14.24v-1.843c3.92,0,4.48-0.354,4.48-2.621v-24.445c0-2.056-0.48-2.551-4.48-2.551v-1.843
			h14.001v1.843c-3.921,0-4.4,0.566-4.4,2.551v10.628h5.44c4.16,0,7.12-1.7,10.24-9.282c1.92-4.676,4.8-6.802,7.92-6.802
			c2.4,0,4,1.275,4,2.977c0,2.975-2.32,3.613-4.641,2.125c-2.159-1.346-3.119-0.992-4.96,2.339c-2.399,4.464-4.16,7.085-5.92,8.644
			l10.48,13.25c2,2.551,3.28,3.188,5.68,3.188v1.843H717.848z"/>
		<path d="M828.967,347.975v-1.914c4.08,0,4.721-0.283,4.721-2.126v-18.776l-19.121,16.297v2.551c0,1.7,0.641,2.055,4.4,2.055v1.914
			h-14.32v-1.914c4.08,0,4.8-0.212,4.8-2.055v-24.587c0-2.409-0.64-2.904-4.8-2.904v-1.843h13.84v1.843
			c-3.439,0-3.92,0.425-3.92,2.904v18.99l19.121-16.368v-2.692c0-2.409-0.32-2.763-4.48-2.763v-1.914h13.84v1.914
			c-3.84,0-4.239,0.212-4.239,2.763v24.586c0,1.702,0.64,2.126,4.479,2.126v1.914H828.967z"/>
	</g>
</g>
</svg>
