<?xml version="1.0" encoding="utf-8"?>
<!-- Made by eldr0n eldron@gmail.com -->
<svg version="1.1" id="Layer_1" xmlns="http://www.w3.org/2000/svg" xmlns:xlink="http://www.w3.org/1999/xlink" x="0px" y="0px"
	 viewBox="0 0 15.667 15.667" enable-background="new 0 0 15.667 15.667" xml:space="preserve">
<path fill="#CBCBCB" d="M5.347,0.744l-3.601,0.19C1.197,0.962,0.724,1.436,0.695,1.985l-0.19,3.601
	C0.477,6.135,0.772,6.902,1.16,7.291l7.66,7.66c0.389,0.389,1.025,0.389,1.414,0l4.478-4.478c0.389-0.389,0.389-1.025,0-1.414
	l-7.66-7.66C6.664,1.01,5.896,0.715,5.347,0.744z M4.486,4.724c-0.551,0.551-1.445,0.551-1.996,0s-0.551-1.445,0-1.996
	c0.551-0.551,1.445-0.551,1.996,0S5.037,4.173,4.486,4.724z"/>
</svg>
