<?xml version="1.0" encoding="utf-8"?>
<!-- Generator: Adobe Illustrator 17.1.0, SVG Export Plug-In . SVG Version: 6.00 Build 0)  -->
<!DOCTYPE svg PUBLIC "-//W3C//DTD SVG 1.1//EN" "http://www.w3.org/Graphics/SVG/1.1/DTD/svg11.dtd">
<svg version="1.1" id="Layer_1" xmlns="http://www.w3.org/2000/svg" xmlns:xlink="http://www.w3.org/1999/xlink" x="0px" y="0px"
	 viewBox="0 0 24 24" enable-background="new 0 0 24 24" xml:space="preserve">
<g>
	<path fill="#A21C1C" d="M16.1,21.8C16.1,21.8,16.1,21.8,16.1,21.8c-0.3,0-0.5,0-0.8-0.1C12.4,21.1,9.5,19.5,7,17
		c-2.5-2.5-4.1-5.4-4.7-8.3C2.1,7.4,2.5,6.1,3.4,5.2L4,4.5c1-1,2.8-1,3.9,0l1.2,1.2c0.4,0.4,0.7,1,0.6,1.6c0,0.6-0.3,1.2-0.7,1.6
		L8.2,9.8c0.6,1.3,1.4,2.5,2.5,3.6c1.1,1.1,2.3,1.9,3.6,2.5l0.9-0.9c0.8-0.8,2.3-0.9,3.2,0l1.2,1.2c1.1,1.1,1.1,2.8,0,3.9l-0.7,0.7
		C18.1,21.3,17.1,21.8,16.1,21.8z M6,5.2c-0.3,0-0.6,0.1-0.9,0.4L4.4,6.2C3.9,6.8,3.6,7.6,3.8,8.4c0.5,2.6,2,5.3,4.3,7.5
		c2.3,2.3,4.9,3.8,7.5,4.3c0.2,0,0.3,0,0.5,0l0,0c0.7,0,1.3-0.2,1.7-0.7l0.7-0.7c0.5-0.5,0.5-1.3,0-1.8L17.3,16
		c-0.3-0.3-0.8-0.3-1.1,0l-0.9,0.9c-0.4,0.4-1.1,0.5-1.6,0.3c-1.5-0.6-2.9-1.6-4.1-2.8c-1.2-1.2-2.2-2.6-2.8-4
		C6.6,9.8,6.7,9.1,7.1,8.7l0.8-0.8C8.3,7.5,8.3,7,8,6.7L6.9,5.6C6.6,5.3,6.3,5.2,6,5.2z"/>
</g>
<g opacity="0.5">
	<g>
		<path fill="#2E1066" d="M21,11.8c-0.4,0-0.8-0.3-0.8-0.8c0-1.9-0.8-3.8-2.1-5.2c-1.4-1.4-3.2-2.1-5.2-2.1c-0.4,0-0.8-0.3-0.8-0.8
			s0.3-0.8,0.8-0.8c2.3,0,4.6,0.9,6.2,2.6c1.7,1.7,2.6,3.9,2.6,6.2C21.8,11.4,21.5,11.8,21,11.8z M17,11.8C17,11.8,17,11.8,17,11.8
			c-0.4,0-0.8-0.3-0.8-0.8c0-0.9-0.3-1.7-0.9-2.3c-0.6-0.6-1.4-0.9-2.3-0.9c0,0,0,0-0.1,0c-0.4,0-0.7-0.3-0.8-0.7
			c0-0.4,0.3-0.8,0.7-0.8c1.3,0,2.5,0.5,3.4,1.4c0.9,0.9,1.4,2.1,1.4,3.4C17.8,11.4,17.4,11.8,17,11.8z"/>
	</g>
	<g>
		<path fill="#410F9E" d="M21,11.8c-0.4,0-0.8-0.3-0.8-0.8c0-1.9-0.8-3.8-2.1-5.2c-1.4-1.4-3.2-2.1-5.2-2.1c-0.4,0-0.8-0.3-0.8-0.8
			s0.3-0.8,0.8-0.8c2.3,0,4.6,0.9,6.2,2.6c1.7,1.7,2.6,3.9,2.6,6.2C21.8,11.4,21.5,11.8,21,11.8z M17,11.8C17,11.8,17,11.8,17,11.8
			c-0.4,0-0.8-0.3-0.8-0.8c0-0.9-0.3-1.7-0.9-2.3c-0.6-0.6-1.4-0.9-2.3-0.9c0,0,0,0-0.1,0c-0.4,0-0.7-0.3-0.8-0.7
			c0-0.4,0.3-0.8,0.7-0.8c1.3,0,2.5,0.5,3.4,1.4c0.9,0.9,1.4,2.1,1.4,3.4C17.8,11.4,17.4,11.8,17,11.8z"/>
	</g>
	<g>
		<path fill="#453888" d="M21,11.8c-0.4,0-0.8-0.3-0.8-0.8c0-1.9-0.8-3.8-2.1-5.2c-1.4-1.4-3.2-2.1-5.2-2.1c-0.4,0-0.8-0.3-0.8-0.8
			s0.3-0.8,0.8-0.8c2.3,0,4.6,0.9,6.2,2.6c1.7,1.7,2.6,3.9,2.6,6.2C21.8,11.4,21.5,11.8,21,11.8z M17,11.8C17,11.8,17,11.8,17,11.8
			c-0.4,0-0.8-0.3-0.8-0.8c0-0.9-0.3-1.7-0.9-2.3c-0.6-0.6-1.4-0.9-2.3-0.9c0,0,0,0-0.1,0c-0.4,0-0.7-0.3-0.8-0.7
			c0-0.4,0.3-0.8,0.7-0.8c1.3,0,2.5,0.5,3.4,1.4c0.9,0.9,1.4,2.1,1.4,3.4C17.8,11.4,17.4,11.8,17,11.8z"/>
	</g>
	<g>
		<path fill="#5946D7" d="M21,11.8c-0.4,0-0.8-0.3-0.8-0.8c0-1.9-0.8-3.8-2.1-5.2c-1.4-1.4-3.2-2.1-5.2-2.1c-0.4,0-0.8-0.3-0.8-0.8
			s0.3-0.8,0.8-0.8c2.3,0,4.6,0.9,6.2,2.6c1.7,1.7,2.6,3.9,2.6,6.2C21.8,11.4,21.5,11.8,21,11.8z M17,11.8C17,11.8,17,11.8,17,11.8
			c-0.4,0-0.8-0.3-0.8-0.8c0-0.9-0.3-1.7-0.9-2.3c-0.6-0.6-1.4-0.9-2.3-0.9c0,0,0,0-0.1,0c-0.4,0-0.7-0.3-0.8-0.7
			c0-0.4,0.3-0.8,0.7-0.8c1.3,0,2.5,0.5,3.4,1.4c0.9,0.9,1.4,2.1,1.4,3.4C17.8,11.4,17.4,11.8,17,11.8z"/>
	</g>
	<g>
		<path fill="#A21C1C" d="M21,11.8c-0.4,0-0.8-0.3-0.8-0.8c0-1.9-0.8-3.8-2.1-5.2c-1.4-1.4-3.2-2.1-5.2-2.1c-0.4,0-0.8-0.3-0.8-0.8
			s0.3-0.8,0.8-0.8c2.3,0,4.6,0.9,6.2,2.6c1.7,1.7,2.6,3.9,2.6,6.2C21.8,11.4,21.5,11.8,21,11.8z M17,11.8C17,11.8,17,11.8,17,11.8
			c-0.4,0-0.8-0.3-0.8-0.8c0-0.9-0.3-1.7-0.9-2.3c-0.6-0.6-1.4-0.9-2.3-0.9c0,0,0,0-0.1,0c-0.4,0-0.7-0.3-0.8-0.7
			c0-0.4,0.3-0.8,0.7-0.8c1.3,0,2.5,0.5,3.4,1.4c0.9,0.9,1.4,2.1,1.4,3.4C17.8,11.4,17.4,11.8,17,11.8z"/>
	</g>
</g>
</svg>
