<?xml version="1.0" encoding="utf-8"?>
<!-- Generator: Adobe Illustrator 17.1.0, SVG Export Plug-In . SVG Version: 6.00 Build 0)  -->
<!DOCTYPE svg PUBLIC "-//W3C//DTD SVG 1.1//EN" "http://www.w3.org/Graphics/SVG/1.1/DTD/svg11.dtd">
<svg version="1.1" id="Layer_1" xmlns="http://www.w3.org/2000/svg" xmlns:xlink="http://www.w3.org/1999/xlink" x="0px" y="0px"
	 viewBox="0 0 24 24" enable-background="new 0 0 24 24" xml:space="preserve">
<path fill="#F50B0F" fill-opacity="0.1" d="M12,14.5c3.5,0,5.5,0.9,6.6,1.7c1.2,0.9,1.4,2.6,1.4,4.1c0,0.9-0.8,1.7-1.7,1.7H5.7
	C4.8,22,4,21.2,4,20.3c0-1.5,0.2-3.2,1.4-4.1C6.5,15.4,8.5,14.5,12,14.5z"/>
<path fill="none" stroke="#A21C1C" stroke-width="1.5" stroke-linecap="round" stroke-linejoin="round" d="M12,13.5
	c3.5,0,5.5,0.9,6.6,1.7c1.2,0.9,1.4,2.6,1.4,4.1c0,0.9-0.8,1.7-1.7,1.7H5.7C4.8,21,4,20.2,4,19.3c0-1.5,0.2-3.2,1.4-4.1
	C6.5,14.4,8.5,13.5,12,13.5z"/>
<circle fill="none" stroke="#A21C1C" stroke-width="1.5" cx="12" cy="7" r="4"/>
</svg>
