<?xml version="1.0" encoding="utf-8"?>
<!-- Generator: Adobe Illustrator 17.1.0, SVG Export Plug-In . SVG Version: 6.00 Build 0)  -->
<!DOCTYPE svg PUBLIC "-//W3C//DTD SVG 1.1//EN" "http://www.w3.org/Graphics/SVG/1.1/DTD/svg11.dtd">
<svg version="1.1" id="Layer_1" xmlns="http://www.w3.org/2000/svg" xmlns:xlink="http://www.w3.org/1999/xlink" x="0px" y="0px"
	 viewBox="0 0 20 20" enable-background="new 0 0 20 20" xml:space="preserve">
<path fill="#A21C1C" d="M9,2c3.9,0,7,3.1,7,7c0,3.9-3.1,7-7,7c-3.9,0-7-3.1-7-7C2,5.1,5.1,2,9,2z M16,14.6c1.2-1.5,2-3.5,2-5.6
	c0-5-4-9-9-9C4,0,0,4,0,9c0,5,4,9,9,9c2.1,0,4.1-0.7,5.6-2l3.7,3.7c0.4,0.4,1,0.4,1.4,0c0.4-0.4,0.4-1,0-1.4L16,14.6z"/>
</svg>
