<svg width="20" height="20" viewBox="0 0 20 20" fill="none" xmlns="http://www.w3.org/2000/svg">
<path fill-rule="evenodd" clip-rule="evenodd" d="M4.16634 10.8334V10.8334C3.70592 10.8334 3.33301 10.4605 3.33301 10.0001V10.0001C3.33301 9.53966 3.70592 9.16675 4.16634 9.16675V9.16675C4.62676 9.16675 4.99967 9.53966 4.99967 10.0001V10.0001C4.99967 10.4605 4.62676 10.8334 4.16634 10.8334Z" fill="white" stroke="white" stroke-width="1.5" stroke-linecap="round" stroke-linejoin="round"/>
<path fill-rule="evenodd" clip-rule="evenodd" d="M9.99935 10.8334V10.8334C9.53893 10.8334 9.16602 10.4605 9.16602 10.0001V10.0001C9.16602 9.53966 9.53893 9.16675 9.99935 9.16675V9.16675C10.4598 9.16675 10.8327 9.53966 10.8327 10.0001V10.0001C10.8327 10.4605 10.4598 10.8334 9.99935 10.8334Z" fill="white" stroke="white" stroke-width="1.5" stroke-linecap="round" stroke-linejoin="round"/>
<path fill-rule="evenodd" clip-rule="evenodd" d="M15.8333 10.8334V10.8334C15.3729 10.8334 15 10.4605 15 10.0001V10.0001C15 9.53966 15.3729 9.16675 15.8333 9.16675V9.16675C16.2937 9.16675 16.6667 9.53966 16.6667 10.0001V10.0001C16.6667 10.4605 16.2937 10.8334 15.8333 10.8334Z" fill="white" stroke="white" stroke-width="1.5" stroke-linecap="round" stroke-linejoin="round"/>
<path fill-rule="evenodd" clip-rule="evenodd" d="M4.16634 16.6667V16.6667C3.70592 16.6667 3.33301 16.2937 3.33301 15.8333V15.8333C3.33301 15.3729 3.70592 15 4.16634 15V15C4.62676 15 4.99967 15.3729 4.99967 15.8333V15.8333C4.99967 16.2937 4.62676 16.6667 4.16634 16.6667Z" fill="white" stroke="white" stroke-width="1.5" stroke-linecap="round" stroke-linejoin="round"/>
<path fill-rule="evenodd" clip-rule="evenodd" d="M9.99935 16.6667V16.6667C9.53893 16.6667 9.16602 16.2937 9.16602 15.8333V15.8333C9.16602 15.3729 9.53893 15 9.99935 15V15C10.4598 15 10.8327 15.3729 10.8327 15.8333V15.8333C10.8327 16.2937 10.4598 16.6667 9.99935 16.6667Z" fill="white" stroke="white" stroke-width="1.5" stroke-linecap="round" stroke-linejoin="round"/>
<path fill-rule="evenodd" clip-rule="evenodd" d="M15.8333 16.6667V16.6667C15.3729 16.6667 15 16.2937 15 15.8333V15.8333C15 15.3729 15.3729 15 15.8333 15V15C16.2937 15 16.6667 15.3729 16.6667 15.8333V15.8333C16.6667 16.2937 16.2937 16.6667 15.8333 16.6667Z" fill="white" stroke="white" stroke-width="1.5" stroke-linecap="round" stroke-linejoin="round"/>
<path fill-rule="evenodd" clip-rule="evenodd" d="M4.16634 5.00004V5.00004C3.70592 5.00004 3.33301 4.62712 3.33301 4.16671V4.16671C3.33301 3.70629 3.70592 3.33337 4.16634 3.33337V3.33337C4.62676 3.33337 4.99967 3.70629 4.99967 4.16671V4.16671C4.99967 4.62712 4.62676 5.00004 4.16634 5.00004Z" fill="white" stroke="white" stroke-width="1.5" stroke-linecap="round" stroke-linejoin="round"/>
<path fill-rule="evenodd" clip-rule="evenodd" d="M9.99935 5.00004V5.00004C9.53893 5.00004 9.16602 4.62712 9.16602 4.16671V4.16671C9.16602 3.70629 9.53893 3.33337 9.99935 3.33337V3.33337C10.4598 3.33337 10.8327 3.70629 10.8327 4.16671V4.16671C10.8327 4.62712 10.4598 5.00004 9.99935 5.00004Z" fill="white" stroke="white" stroke-width="1.5" stroke-linecap="round" stroke-linejoin="round"/>
<path fill-rule="evenodd" clip-rule="evenodd" d="M15.8333 5.00004V5.00004C15.3729 5.00004 15 4.62712 15 4.16671V4.16671C15 3.70629 15.3729 3.33337 15.8333 3.33337V3.33337C16.2937 3.33337 16.6667 3.70629 16.6667 4.16671V4.16671C16.6667 4.62712 16.2937 5.00004 15.8333 5.00004Z" fill="white" stroke="white" stroke-width="1.5" stroke-linecap="round" stroke-linejoin="round"/>
</svg>
