<?xml version="1.0" encoding="utf-8"?>
<!-- Generator: Adobe Illustrator 17.1.0, SVG Export Plug-In . SVG Version: 6.00 Build 0)  -->
<!DOCTYPE svg PUBLIC "-//W3C//DTD SVG 1.1//EN" "http://www.w3.org/Graphics/SVG/1.1/DTD/svg11.dtd">
<svg version="1.1" id="Layer_1" xmlns="http://www.w3.org/2000/svg" xmlns:xlink="http://www.w3.org/1999/xlink" x="0px" y="0px"
	 viewBox="0 0 1280 1024" enable-background="new 0 0 1280 1024" xml:space="preserve">
<g id="WE_x5F_90_2_">
	<circle fill="#FFFFFF" cx="633" cy="522.8" r="468.7"/>
</g>
<rect x="-540.9" y="33.9" fill="none" width="221.9" height="126"/>
<text transform="matrix(1 0 0 1 -540.9148 65.6528)" font-family="'ClarendonBT-Black'" font-size="47.2615">1234567</text>
<text transform="matrix(1 0 0 1 -540.9148 122.3671)" font-family="'ClarendonBT-Black'" font-size="47.2615">890</text>
<g id="g10_1_" transform="matrix(1.3333333,0,0,-1.3333333,0,424)" display="none">
	<g id="g12_1_" transform="scale(0.1)" display="inline">
		<path id="path14_1_" fill="none" stroke="#AA1329" stroke-miterlimit="10" d="M6669.8,828.9c24.3,0,48.5,0,72.8,0
			c12.1-5.1,24.1-10.5,36.4-15.1c95.9-36.1,153.6-133.9,135.9-230.7c-19.1-104.3-105.9-178.7-208.7-178.8
			c-103-0.1-189.5,74.1-208.3,178.8c-17.6,97.6,39.4,194.7,135.4,230.8C6645.6,818.5,6657.6,823.9,6669.8,828.9"/>
		<path id="path16_1_" fill="none" stroke="#AA1329" stroke-miterlimit="10" d="M6993.2-1741.9c-24.3,0-48.5,0-72.8,0
			c-11.9,5.3-23.7,11.2-35.8,15.9c-97.8,38.3-152.2,137.1-132.4,240.7c18.3,95.4,111.4,170,209.8,167.9
			c104.3-2.2,192.4-78.9,207.1-180.6c14.6-100.6-45.3-197.7-142.6-231.4C7015.3-1733.3,7004.3-1737.7,6993.2-1741.9"/>
		<path id="path18_1_" fill="none" stroke="#AA1329" stroke-miterlimit="10" d="M6660-668c2.5-114.6-91.5-212.3-207.3-215.3
			c-116.4-3-215.7,93-217.1,209.8c-1.4,114.2,93.9,211.3,209.6,213.7C6559.3-457.5,6657.5-552.6,6660-668"/>
		<path id="path20_1_" fill="none" stroke="#AA1329" stroke-miterlimit="10" d="M7268.6-673.2c-0.6,115.4,93.3,211.3,208.9,213.4
			c116.3,2.2,213.4-94.4,213.5-212.5c0.2-115.8-94.5-210.7-210.5-211.1C7365.3-883.7,7269.2-788.5,7268.6-673.2"/>
		<path id="path22_1_" fill="none" stroke="#AA1329" stroke-miterlimit="10" d="M6701.7-1313.3c-119.3-0.7-214.6,93.5-213.8,211.3
			c0.8,114.9,93.2,208.1,207.7,209.6c118.7,1.5,215.2-92.3,215.6-209.6C6911.8-1218.5,6818.4-1312.6,6701.7-1313.3"/>
		<path id="path24_1_" fill="none" stroke="#AA1329" stroke-miterlimit="10" d="M7178.5,193.2c-0.6-114.7-98-211-212.4-209.8
			c-116,1.2-210,96.2-209.9,212.1c0.1,116.3,94.2,210.9,210.1,211.5C7083.3,407.5,7179.1,311,7178.5,193.2"/>
		<path id="path26_1_" fill="none" stroke="#AA1329" stroke-miterlimit="10" d="M7222.5-463.6c-116.4,0.3-211,94-211.6,209.9
			c-0.7,114.9,94.4,210,210.5,210.6c118.2,0.6,214.7-94.8,213.8-211.5C7434.3-370,7338.7-463.9,7222.5-463.6"/>
		<path id="path28_1_" fill="none" stroke="#AA1329" stroke-miterlimit="10" d="M6748.7-673.4c-0.8,116,91.9,211.2,208.1,213.7
			c114.4,2.4,212.3-93,213.6-208.2c1.3-118.6-92.8-215-210.1-215.4C6844.8-883.8,6749.5-789.3,6748.7-673.4"/>
		<path id="path30_1_" fill="none" stroke="#AA1329" stroke-miterlimit="10" d="M6491.6-254.2c-0.4,117.3,91.5,210.2,208.7,211
			c119.2,0.9,212.9-92.1,212.7-211.1c-0.2-116.4-93.8-209.4-210.8-209.4C6585.4-463.6,6492-370.7,6491.6-254.2"/>
		<path id="path32_1_" fill="none" stroke="#AA1329" stroke-miterlimit="10" d="M7009.4-1104.8c-0.6,117.3,91.4,211.3,207.9,212.4
			c117.4,1.1,212.3-90.7,213.6-206.8c1.4-119.4-91.2-213.8-210-214.1C7103.2-1313.6,7010-1221.7,7009.4-1104.8"/>
	</g>
</g>
<g>
	<rect x="351.9" y="228.2" fill="none" width="656.1" height="409.5"/>
	<text transform="matrix(1 0 0 1 351.9114 520.1257)" font-family="'ClarendonBT-Black'" font-size="435" letter-spacing="-32">97</text>
</g>
<g>
	<g>
		<path d="M224.6,745.9c143.7,263,478.7,302.6,682.9,130.3c194.8-164.4,221.3-466.2,53.9-657.6C864.5,107.9,742.1,53.3,594.6,61.8
			c-147.2,8.4-260.3,79.7-346.8,196.9C320.3,127.2,512.2,5.6,731.3,51.6c229.7,48.1,386,256.2,374.7,490.7
			c-12.2,254.2-203.2,429.2-413.5,454.1C447.1,1025.4,273.7,862.8,224.6,745.9z"/>
	</g>
</g>
<g>
	<path d="M245.2,674.5v-97.7h18.1v82.4h51.1v15.4H245.2z"/>
	<path d="M347.7,675.5c-6.3,0-11.9-1.2-16.8-3.6c-4.8-2.4-8.6-6-11.3-10.9c-2.7-4.9-4-11.1-4-18.5V600H333v40.2
		c0,6.7,1.5,11.7,4.5,15c3,3.3,7.3,5,12.9,5c4.1,0,7.7-0.8,10.7-2.5c3-1.7,5.4-4.2,7.1-7.5c1.7-3.4,2.6-7.5,2.6-12.4V600h17.5v74.6
		h-16.6v-20.1l2.9,6.1c-2.5,4.8-6.2,8.5-11,11.1C358.7,674.2,353.4,675.5,347.7,675.5z"/>
	<path d="M435,675.5c-7.8,0-14.8-1.7-20.9-5c-6.1-3.3-10.9-7.8-14.3-13.6c-3.4-5.8-5.2-12.3-5.2-19.7c0-7.4,1.7-14,5.2-19.8
		c3.4-5.7,8.2-10.2,14.3-13.5c6.1-3.3,13.1-4.9,20.9-4.9c7.3,0,13.7,1.5,19.2,4.4c5.5,2.9,9.7,7.2,12.6,12.9l-13.4,7.8
		c-2.2-3.5-5-6.1-8.2-7.8c-3.2-1.7-6.7-2.5-10.4-2.5c-4.3,0-8.1,0.9-11.6,2.8c-3.4,1.9-6.1,4.5-8.1,8s-2.9,7.7-2.9,12.5
		c0,4.8,1,9,2.9,12.5s4.7,6.2,8.1,8c3.4,1.9,7.3,2.8,11.6,2.8c3.7,0,7.2-0.8,10.4-2.5c3.2-1.7,5.9-4.3,8.2-7.8l13.4,7.8
		c-2.9,5.6-7.1,9.9-12.6,12.9C448.7,674,442.3,675.5,435,675.5z"/>
	<path d="M494.1,675.5c-5.6,0-10.5-1-14.7-2.9s-7.4-4.6-9.7-8c-2.3-3.4-3.4-7.2-3.4-11.5c0-4.2,1-8,3-11.3c2-3.4,5.3-6,9.8-8
		c4.6-2,10.6-2.9,18.1-2.9H519v11.6h-20.4c-6,0-10,1-12,2.9c-2,1.9-3.1,4.3-3.1,7c0,3.2,1.3,5.7,3.8,7.5c2.5,1.9,6,2.8,10.5,2.8
		c4.3,0,8.1-1,11.5-2.9c3.4-2,5.8-4.8,7.3-8.7l2.9,10.5c-1.7,4.4-4.7,7.8-9,10.2C506.2,674.3,500.7,675.5,494.1,675.5z M517.6,674.5
		v-15.1l-1-3.2v-26.4c0-5.1-1.5-9.1-4.6-11.9c-3.1-2.8-7.7-4.3-14-4.3c-4.2,0-8.3,0.7-12.4,2c-4,1.3-7.5,3.1-10.3,5.4l-6.8-12.7
		c4-3.1,8.8-5.4,14.3-6.9c5.5-1.5,11.3-2.3,17.2-2.3c10.8,0,19.1,2.6,25.1,7.7c5.9,5.2,8.9,13.1,8.9,23.9v43.7H517.6z"/>
	<path d="M575.9,674.5v-97.7h14.9l42.7,71.3h-7.8l42-71.3h14.9l0.1,97.7h-17.2l-0.1-70.8h3.6l-35.7,59.6h-8.1L589,603.7h4.2v70.8
		H575.9z"/>
	<path d="M719.7,675.5c-5.6,0-10.5-1-14.7-2.9c-4.2-1.9-7.4-4.6-9.7-8c-2.3-3.4-3.4-7.2-3.4-11.5c0-4.2,1-8,3-11.3
		c2-3.4,5.3-6,9.8-8c4.6-2,10.6-2.9,18.1-2.9h21.6v11.6h-20.4c-6,0-10,1-12,2.9c-2,1.9-3.1,4.3-3.1,7c0,3.2,1.3,5.7,3.8,7.5
		c2.5,1.9,6,2.8,10.5,2.8c4.3,0,8.1-1,11.5-2.9c3.4-2,5.8-4.8,7.3-8.7l2.9,10.5c-1.7,4.4-4.7,7.8-9,10.2
		C731.8,674.3,726.3,675.5,719.7,675.5z M743.2,674.5v-15.1l-1-3.2v-26.4c0-5.1-1.5-9.1-4.6-11.9c-3.1-2.8-7.7-4.3-14-4.3
		c-4.2,0-8.3,0.7-12.4,2c-4,1.3-7.5,3.1-10.3,5.4l-6.8-12.7c4-3.1,8.8-5.4,14.3-6.9c5.5-1.5,11.3-2.3,17.2-2.3
		c10.8,0,19.1,2.6,25.1,7.7c5.9,5.2,8.9,13.1,8.9,23.9v43.7H743.2z"/>
	<path d="M771.6,674.5V600h16.6v20.5l-2-6c2.2-5,5.7-8.8,10.5-11.4c4.8-2.6,10.8-3.9,17.9-3.9v16.6c-0.7-0.2-1.4-0.3-2.1-0.3
		c-0.7,0-1.3-0.1-2-0.1c-6.6,0-11.9,1.9-15.8,5.8c-3.9,3.9-5.9,9.6-5.9,17.2v36.2H771.6z"/>
	<path d="M852.1,675.5c-7.6,0-14.4-1.7-20.4-5c-6-3.3-10.7-7.8-14.1-13.6c-3.4-5.8-5.2-12.3-5.2-19.7c0-7.4,1.7-14,5.2-19.8
		c3.4-5.7,8.1-10.2,14.1-13.5c6-3.3,12.8-4.9,20.4-4.9c7.7,0,14.6,1.6,20.6,4.9c6,3.3,10.7,7.7,14.1,13.4c3.4,5.7,5.1,12.3,5.1,19.8
		c0,7.4-1.7,13.9-5.1,19.7c-3.4,5.8-8.1,10.3-14.1,13.6C866.6,673.8,859.8,675.5,852.1,675.5z M852.1,660.6c4.3,0,8.1-0.9,11.4-2.8
		c3.4-1.9,6-4.6,7.9-8.1c1.9-3.5,2.9-7.7,2.9-12.4c0-4.8-1-9-2.9-12.5c-1.9-3.5-4.5-6.2-7.9-8c-3.4-1.9-7.1-2.8-11.3-2.8
		c-4.3,0-8.1,0.9-11.4,2.8c-3.3,1.9-5.9,4.5-7.9,8c-2,3.5-2.9,7.7-2.9,12.5c0,4.7,1,8.9,2.9,12.4c2,3.5,4.6,6.2,7.9,8.1
		C844.1,659.6,847.9,660.6,852.1,660.6z"/>
	<path d="M940.6,599.1c6,0,11.3,1.2,16,3.5c4.7,2.3,8.4,5.9,11.1,10.7c2.7,4.8,4,11,4,18.5v42.7h-17.5V634c0-6.6-1.6-11.5-4.7-14.8
		c-3.1-3.3-7.5-4.9-13.1-4.9c-4.1,0-7.7,0.8-10.9,2.5c-3.2,1.7-5.6,4.2-7.3,7.5c-1.7,3.3-2.6,7.5-2.6,12.5v37.7h-17.5V600h16.6v20.1
		l-2.9-6.1c2.6-4.7,6.4-8.4,11.4-11C928.3,600.4,934.1,599.1,940.6,599.1z"/>
	<path d="M992.4,587.7c-3.3,0-5.9-1-8-3.1c-2.1-2-3.1-4.5-3.1-7.4c0-3,1-5.5,3.1-7.5c2.1-2,4.8-3,8-3c3.3,0,5.9,1,8,2.9
		c2.1,1.9,3.1,4.3,3.1,7.2c0,3.1-1,5.7-3.1,7.7C998.4,586.6,995.7,587.7,992.4,587.7z M983.6,674.5V600h17.5v74.6H983.6z"/>
</g>
</svg>
