<?xml version="1.0" encoding="utf-8"?>
<!-- Generator: Adobe Illustrator 17.1.0, SVG Export Plug-In . SVG Version: 6.00 Build 0)  -->
<!DOCTYPE svg PUBLIC "-//W3C//DTD SVG 1.1//EN" "http://www.w3.org/Graphics/SVG/1.1/DTD/svg11.dtd">
<svg version="1.1" id="Layer_1" xmlns="http://www.w3.org/2000/svg" xmlns:xlink="http://www.w3.org/1999/xlink" x="0px" y="0px"
	 viewBox="0 0 1280 1024" enable-background="new 0 0 1280 1024" xml:space="preserve">
<g id="WE_x5F_90_2_">
	<circle fill="#FFFFFF" stroke="#000000" stroke-miterlimit="10" cx="640" cy="513.8" r="468.7"/>
	<circle fill="#FFFFFF" stroke="#999999" stroke-miterlimit="10" cx="640" cy="513.8" r="447.7"/>
</g>
<g id="WE_x5F_90_1_">
	<circle fill="#FFFFFF" stroke="#000000" stroke-miterlimit="10" cx="640" cy="513.8" r="468.7"/>
	<circle fill="#FFFFFF" stroke="#B3B3B3" stroke-miterlimit="10" cx="640" cy="513.8" r="457.7"/>
	<circle fill="#FFFFFF" stroke="#B3B3B3" stroke-miterlimit="10" cx="640" cy="513.8" r="448.8"/>
	<circle fill="#FFFFFF" stroke="#B3B3B3" stroke-miterlimit="10" cx="640" cy="513.8" r="441.1"/>
	<circle fill="#FFFFFF" stroke="#B3B3B3" stroke-miterlimit="10" cx="640" cy="513.8" r="436.7"/>
	<circle fill="#FFFFFF" stroke="#B3B3B3" stroke-miterlimit="10" cx="640" cy="513.8" r="432.3"/>
	<circle fill="#FFFFFF" stroke="#B3B3B3" stroke-miterlimit="10" cx="640" cy="513.8" r="428"/>
	<circle fill="#FFFFFF" stroke="#B3B3B3" stroke-miterlimit="10" cx="640" cy="513.8" r="423.7"/>
	<circle fill="#FFFFFF" stroke="#B3B3B3" stroke-miterlimit="10" cx="640" cy="513.8" r="419.5"/>
</g>
<rect x="-540.9" y="33.9" fill="none" width="221.9" height="126"/>
<text transform="matrix(1 0 0 1 -540.9148 65.6528)" font-family="'ClarendonBT-Black'" font-size="47.2615">1234567</text>
<text transform="matrix(1 0 0 1 -540.9148 122.3671)" font-family="'ClarendonBT-Black'" font-size="47.2615">890</text>
<path fill="#BA1628" d="M551,779.7h13.9v-54.4H551V779.7z M643,779.7l13.9,0v-54.4H643V779.7L643,779.7z M483.7,725.3h14l13.6,31.4
	h0.9l13.8-31.4l14.3,0l-23.8,54.5l-8.8,0L483.7,725.3z M575.7,725.3l13.9,0l13.6,31.3h1l13.7-31.4l14.3,0l-23.7,54.4l-8.9,0
	L575.7,725.3z M674.9,725.3h9.8c1.2,1.7,2.3,3.3,3.4,4.7h0.9c13.9-10.6,35.2-3.9,35.2,14l0,35.8h-13.5l-0.1-33.6
	c-0.7-11.2-17.3-12.7-20.5-1.4c-0.9,3.6-1.3,7.3-1,11l0,24l-14.3,0L674.9,725.3z M767.4,724.9c15.9,0,28.8,12.4,28.8,27.5
	c-0.4,15.6-13.3,27.9-28.8,27.6v-11.4c8.7-0.1,15.7-7.3,15.6-16c-0.1-8.6-7-15.5-15.6-15.6V724.9z M767.4,779.9
	c-15.6,0.3-28.5-12-28.8-27.6c0-15.1,12.9-27.5,28.8-27.5v12c-8.7,0.1-15.7,7.3-15.6,16c0.1,8.6,7,15.5,15.6,15.6V779.9L767.4,779.9
	z"/>
<g id="g10" transform="matrix(1.3333333,0,0,-1.3333333,0,424)">
	<g id="g12" transform="scale(0.1)">
		<path id="path14" fill="#AA1329" d="M5011.9,2277.5c8.8-3.6,17.5-7.5,26.4-10.8c69.2-26,110.4-96.1,97.7-166.6
			c-13.6-75.6-76-129.2-150.4-129.1c-74.2,0.1-136.9,53.8-150.6,129.1c-12.8,69.8,28.9,140.5,98.1,166.5c8.9,3.3,17.5,7.3,26.3,10.9
			C4976.9,2277.5,4994.4,2277.5,5011.9,2277.5"/>
		<path id="path16" fill="#AA1329" d="M4778.5,421.6c-8,3-16,6.3-24.1,9.1c-70.2,24.3-113.5,94.4-102.9,167.1
			c10.7,73.4,74.2,128.8,149.5,130.4c71,1.5,138.2-52.4,151.4-121.2c14.3-74.8-25-146.1-95.6-173.8c-8.8-3.4-17.2-7.6-25.9-11.5
			C4813.5,421.6,4796,421.6,4778.5,421.6"/>
		<path id="path18" fill="#AA1329" d="M5019,1196.9c1.8,83.3,72.7,152,155.1,150.3c83.5-1.7,152.3-71.8,151.3-154.3
			c-1-84.4-72.7-153.6-156.7-151.5C5085,1043.6,5017.1,1114.1,5019,1196.9"/>
		<path id="path20" fill="#AA1329" d="M4579.6,1193.1c-0.4-83.2-69.7-152-153-151.7c-83.7,0.3-152.1,68.8-152,152.4
			c0.1,85.2,70.2,154.9,154.1,153.4C4512.3,1345.6,4580,1276.4,4579.6,1193.1"/>
		<path id="path22" fill="#AA1329" d="M4988.9,731c-84.3,0.5-151.6,68.4-151.3,152.6c0.3,84.7,70,152.4,155.7,151.3
			c82.6-1.1,149.4-68.4,149.9-151.3C5143.8,798.5,5075,730.5,4988.9,731"/>
		<path id="path24" fill="#AA1329" d="M4644.7,1818.5c-0.4,85,68.7,154.7,153.2,154.3c83.7-0.4,151.6-68.7,151.7-152.7
			c0.1-83.7-67.8-152.3-151.5-153.1C4715.5,1666.2,4645.1,1735.7,4644.7,1818.5"/>
		<path id="path26" fill="#AA1329" d="M4612.9,1344.4c-83.9-0.2-152.9,67.6-153.5,150.9c-0.6,84.2,69,153.2,154.3,152.7
			c83.8-0.5,152.4-69.1,151.9-152.1C4765.2,1412.3,4697,1344.6,4612.9,1344.4"/>
		<path id="path28" fill="#AA1329" d="M4955,1192.9c-0.6-83.6-69.4-151.8-152.8-151.5c-84.7,0.3-152.6,69.9-151.7,155.5
			c0.9,83.1,71.6,152,154.2,150.3C4888.6,1345.4,4955.6,1276.7,4955,1192.9"/>
		<path id="path30" fill="#AA1329" d="M5140.5,1495.6c-0.3-84.2-67.7-151.2-152.1-151.2c-84.4,0-152,67.1-152.2,151.1
			c-0.2,85.9,67.5,153.1,153.5,152.4C5074.5,1647.3,5140.8,1580.3,5140.5,1495.6"/>
		<path id="path32" fill="#AA1329" d="M4766.7,881.5c-0.5-84.4-67.7-150.7-152.7-150.5c-85.8,0.2-152.6,68.3-151.6,154.6
			c1,83.8,69.4,150.1,154.2,149.3C4700.8,1034.1,4767.2,966.2,4766.7,881.5"/>
	</g>
</g>
<g id="g10_1_" transform="matrix(1.3333333,0,0,-1.3333333,0,424)" display="none">
	<g id="g12_1_" transform="scale(0.1)" display="inline">
		<path id="path14_1_" fill="none" stroke="#AA1329" stroke-miterlimit="10" d="M6669.8,828.9c24.3,0,48.5,0,72.8,0
			c12.1-5.1,24.1-10.5,36.4-15.1c95.9-36.1,153.6-133.9,135.9-230.7c-19.1-104.3-105.9-178.7-208.7-178.8
			c-103-0.1-189.5,74.1-208.3,178.8c-17.6,97.6,39.4,194.7,135.4,230.8C6645.6,818.5,6657.6,823.9,6669.8,828.9"/>
		<path id="path16_1_" fill="none" stroke="#AA1329" stroke-miterlimit="10" d="M6993.2-1741.9c-24.3,0-48.5,0-72.8,0
			c-11.9,5.3-23.7,11.2-35.8,15.9c-97.8,38.3-152.2,137.1-132.4,240.7c18.3,95.4,111.4,170,209.8,167.9
			c104.3-2.2,192.4-78.9,207.1-180.6c14.6-100.6-45.3-197.7-142.6-231.4C7015.3-1733.3,7004.3-1737.7,6993.2-1741.9"/>
		<path id="path18_1_" fill="none" stroke="#AA1329" stroke-miterlimit="10" d="M6660-668c2.5-114.6-91.5-212.3-207.3-215.3
			c-116.4-3-215.7,93-217.1,209.8c-1.4,114.2,93.9,211.3,209.6,213.7C6559.3-457.5,6657.5-552.6,6660-668"/>
		<path id="path20_1_" fill="none" stroke="#AA1329" stroke-miterlimit="10" d="M7268.6-673.2c-0.6,115.4,93.3,211.3,208.9,213.4
			c116.3,2.2,213.4-94.4,213.5-212.5c0.2-115.8-94.5-210.7-210.5-211.1C7365.3-883.7,7269.2-788.5,7268.6-673.2"/>
		<path id="path22_1_" fill="none" stroke="#AA1329" stroke-miterlimit="10" d="M6701.7-1313.3c-119.3-0.7-214.6,93.5-213.8,211.3
			c0.8,114.9,93.2,208.1,207.7,209.6c118.7,1.5,215.2-92.3,215.6-209.6C6911.8-1218.5,6818.4-1312.6,6701.7-1313.3"/>
		<path id="path24_1_" fill="none" stroke="#AA1329" stroke-miterlimit="10" d="M7178.5,193.2c-0.6-114.7-98-211-212.4-209.8
			c-116,1.2-210,96.2-209.9,212.1c0.1,116.3,94.2,210.9,210.1,211.5C7083.3,407.5,7179.1,311,7178.5,193.2"/>
		<path id="path26_1_" fill="none" stroke="#AA1329" stroke-miterlimit="10" d="M7222.5-463.6c-116.4,0.3-211,94-211.6,209.9
			c-0.7,114.9,94.4,210,210.5,210.6c118.2,0.6,214.7-94.8,213.8-211.5C7434.3-370,7338.7-463.9,7222.5-463.6"/>
		<path id="path28_1_" fill="none" stroke="#AA1329" stroke-miterlimit="10" d="M6748.7-673.4c-0.8,116,91.9,211.2,208.1,213.7
			c114.4,2.4,212.3-93,213.6-208.2c1.3-118.6-92.8-215-210.1-215.4C6844.8-883.8,6749.5-789.3,6748.7-673.4"/>
		<path id="path30_1_" fill="none" stroke="#AA1329" stroke-miterlimit="10" d="M6491.6-254.2c-0.4,117.3,91.5,210.2,208.7,211
			c119.2,0.9,212.9-92.1,212.7-211.1c-0.2-116.4-93.8-209.4-210.8-209.4C6585.4-463.6,6492-370.7,6491.6-254.2"/>
		<path id="path32_1_" fill="none" stroke="#AA1329" stroke-miterlimit="10" d="M7009.4-1104.8c-0.6,117.3,91.4,211.3,207.9,212.4
			c117.4,1.1,212.3-90.7,213.6-206.8c1.4-119.4-91.2-213.8-210-214.1C7103.2-1313.6,7010-1221.7,7009.4-1104.8"/>
	</g>
</g>
<g>
	<rect x="323.7" y="338.2" fill="none" width="656.1" height="409.5"/>
	<text transform="matrix(1 0 0 1 323.7211 630.1293)" font-family="'ClarendonBT-Black'" font-size="435" letter-spacing="-32">3.9</text>
</g>
</svg>
